<svg width="2100" height="778" viewBox="0 0 2100 778" fill="none" xmlns="http://www.w3.org/2000/svg">
    <path
        d="m900 359.956c32.385 21.064 59.102 49.42 80.152 85.067 21.05 34.027 30.766 72.104 29.147 114.233-1.62 59.952-23.479 110.992-65.579 153.121-42.1 42.128-93.916 64.003-155.447 65.623-32.384 0-62.34-5.671-89.867-17.013-27.527-11.343-51.816-26.736-72.866-46.18-19.431-21.064-35.623-45.369-48.577-72.914-11.334-27.546-17.002-56.712-17.002-87.498v-7.292c1.62-64.813 11.335-124.765 29.146-179.856 19.431-55.091 42.91-104.511 70.437-148.26 27.527-45.369 55.864-84.257 85.01-116.663 30.765-34.0272 57.483-61.5727 80.152-82.637 16.192-14.5829 34.813-21.0643 55.863-19.444 22.67 0 41.291 8.1017 55.864 24.3051 14.573 17.8235 21.05 37.2674 19.431 58.3317-1.619 21.0642-10.525 38.8882-26.717 53.4712-8.097 8.101-17.002 17.013-26.718 26.735-9.715 8.102-19.431 17.013-29.146 26.735-22.669 27.546-31.575 58.332-26.717 92.359 4.857 34.027 22.669 59.952 53.434 77.776zm-531.918 0c32.385 21.064 59.102 49.42 80.152 85.067 21.05 34.027 30.766 72.104 29.146 114.233-1.619 59.952-23.478 110.992-65.579 153.121-42.1 42.128-93.915 64.003-155.446 65.623-30.765 0-59.912-5.671-87.4386-17.013-27.5269-11.343-51.8154-26.736-72.8655-46.18-19.4307-21.064-35.6231-45.369-48.577-72.914-11.3346-27.546-17.0019-56.712-17.0019-87.498v-7.292c0-64.813 9.7154-124.765 29.1462-179.856 19.4308-55.091 42.1001-104.511 68.0078-148.26 27.527-45.369 55.864-84.257 85.01-116.663 30.765-34.0272 57.483-61.5727 80.152-82.637 16.192-14.5829 34.813-21.0643 55.863-19.444 22.67 0 41.291 8.1017 55.864 24.3051 14.573 17.8235 21.05 37.2674 19.431 58.3317-1.62 21.0642-10.525 38.8882-26.718 53.4712-8.096 8.101-17.002 17.013-26.717 26.735-9.715 8.102-19.431 17.013-29.146 26.735-22.669 27.546-31.575 58.332-26.718 92.359 4.858 34.027 22.67 59.952 53.435 77.776z"
        fill="#F4E8A0" />
    <path
        d="m1200 418.044c-32.385-21.064-59.1023-49.42-80.1524-85.067-21.05-34.027-30.7655-72.104-29.1462-114.233 1.6192-59.952 23.4788-110.992 65.5789-153.1208 42.0997-42.1284 93.9157-64.0028 155.4467-65.6231 32.384-0 62.34 5.6712 89.867 17.0134 27.527 11.3423 51.816 26.7353 72.866 46.1792 19.43 21.0643 35.623 45.3693 48.577 72.9143 11.334 27.546 17.002 56.712 17.002 87.498l0 7.292c-1.62 64.813-11.335 124.765-29.147 179.856-19.43 55.091-42.909 104.511-70.436 148.26-27.527 45.369-55.864 84.257-85.01 116.663-30.765 34.027-57.483 61.573-80.152 82.637-16.192 14.583-34.813 21.064-55.863 19.444-22.67 0-41.2909-8.102-55.8641-24.305-14.5731-17.824-21.05-37.267-19.4308-58.332 1.6193-21.064 10.5251-38.888 26.7173-53.471 8.0962-8.101 17.002-17.013 26.7176-26.735 9.715-8.102 19.431-17.013 29.146-26.735 22.669-27.546 31.575-58.332 26.717-92.359-4.857-34.027-22.669-59.952-53.434-77.776zm531.918 0c-32.385-21.064-59.102-49.42-80.152-85.067-21.05-34.027-30.766-72.104-29.146-114.233 1.619-59.952 23.478-110.992 65.578-153.1208 42.101-42.1285 93.916-64.0029 155.447-65.6232 30.765-0 59.912 5.6712 87.438 17.0135 27.527 11.3423 51.816 26.7353 72.866 46.1792 19.431 21.0643 35.623 45.3693 48.577 72.9143 11.335 27.546 17.002 56.712 17.002 87.498l0 7.292c0 64.813-9.715 124.765-29.146 179.856-19.431 55.091-42.1 104.511-68.008 148.26-27.527 45.369-55.864 84.257-85.01 116.663-30.765 34.027-57.483 61.573-80.152 82.637-16.192 14.583-34.813 21.064-55.863 19.444-22.67 0-41.291-8.102-55.864-24.305-14.573-17.824-21.05-37.268-19.431-58.332 1.62-21.064 10.525-38.888 26.718-53.471 8.096-8.101 17.002-17.013 26.717-26.735 9.715-8.102 19.431-17.013 29.146-26.735 22.669-27.546 31.575-58.332 26.718-92.359-4.858-34.027-22.67-59.952-53.435-77.776z"
        fill="#F4E8A0" fill-opacity="0.1" />
</svg>