<svg width="827" height="875" viewBox="0 340 827 875" fill="none" xmlns="http://www.w3.org/2000/svg">
    <path
        d="M-344.749 191.231C-241.281 195.551 -153.132 122.033 -135.914 22.9631C-132.987 196.707 -29.712 360.976 140.494 433.419C279.508 492.586 431.738 477.073 552.029 405.059C646.733 369.99 755.135 409.75 803.364 501.596C851.347 593.337 822.458 704.834 739.802 762.716C732.702 767.812 725.213 772.452 717.339 776.638C487.94 896.435 220.147 907.41 -17.6004 806.219C-74.8269 781.862 -129.582 751.019 -180.602 714.808C-237.769 673.952 -288.364 627.196 -332.698 575.276C-333.859 573.912 -335.017 572.549 -336.177 571.185C-339.799 566.745 -343.423 562.303 -347.045 557.863C-352.213 551.604 -357.276 545.101 -362.095 538.701C-363.255 537.337 -364.312 535.728 -365.472 534.364C-429.804 449 -477.486 352.46 -506.57 251.078C-507.208 248.487 -508.09 245.792 -508.832 243.446C-510.709 236.269 -512.587 229.092 -514.464 221.915C-515.598 217.084 -516.978 212.148 -518.008 207.071C-518.824 203.535 -519.639 199.998 -520.209 196.567C-534.087 132.387 -540.646 66.6855 -539.81 0.651357C-533.361 103.416 -450.145 186.67 -344.995 191.126L-344.749 191.231Z"
        fill="white" fill-opacity="0.05" />
</svg>