<svg xmlns="http://www.w3.org/2000/svg" xmlns:xlink="http://www.w3.org/1999/xlink" width="1211" height="1089" viewBox="0 0 1211 1089">
  <defs>
    <filter id="Rectangle_109" x="0" y="0" width="1211" height="1089" filterUnits="userSpaceOnUse">
      <feOffset dy="3" input="SourceAlpha"/>
      <feGaussianBlur stdDeviation="7.5" result="blur"/>
      <feFlood flood-opacity="0.059"/>
      <feComposite operator="in" in2="blur"/>
      <feComposite in="SourceGraphic"/>
    </filter>
    <clipPath id="clip-path">
      <rect id="Rectangle_120" data-name="Rectangle 120" width="477" height="429" transform="translate(-31 477) rotate(-90)" fill="#f7e1e2"/>
    </clipPath>
    <clipPath id="clip-path-2">
      <rect id="Rectangle_121" data-name="Rectangle 121" width="354" height="236" transform="translate(0 135) rotate(-90)" fill="#f7e1e2"/>
    </clipPath>
  </defs>
  <g id="Group_1142" data-name="Group 1142" transform="translate(-233.5 3.5)">
    <g transform="matrix(1, 0, 0, 1, 233.5, -3.5)" filter="url(#Rectangle_109)">
      <rect id="Rectangle_109-2" data-name="Rectangle 109" width="1166" height="1044" transform="translate(22.5 19.5)" fill="#f7cdcc"/>
    </g>
    <g id="Mask_Group_2" data-name="Mask Group 2" transform="translate(287 16)" clip-path="url(#clip-path)">
      <path id="Path_130" data-name="Path 130" d="M189,168.931c1.989,2.587,4.067,5.084,6.112,7.818,75.6,99.649,58.818,241.236-37.973,320.469-2.452,1.977-5.005,4-7.739,6.044a230.733,230.733,0,0,1-21.591,14.349A112.845,112.845,0,0,0,242.5,711.983,453.252,453.252,0,0,0,284.719,683.9q7.66-5.762,15.083-11.806v-.023A453.861,453.861,0,0,0,467.33,326.844a460,460,0,0,0-92.7-284.462c-1.661-2.2-3.378-4.3-5.073-6.474a113.389,113.389,0,0,1-23.974,146.05,111.666,111.666,0,0,1-157.28-14.3h-.011c-.192-.237-.4-.474-.588-.723-2.745-3.344-5.649-6.6-8.6-9.874" transform="translate(-250.485 -263.495)" fill="#f7e1e2"/>
    </g>
    <g id="Mask_Group_3" data-name="Mask Group 3" transform="translate(1186 925)" clip-path="url(#clip-path-2)">
      <path id="Path_131" data-name="Path 131" d="M145.175,118.7c1.238,1.61,2.531,3.164,3.8,4.866a144.719,144.719,0,0,1-23.633,199.453c-1.526,1.23-3.115,2.489-4.817,3.762a143.6,143.6,0,0,1-13.438,8.93A70.232,70.232,0,0,0,178.47,456.682,282.091,282.091,0,0,0,204.747,439.2q4.768-3.586,9.387-7.348v-.014A282.473,282.473,0,0,0,318.4,216.98,286.292,286.292,0,0,0,260.7,39.937c-1.034-1.371-2.1-2.679-3.157-4.029a70.571,70.571,0,0,1-14.921,90.9,69.5,69.5,0,0,1-97.888-8.9h-.007c-.12-.148-.246-.3-.366-.45-1.709-2.081-3.516-4.106-5.351-6.146" transform="translate(241.285 363.507) rotate(-159)" fill="#f7e1e2" opacity="0.51"/>
    </g>
  </g>
</svg>
