<svg xmlns="http://www.w3.org/2000/svg" xmlns:xlink="http://www.w3.org/1999/xlink" width="236" height="146" viewBox="0 0 236 146">
  <defs>
    <clipPath id="clip-path">
      <rect id="Rectangle_120" data-name="Rectangle 120" width="146" height="236" transform="translate(0 146) rotate(-90)" fill="#f7d7d7"/>
    </clipPath>
  </defs>
  <g id="Mask_Group_2" data-name="Mask Group 2" clip-path="url(#clip-path)">
    <path id="Path_130" data-name="Path 130" d="M145.175,118.7c1.238,1.61,2.531,3.164,3.8,4.866a144.719,144.719,0,0,1-23.633,199.453c-1.526,1.23-3.115,2.489-4.817,3.762a143.6,143.6,0,0,1-13.438,8.93A70.232,70.232,0,0,0,178.47,456.682,282.091,282.091,0,0,0,204.747,439.2q4.768-3.586,9.387-7.348v-.014A282.473,282.473,0,0,0,318.4,216.98,286.292,286.292,0,0,0,260.7,39.937c-1.034-1.371-2.1-2.679-3.157-4.029a70.571,70.571,0,0,1-14.921,90.9,69.5,69.5,0,0,1-97.888-8.9h-.007c-.12-.148-.246-.3-.366-.45-1.709-2.081-3.516-4.106-5.351-6.146" transform="translate(-111.126 -177.553)" fill="#f7d7d7"/>
  </g>
</svg>
