<svg xmlns="http://www.w3.org/2000/svg" xmlns:xlink="http://www.w3.org/1999/xlink" width="126" height="126" viewBox="0 0 126 126">
  <defs>
    <clipPath id="clip-path">
      <rect id="Rectangle_795" data-name="Rectangle 795" width="70.096" height="56.054" fill="#121b39"/>
    </clipPath>
  </defs>
  <g id="Group_1007" data-name="Group 1007" transform="translate(-430 -3152.216)">
    <g id="Ellipse_20" data-name="Ellipse 20" transform="translate(430 3152.216)" fill="none" stroke="#121b39" stroke-width="2">
      <circle cx="63" cy="63" r="63" stroke="none"/>
      <circle cx="63" cy="63" r="62" fill="none"/>
    </g>
    <g id="Group_1001" data-name="Group 1001" transform="translate(457.452 3187.189)">
      <g id="Group_1001-2" data-name="Group 1001" clip-path="url(#clip-path)">
        <path id="Path_2594" data-name="Path 2594" d="M30.912,16.289h8.354a14.659,14.659,0,0,1,2.693-6.311c.224-.3.133-.862.118-1.3A8.363,8.363,0,0,1,49.216.064,8.285,8.285,0,0,1,58.6,6.594a4.5,4.5,0,0,0,1.417,2.587,11.459,11.459,0,0,1,3.234,5.7c1.523,5.756,3.032,11.516,4.574,17.267a16.581,16.581,0,0,0,.822,2.049C71.1,40.066,70.5,45.607,66.409,50.48a14.508,14.508,0,0,1-15.969,4.9c-6.105-1.716-9.748-5.967-10.968-12.229-.064-.327-.133-.653-.217-1.068H30.826c-.159.7-.311,1.406-.48,2.107a15.378,15.378,0,0,1-30.334-4.1,19.892,19.892,0,0,1,.9-4.655c.928-3.208,2.056-6.359,2.972-9.57C4.937,22.155,5.834,18.4,6.839,14.678A10.949,10.949,0,0,1,9.812,9.4,5.527,5.527,0,0,0,11.5,6.4,8.113,8.113,0,0,1,19.481.01a8.277,8.277,0,0,1,8.207,6.17,2.346,2.346,0,0,1,.17.828c-.227,2.03.619,3.675,1.63,5.36a21.437,21.437,0,0,1,1.424,3.921M42.2,31.048c.186-.092.432-.136.551-.283a15.536,15.536,0,0,1,20.332-3.09,5.492,5.492,0,0,0,.81.3c-1.324-4.821-2.371-9.411-3.869-13.85a9.023,9.023,0,0,0-9.669-5.676,9.306,9.306,0,0,0-8.362,9.4c-.086,4.032-.031,8.067-.017,12.1a5.2,5.2,0,0,0,.258,1.129H42.1l.1.1c0-.045,0-.09,0-.134m-14.326.168A6.124,6.124,0,0,0,28,30.365c0-4.255.061-8.512-.024-12.765a9.177,9.177,0,0,0-8.709-9.2A9.336,9.336,0,0,0,9.5,15.453C8.523,19.18,7.506,22.9,6.523,26.621a11.548,11.548,0,0,0-.184,1.342c6.741-4.212,15.1-3.928,21.535,3.254M54.639,53.245a12.629,12.629,0,1,0,.012-25.259,12.629,12.629,0,0,0-.012,25.259M27.995,40.761A12.678,12.678,0,0,0,15.423,27.974a12.636,12.636,0,1,0-.086,25.271A12.606,12.606,0,0,0,27.995,40.761M39.105,19.22H30.887V30.715h8.219Zm-8.22,19.916H39.08v-5.5H30.885ZM45.1,6.966a33.46,33.46,0,0,1,5.133-1.317,31.481,31.481,0,0,1,5.141.276,5.3,5.3,0,0,0-5.423-3.17A5.407,5.407,0,0,0,45.1,6.966M14.58,6.2a12.794,12.794,0,0,1,10.3,1.013,5.221,5.221,0,0,0-4.618-4.45A5.389,5.389,0,0,0,14.58,6.2" transform="translate(0 0)" fill="#121b39"/>
      </g>
    </g>
  </g>
</svg>
