<svg xmlns="http://www.w3.org/2000/svg" xmlns:xlink="http://www.w3.org/1999/xlink" width="126" height="126" viewBox="0 0 126 126">
  <defs>
    <clipPath id="clip-path">
      <rect id="Rectangle_797" data-name="Rectangle 797" width="85" height="74" transform="translate(1386 3175)" fill="#fff" stroke="#707070" stroke-width="1"/>
    </clipPath>
    <clipPath id="clip-path-2">
      <rect id="Rectangle_796" data-name="Rectangle 796" width="168.472" height="167.839" fill="none"/>
    </clipPath>
  </defs>
  <g id="Group_1005" data-name="Group 1005" transform="translate(-1366 -3152.216)">
    <g id="Ellipse_22" data-name="Ellipse 22" transform="translate(1366 3152.216)" fill="#fff" stroke="#121b39" stroke-width="2">
      <circle cx="63" cy="63" r="63" stroke="none"/>
      <circle cx="63" cy="63" r="62" fill="none"/>
    </g>
    <g id="Mask_Group_32" data-name="Mask Group 32" clip-path="url(#clip-path)">
      <g id="Group_1004" data-name="Group 1004" transform="translate(1344.764 3129.212)">
        <path id="Path_2595" data-name="Path 2595" d="M586.005,1287.438l22.738.248-1.635,6.242-5.4,4.31-7.728.594-5.251-3.418-2.081-4.31Z" transform="translate(-540.578 -1187.633)" fill="#9bccf4"/>
        <path id="Path_2596" data-name="Path 2596" d="M1293.416,1287.438l22.739.248-1.635,6.242-5.4,4.31-7.728.594-5.251-3.418-2.081-4.31Z" transform="translate(-1193.151 -1187.633)" fill="#f6cdcc"/>
        <g id="Group_1003" data-name="Group 1003" transform="translate(0 0.004)">
          <g id="Group_1002" data-name="Group 1002" transform="translate(0 0)" clip-path="url(#clip-path-2)">
            <path id="Path_2597" data-name="Path 2597" d="M1104.2,852.805a.771.771,0,0,1-.771-.771V847a2.319,2.319,0,0,1,.523-1.464l2.335-2.854.025-.029c3.987-4.411,3.781-8.571,3.3-10.659a1.538,1.538,0,0,0-1.5-1.175h-8.488a.766.766,0,0,0-.63.325.755.755,0,0,0-.1.691,3.445,3.445,0,0,0,3.393,2.691h2.51a.771.771,0,0,1,0,1.542h-2.51a4.97,4.97,0,0,1-4.851-3.731,2.279,2.279,0,0,1,.3-2.088,2.321,2.321,0,0,1,1.885-.971h8.488a3.054,3.054,0,0,1,3,2.373c.543,2.377.79,7.1-3.651,12.022l-2.323,2.84a.772.772,0,0,0-.175.488v5.032a.771.771,0,0,1-.771.771" transform="translate(-1012.252 -764.995)"/>
            <path id="Path_2598" data-name="Path 2598" d="M1087.554,901.836a.771.771,0,0,1-.768-.848c.172-1.7,1.321-4.948,4.434-5.048h.025a.771.771,0,0,1,.024,1.541c-2.558.083-2.946,3.627-2.95,3.662a.771.771,0,0,1-.766.693" transform="translate(-1002.535 -826.486)"/>
            <path id="Path_2599" data-name="Path 2599" d="M924.968,861.38a.771.771,0,0,1-.771-.771V855.7a.761.761,0,0,0-.095-.371c-.048-.087-4.754-8.758-2.787-16.176a.771.771,0,0,1,1.49.395c-1.81,6.828,2.6,14.956,2.647,15.037a2.315,2.315,0,0,1,.286,1.115v4.913a.771.771,0,0,1-.771.771" transform="translate(-849.451 -773.57)"/>
            <path id="Path_2600" data-name="Path 2600" d="M930.6,751.943h-1.375a2.531,2.531,0,0,1-2.528-2.528v-5.059a2.531,2.531,0,0,1,2.528-2.528H930.6a2.531,2.531,0,0,1,2.528,2.528v5.059a2.531,2.531,0,0,1-2.528,2.528m-1.375-8.573a.987.987,0,0,0-.986.986v5.059a.987.987,0,0,0,.986.986H930.6a.987.987,0,0,0,.986-.986v-5.059a.987.987,0,0,0-.986-.986Z" transform="translate(-854.859 -684.323)"/>
            <path id="Path_2601" data-name="Path 2601" d="M993.343,732.524h-.5a3.087,3.087,0,0,1-3.083-3.083v-7.61a2.572,2.572,0,0,1,2.57-2.57h1.527a2.572,2.572,0,0,1,2.57,2.57v7.61a3.087,3.087,0,0,1-3.083,3.083M992.33,720.8a1.029,1.029,0,0,0-1.028,1.028v7.61a1.543,1.543,0,0,0,1.542,1.542h.5a1.543,1.543,0,0,0,1.542-1.542v-7.61a1.029,1.029,0,0,0-1.028-1.028Z" transform="translate(-913.034 -663.504)"/>
            <path id="Path_2602" data-name="Path 2602" d="M1059.613,732.524h-1.27a3.087,3.087,0,0,1-3.084-3.083v-7.61a2.573,2.573,0,0,1,2.57-2.57h1.527a2.572,2.572,0,0,1,2.57,2.57.771.771,0,0,1-1.542,0,1.029,1.029,0,0,0-1.028-1.028h-1.527a1.029,1.029,0,0,0-1.028,1.028v7.61a1.544,1.544,0,0,0,1.542,1.542h1.27a.771.771,0,1,1,0,1.542" transform="translate(-973.456 -663.504)"/>
            <path id="Path_2603" data-name="Path 2603" d="M1127.258,740.649a.771.771,0,0,1-.771-.771v-5.637a1.029,1.029,0,0,0-1.028-1.028h-1.527a1.029,1.029,0,0,0-1.028,1.028v5.242a.771.771,0,1,1-1.542,0v-5.242a2.572,2.572,0,0,1,2.569-2.57h1.527a2.573,2.573,0,0,1,2.57,2.57v5.637a.771.771,0,0,1-.771.771" transform="translate(-1034.435 -674.953)"/>
            <path id="Path_2604" data-name="Path 2604" d="M1270.067,853.956h-13.516a.771.771,0,0,1,0-1.542h13.516a.771.771,0,1,1,0,1.542" transform="translate(-1158.432 -786.335)"/>
            <path id="Path_2605" data-name="Path 2605" d="M739.551,853.956H724.024a.771.771,0,1,1,0-1.542h15.527a.771.771,0,1,1,0,1.542" transform="translate(-667.187 -786.335)"/>
            <path id="Path_2606" data-name="Path 2606" d="M599.907,887.03H577.133a.771.771,0,0,1-.729-1.022l11.387-33.075a.771.771,0,0,1,1.458,0l11.387,33.075a.771.771,0,0,1-.729,1.022m-21.693-1.542h20.613L588.52,855.553Z" transform="translate(-531.682 -786.335)"/>
            <path id="Path_2607" data-name="Path 2607" d="M588.52,1292a12.172,12.172,0,0,1-12.158-12.158.771.771,0,1,1,1.542,0,10.616,10.616,0,0,0,21.232,0,.771.771,0,0,1,1.542,0A12.172,12.172,0,0,1,588.52,1292" transform="translate(-531.683 -1179.923)"/>
            <path id="Path_2608" data-name="Path 2608" d="M1306.788,887.03h-22.774a.771.771,0,0,1-.729-1.022l11.387-33.075a.771.771,0,0,1,1.458,0l11.387,33.075a.771.771,0,0,1-.729,1.022m-21.693-1.542h20.612L1295.4,855.553Z" transform="translate(-1183.766 -786.335)"/>
            <path id="Path_2609" data-name="Path 2609" d="M1295.4,1292a12.172,12.172,0,0,1-12.158-12.158.771.771,0,1,1,1.542,0,10.616,10.616,0,0,0,21.232,0,.771.771,0,1,1,1.542,0A12.172,12.172,0,0,1,1295.4,1292" transform="translate(-1183.766 -1179.923)"/>
          </g>
        </g>
      </g>
    </g>
  </g>
</svg>
