<svg xmlns="http://www.w3.org/2000/svg" xmlns:xlink="http://www.w3.org/1999/xlink" width="126" height="126" viewBox="0 0 126 126">
  <defs>
    <clipPath id="clip-path">
      <rect id="Rectangle_794" data-name="Rectangle 794" width="77.11" height="64.079" transform="translate(0 0)" fill="#121b39"/>
    </clipPath>
  </defs>
  <g id="Group_1006" data-name="Group 1006" transform="translate(-897 -3152.216)">
    <g id="Ellipse_21" data-name="Ellipse 21" transform="translate(897 3152.216)" fill="#fff" stroke="#121b39" stroke-width="2">
      <circle cx="63" cy="63" r="63" stroke="none"/>
      <circle cx="63" cy="63" r="62" fill="none"/>
    </g>
    <g id="Group_1000" data-name="Group 1000" transform="translate(921.445 3187.33)">
      <g id="Group_1000-2" data-name="Group 1000" transform="translate(0 -0.004)" clip-path="url(#clip-path)">
        <path id="Path_2593" data-name="Path 2593" d="M74.465,12.429h0v0q-.178-.339-.369-.675a1.518,1.518,0,0,0-.124-.185A24.63,24.63,0,0,0,65.4,3.076a1.511,1.511,0,0,0-.236-.162q-.646-.358-1.314-.673a13.636,13.636,0,0,0-1.385-.6A23.422,23.422,0,0,0,50.839.216a22.953,22.953,0,0,0-12.273,5.6A23.2,23.2,0,0,0,0,23.2,23.047,23.047,0,0,0,6.795,39.6l.568.568a1.505,1.505,0,0,0,.324.245,5.663,5.663,0,0,0,5.655,5.232c.075,0,.151,0,.227-.005,0,.076-.006.152-.006.229a5.671,5.671,0,0,0,5.676,5.673c.075,0,.151,0,.227-.005,0,.076-.006.152-.006.229a5.671,5.671,0,0,0,5.676,5.673c.076,0,.153,0,.229-.005a5.673,5.673,0,0,0,9.681,4.243L37.15,59.57l2.843,2.843a5.673,5.673,0,0,0,9.679-4.3c.095,0,.189.007.284.007a5.666,5.666,0,0,0,5.668-5.9c.076,0,.152.006.229.006a5.67,5.67,0,0,0,5.668-5.9c.076,0,.152.006.229.006a5.673,5.673,0,0,0,5.244-3.507,1.5,1.5,0,0,0,.406-.288l2.921-2.921a23.257,23.257,0,0,0,4.144-27.187M13.341,42.634a2.663,2.663,0,0,1-1.883-4.547l2.6-2.6a2.664,2.664,0,0,1,3.767,3.767l-2.6,2.6a2.646,2.646,0,0,1-1.884.78m4.014,5.117a2.663,2.663,0,0,1,0-3.767l2.6-2.6h0a2.664,2.664,0,0,1,3.767,3.767l-2.6,2.6a2.667,2.667,0,0,1-3.767,0m5.9,5.9a2.663,2.663,0,0,1,0-3.767l2.6-2.6h0a2.663,2.663,0,1,1,3.767,3.767l-2.6,2.6a2.666,2.666,0,0,1-3.767,0m12.259,3.3-2.6,2.6a2.664,2.664,0,1,1-3.767-3.767l2.6-2.6h0a2.664,2.664,0,1,1,3.767,3.767m28.123-14.41a2.663,2.663,0,0,1-3.767,0L53.6,36.27h0l-5.9-5.9a1.506,1.506,0,1,0-2.13,2.13L57.737,44.668a2.663,2.663,0,1,1-3.767,3.767L41.8,36.269a1.506,1.506,0,1,0-2.13,2.13l5.9,5.9h0l6.269,6.269a2.664,2.664,0,1,1-3.767,3.767L41.8,48.063a1.5,1.5,0,0,0-.385-.278L39.631,46a1.506,1.506,0,0,0-2.13,2.13l8.389,8.389a2.664,2.664,0,1,1-3.767,3.767l-3.192-3.192a5.677,5.677,0,0,0-5.3-7.7c-.077,0-.153,0-.229.006a5.67,5.67,0,0,0-5.668-5.9c-.077,0-.153,0-.229.006a5.67,5.67,0,0,0-5.668-5.9c-.077,0-.153,0-.229.006a5.673,5.673,0,0,0-9.681-4.24l-2.6,2.6a5.671,5.671,0,0,0-.836,1.065A20.187,20.187,0,0,1,36.4,7.921l-9.256,9.256A6.472,6.472,0,0,0,36.3,26.329l4.1-4.1h5.309a10.549,10.549,0,0,0,1.3-.083L63.634,38.772a2.667,2.667,0,0,1,0,3.767m4.558-5.053L67.05,38.627a5.641,5.641,0,0,0-1.286-1.985L50.289,21.167a10.406,10.406,0,0,0,2.768-1.983l2.968-2.968a1.506,1.506,0,0,0-2.13-2.13l-2.968,2.968a7.335,7.335,0,0,1-5.22,2.162H39.773a1.507,1.507,0,0,0-1.065.441L34.166,24.2a3.459,3.459,0,0,1-4.892-4.892l10.37-10.37A20.29,20.29,0,0,1,61.491,4.493h0A21.271,21.271,0,0,1,71.4,13.081a1.523,1.523,0,0,0,.078.159,20.233,20.233,0,0,1-3.285,24.245" transform="translate(0 0.004)" fill="#121b39"/>
      </g>
    </g>
  </g>
</svg>
