<?xml version="1.0" encoding="UTF-8" standalone="no"?>
<svg
   width="40.840061"
   height="36.339672"
   viewBox="0 0 40.840061 36.339672"
   version="1.1"
   id="svg42"
   sodipodi:docname="CharizoneIcon.svg"
   inkscape:version="1.1 (c68e22c387, 2021-05-23)"
   inkscape:export-filename="C:\Users\drkan\code\cz-styles\src\static\images\CharizoneIcon.png"
   inkscape:export-xdpi="1203.52"
   inkscape:export-ydpi="1203.52"
   xmlns:inkscape="http://www.inkscape.org/namespaces/inkscape"
   xmlns:sodipodi="http://sodipodi.sourceforge.net/DTD/sodipodi-0.dtd"
   xmlns="http://www.w3.org/2000/svg"
   xmlns:svg="http://www.w3.org/2000/svg">
  <sodipodi:namedview
     id="namedview44"
     pagecolor="#ffffff"
     bordercolor="#666666"
     borderopacity="1.0"
     inkscape:pageshadow="2"
     inkscape:pageopacity="0.0"
     inkscape:pagecheckerboard="0"
     showgrid="false"
     fit-margin-top="0"
     fit-margin-left="0"
     fit-margin-right="0"
     fit-margin-bottom="0"
     inkscape:zoom="8.7368699"
     inkscape:cx="9.9005709"
     inkscape:cy="31.64749"
     inkscape:window-width="3440"
     inkscape:window-height="1369"
     inkscape:window-x="-8"
     inkscape:window-y="-8"
     inkscape:window-maximized="1"
     inkscape:current-layer="svg42" />
  <defs
     id="defs4">
    <clipPath
       id="clip-path">
      <path
         id="Path_276"
         data-name="Path 276"
         d="m 0,-281.721 h 121.1 v -63.235 H 0 Z"
         transform="translate(0,344.956)"
         fill="none" />
    </clipPath>
  </defs>
  <g
     id="Group_114"
     data-name="Group 114"
     transform="translate(5.8810578e-4,-0.00973571)">
    <path
       id="Path_283"
       data-name="Path 283"
       d="m -0.636,-80.768 a 21.148,21.148 0 0 1 12.52,-16.464 22.368,22.368 0 0 1 20.632,1.954 c 4.34,2.836 7.815,7.64 7.529,12.841 -0.307,5.59 -4.568,9.717 -9.137,12.284 -3.741,2.1 -7.541,5.22 -11.589,6.651 -11.531,4.076 -21.409,-5.524 -19.955,-17.266"
       transform="translate(0.778,98.898)"
       fill="#141d44" />
  </g>
  <g
     id="Group_115"
     data-name="Group 115"
     transform="translate(14.701588,4.9602643)">
    <path
       id="Path_284"
       data-name="Path 284"
       d="m -19.983,-111.452 q -0.261,0 -0.522,-0.01 a 12.326,12.326 0 0 1 -1.374,-0.134 3.069,3.069 0 0 1 -2.554,-3.5 3.058,3.058 0 0 1 3.48,-2.571 6.291,6.291 0 0 0 0.7,0.069 c 0.093,0 0.181,0.006 0.267,0.006 a 6.327,6.327 0 0 0 6.316,-6.107 c 0,-0.093 0.005,-0.181 0.005,-0.27 a 6.331,6.331 0 0 0 -6.066,-6.355 3.064,3.064 0 0 1 -2.924,-3.2 3.074,3.074 0 0 1 3.175,-2.943 12.441,12.441 0 0 1 11.922,12.494 q 0,0.26 -0.01,0.525 a 12.433,12.433 0 0 1 -12.415,12"
       transform="translate(24.469,136.469)"
       fill="#f6cdcc" />
  </g>
  <g
     id="Group_116"
     data-name="Group 116"
     transform="translate(6.7505881,4.9512643)">
    <path
       id="Path_285"
       data-name="Path 285"
       d="m -19.792,-91.466 a 3.047,3.047 0 0 1 -2.6,-1.46 12.547,12.547 0 0 1 -1.841,-6.553 12.554,12.554 0 0 1 4.24,-9.417 12.377,12.377 0 0 1 8.188,-3.1 12.4,12.4 0 0 1 9.355,4.268 c 0.155,0.179 0.3,0.359 0.445,0.542 a 3.087,3.087 0 0 1 -0.528,4.313 3.04,3.04 0 0 1 -4.285,-0.532 q -0.108,-0.14 -0.226,-0.276 a 6.309,6.309 0 0 0 -4.761,-2.171 6.3,6.3 0 0 0 -4.165,1.578 6.39,6.39 0 0 0 -2.159,4.795 6.364,6.364 0 0 0 0.934,3.328 3.086,3.086 0 0 1 -1,4.228 3.028,3.028 0 0 1 -1.6,0.457"
       transform="translate(24.235,111.997)"
       fill="#9bccf4" />
  </g>
  <g
     id="Group_117"
     data-name="Group 117"
     transform="translate(6.7505881,6.6502643)">
    <path
       id="Path_286"
       data-name="Path 286"
       d="m -55.4,-103.924 a 12.4,12.4 0 0 1 -9.335,-4.246 12.551,12.551 0 0 1 -3.1,-8.263 12.558,12.558 0 0 1 4.217,-9.4 12.641,12.641 0 0 1 1.1,-0.867 3.041,3.041 0 0 1 4.25,0.76 3.086,3.086 0 0 1 -0.755,4.278 6.2,6.2 0 0 0 -0.557,0.44 6.4,6.4 0 0 0 -2.148,4.786 6.386,6.386 0 0 0 1.577,4.2 6.315,6.315 0 0 0 4.753,2.161 6.293,6.293 0 0 0 4.175,-1.588 3.041,3.041 0 0 1 4.308,0.276 3.086,3.086 0 0 1 -0.274,4.336 12.368,12.368 0 0 1 -8.209,3.12"
       transform="translate(67.831,127.25)"
       fill="#ffffff" />
  </g>
</svg>
