<svg xmlns="http://www.w3.org/2000/svg" xmlns:xlink="http://www.w3.org/1999/xlink" viewBox="0 0 43.63 43.63">
  <g id="Group_1154" data-name="Group 1154">
    <g id="Group_114" data-name="Group 114">
      <path id="Path_283" data-name="Path 283"
        d="M1.164,21.768a21.542,21.542,0,0,1,12.753-16.771,22.784,22.784,0,0,1,21.016,1.99c4.421,2.889,7.961,7.782,7.669,13.08-.313,5.694-4.653,9.9-9.307,12.513-3.811,2.139-7.682,5.317-11.8,6.775-11.746,4.152-21.808-5.627-20.327-17.588"
        fill="#141d44"></path>
    </g>
    <g id="Group_1156" data-name="Group 1156">
      <path id="Path_2709" data-name="Path 2709"
        d="M32.56,20.278a11.853,11.853,0,0,0-2.451-6.429,2.826,2.826,0,0,1-4.34,3.548,6.305,6.305,0,0,1-4.419,9.974,2.827,2.827,0,0,0,.811,5.534,2.876,2.876,0,0,0,.43-.034c.072-.012.144-.025.216-.039.1-.018.2-.036.3-.056a11.869,11.869,0,0,0,9.487-11.662C32.584,20.837,32.574,20.555,32.56,20.278Z"
        fill="#f6cdcc"></path>
      <path id="Path_2710" data-name="Path 2710"
        d="M13.146,15.252a2.827,2.827,0,0,1,1.754,3.287,6.306,6.306,0,0,1,10.865-1.142,2.829,2.829,0,0,0,4.128-3.848,11.916,11.916,0,0,0-11.8-4.092,11.74,11.74,0,0,0-2.7.955l-.067.033c-.072.036-.142.073-.212.109-.1.053-.2.106-.3.162l-.067.038a12.049,12.049,0,0,0-3.342,2.854l-.069.087c-.064.08-.126.162-.188.244-.042.056-.085.112-.126.169-.029.04-.057.082-.086.122a12.116,12.116,0,0,0-1.314,2.4A2.828,2.828,0,0,1,13.146,15.252Z"
        fill="#9bccf4"></path>
      <path id="Path_2711" data-name="Path 2711"
        d="M19.37,30.539a2.826,2.826,0,0,1,1.976-3.168,6.408,6.408,0,0,1-.683.037,6.306,6.306,0,0,1-5.762-8.87,2.826,2.826,0,0,0-5.276-1.913,11.9,11.9,0,0,0-.8,3.081c-.009.077-.019.154-.026.231-.005.057-.01.115-.016.172-.012.144-.022.288-.029.432v.025q-.012.266-.012.532a12.058,12.058,0,0,0,.073,1.329v.011c.023.2.052.4.084.6.007.044.016.087.023.131q.041.232.09.462.026.117.054.235c0,.013.007.025.01.038q.036.147.075.293.045.168.095.335c.021.069.042.136.064.2.046.143.094.286.145.428.01.029.021.057.032.085.063.17.129.339.2.507q.164.387.353.756l.039.077q.088.171.182.337c.027.048.055.1.083.143q.132.227.272.448c.057.089.115.179.174.266q.064.1.131.189c.228.322.47.633.729.933l.024.028c.12.137.245.272.371.4.064.067.129.132.194.2s.125.124.189.185q.119.114.242.225c.046.042.093.082.14.123a11.886,11.886,0,0,0,9.775,2.8,2.876,2.876,0,0,1-.43.034A2.829,2.829,0,0,1,19.37,30.539Z"
        fill="#fff"></path>
    </g>
  </g>

  <animateTransform xlink:href="#Group_1156" attributeName="transform" attributeType="XML" type="rotate"
    from="0 20.668 21.097" to="360 20.668 21.097" dur="2s" repeatCount="indefinite" />
</svg>