<svg xmlns="http://www.w3.org/2000/svg" width="217.972" height="112.329" viewBox="0 0 217.972 112.329">
  <g id="Group_1158" data-name="Group 1158" transform="translate(-1211.183 -389.79)">
    <g id="Group_104" data-name="Group 104" transform="translate(1247.335 468.593)">
      <path id="Path_272" data-name="Path 272"
        d="M1289.377,529.781v14h-7.187V532.13a7.582,7.582,0,0,0-.912-4.226,3.444,3.444,0,0,0-3.056-1.318,3.91,3.91,0,0,0-3.242,1.365,6.25,6.25,0,0,0-1.1,4v11.832h-7.142V510.892h7.142V524.42a6.783,6.783,0,0,1,2.845-2.888,9.179,9.179,0,0,1,4.433-1.011q8.213,0,8.216,9.253"
        transform="translate(-1266.741 -510.892)" fill="#fff" />
    </g>
    <g id="Group_105" data-name="Group 105" transform="translate(1272.721 478.228)">
      <path id="Path_273" data-name="Path 273"
        d="M1310.671,548.015a9.944,9.944,0,0,1-3.662-4.251,14.343,14.343,0,0,1-1.253-6.131,13.974,13.974,0,0,1,1.306-6.109,10.142,10.142,0,0,1,3.758-4.274,10.289,10.289,0,0,1,5.625-1.549,8.613,8.613,0,0,1,4.248,1.034,6.773,6.773,0,0,1,2.788,2.816v-3.237h7.092v22.644h-7.092v-3.194a6.985,6.985,0,0,1-2.863,2.736,8.765,8.765,0,0,1-4.271,1.057,10.251,10.251,0,0,1-5.672-1.549m11.694-6.108a6.484,6.484,0,0,0,1.4-4.274,6.411,6.411,0,0,0-1.4-4.228,4.87,4.87,0,0,0-3.969-1.693,4.978,4.978,0,0,0-3.9,1.646,6.178,6.178,0,0,0-1.467,4.275,6.263,6.263,0,0,0,1.467,4.294,4.941,4.941,0,0,0,3.9,1.669,4.871,4.871,0,0,0,3.969-1.691"
        transform="translate(-1305.753 -525.699)" fill="#fff" />
    </g>
    <g id="Group_106" data-name="Group 106" transform="translate(1300.999 478.461)">
      <path id="Path_274" data-name="Path 274"
        d="M1349.209,549.08V526.434h7.142v4.744a6.365,6.365,0,0,1,2.308-3.782,6.271,6.271,0,0,1,3.9-1.339,7.839,7.839,0,0,1,1.868.188v6.67a20.072,20.072,0,0,0-2.147-.139,5.293,5.293,0,0,0-4.433,1.9,9.049,9.049,0,0,0-1.494,5.663v8.738Z"
        transform="translate(-1349.209 -526.057)" fill="#fff" />
    </g>
    <g id="Group_107" data-name="Group 107" transform="translate(1319.464 468.6)">
      <path id="Path_275" data-name="Path 275"
        d="M1378.646,517.333a3.648,3.648,0,0,1-1.059-2.648,3.7,3.7,0,0,1,1.059-2.695,3.6,3.6,0,0,1,2.7-1.086,3.646,3.646,0,0,1,2.715,1.1,3.691,3.691,0,0,1,1.073,2.674,3.623,3.623,0,0,1-1.073,2.656,3.675,3.675,0,0,1-2.716,1.086,3.6,3.6,0,0,1-2.7-1.086"
        transform="translate(-1377.585 -510.903)" fill="#fff" />
    </g>
    <path id="Path_277" data-name="Path 277" d="M1384.99,549.283H1377.9V526.639h7.092Z"
      transform="translate(-58.231 -47.799)" fill="#fff" />
    <g id="Group_109" data-name="Group 109" transform="translate(1329.686 478.838)">
      <path id="Path_278" data-name="Path 278"
        d="M1414.343,549.281H1393.3l11.061-16.677h-9.987v-5.966h20.816L1404.31,543.36h10.033Z"
        transform="translate(-1393.295 -526.637)" fill="#fff" />
    </g>
    <g id="Group_110" data-name="Group 110" transform="translate(1379.469 478.232)">
      <path id="Path_279" data-name="Path 279"
        d="M1469.8,548.957V526.313h7.142V529.6a6.786,6.786,0,0,1,2.845-2.888,9.18,9.18,0,0,1,4.435-1q8.213,0,8.216,9.254v14h-7.189V537.309a7.585,7.585,0,0,0-.912-4.226,3.443,3.443,0,0,0-3.056-1.319,3.916,3.916,0,0,0-3.243,1.365,6.253,6.253,0,0,0-1.1,3.993V548.96Z"
        transform="translate(-1469.799 -525.705)" fill="#fff" />
    </g>
    <g id="Group_111" data-name="Group 111" transform="translate(1405.235 478.23)">
      <path id="Path_280" data-name="Path 280"
        d="M1533.121,539.606h-16.614a4.43,4.43,0,0,0,1.494,3.383,5.689,5.689,0,0,0,3.781,1.175q3.313,0,4.2-2.022h7a7.682,7.682,0,0,1-3.616,5.382,13.487,13.487,0,0,1-7.585,2.045,12.6,12.6,0,0,1-9.078-3.149,11.585,11.585,0,0,1-3.289-8.785,12.932,12.932,0,0,1,1.494-6.366,10.016,10.016,0,0,1,4.248-4.133,13.656,13.656,0,0,1,6.395-1.432,13.424,13.424,0,0,1,6.139,1.362,10,10,0,0,1,4.152,3.805,10.614,10.614,0,0,1,1.471,5.59,28.607,28.607,0,0,1-.179,3.149m-6.859-4.464a4.717,4.717,0,0,0-1.253-3.43,4.83,4.83,0,0,0-3.5-1.174,5.08,5.08,0,0,0-3.62,1.253,4.518,4.518,0,0,0-1.376,3.356Z"
        transform="translate(-1509.396 -525.702)" fill="#fff" />
    </g>
    <!--<g id="Group_112" data-name="Group 112" transform="translate(1211.662 468.517)">
      <path id="Path_281" data-name="Path 281" d="M1244.717,526.264h0a16.415,16.415,0,1,0-32.766,2.05l.043.759,6.831-.47-.045-.742a9.571,9.571,0,1,1,10.118,9.055,9.823,9.823,0,0,1-1.431-.023l-.744-.068-.627,6.864.746.068c.492.045.984.066,1.483.066.344,0,.693-.011,1.049-.031a16.55,16.55,0,0,0,15.351-17.534" transform="translate(-1211.919 -510.776)" fill="#42476a"/>
    </g>-->
    <g id="Group_113" data-name="Group 113" transform="translate(1211.183 468.262)">
      <path id="Path_282" data-name="Path 282"
        d="M1227.951,544.153a16.724,16.724,0,0,1-10.864-4.025,16.957,16.957,0,0,1-1.9-23.8,16.692,16.692,0,0,1,23.642-1.914,17.314,17.314,0,0,1,1.839,1.836,3.824,3.824,0,0,1-.383,5.368,3.768,3.768,0,0,1-5.316-.365l-.018-.02a9.542,9.542,0,0,0-1.025-1.026,9.171,9.171,0,0,0-12.984,1.052,9.322,9.322,0,0,0,1.048,13.073,9.17,9.17,0,0,0,12.984-1.053,3.757,3.757,0,0,1,5.294-.461l.034.029a3.822,3.822,0,0,1,.428,5.368,16.71,16.71,0,0,1-12.778,5.942"
        transform="translate(-1211.183 -510.384)" fill="#fff" />
    </g>
    <g id="Group_114" data-name="Group 114" transform="translate(1282.671 389.789)">
      <path id="Path_283" data-name="Path 283"
        d="M1321.3,422.21a37.838,37.838,0,0,1,22.4-29.457,40.02,40.02,0,0,1,36.915,3.5c7.765,5.074,13.983,13.67,13.471,22.975-.549,10-8.173,17.385-16.348,21.978-6.693,3.757-13.493,9.34-20.735,11.9-20.631,7.293-38.305-9.884-35.7-30.892"
        transform="translate(-1321.043 -389.789)" fill="#fff" />
    </g>
    <g id="Group_1158-2" data-name="Group 1158" transform="translate(1296.229 400.09)">
      <path id="Path_2713" data-name="Path 2713"
        d="M1393.7,429.527a20.817,20.817,0,0,0-4.3-11.292,4.964,4.964,0,0,1-7.624,6.232,11.075,11.075,0,0,1-7.762,17.521,4.964,4.964,0,0,0,1.424,9.719,5.053,5.053,0,0,0,.755-.059c.127-.021.252-.044.379-.068.174-.031.348-.062.52-.1A20.848,20.848,0,0,0,1393.75,431C1393.75,430.509,1393.733,430.014,1393.7,429.527Z"
        transform="translate(-1351.866 -410.026)" fill="#f6cdcc" />
      <path id="Path_2714" data-name="Path 2714"
        d="M1350.454,416.293a4.964,4.964,0,0,1,3.081,5.773,11.076,11.076,0,0,1,19.083-2.005,4.969,4.969,0,0,0,7.252-6.76,20.93,20.93,0,0,0-20.727-7.187,20.617,20.617,0,0,0-4.742,1.677l-.118.059c-.126.062-.249.127-.373.192-.174.093-.349.187-.521.284l-.118.066a21.163,21.163,0,0,0-5.871,5.014l-.122.152c-.113.141-.222.284-.33.428-.074.1-.149.2-.222.3-.051.071-.1.143-.152.214a21.3,21.3,0,0,0-2.309,4.21A4.967,4.967,0,0,1,1350.454,416.293Z"
        transform="translate(-1342.713 -405.619)" fill="#9bccf4" />
      <path id="Path_2715" data-name="Path 2715"
        d="M1360.552,448.7a4.963,4.963,0,0,1,3.47-5.564,11.256,11.256,0,0,1-1.2.066,11.078,11.078,0,0,1-10.121-15.581,4.963,4.963,0,0,0-9.268-3.359,20.9,20.9,0,0,0-1.406,5.412c-.016.135-.032.27-.046.406-.01.1-.018.2-.027.3-.021.253-.039.506-.051.759l0,.044q-.021.466-.021.934a21.213,21.213,0,0,0,.129,2.334l0,.02c.04.356.09.71.148,1.062.013.077.027.153.041.23.047.272.1.543.159.812.031.137.063.275.095.411.005.023.012.045.017.067q.062.26.131.516.079.295.167.588c.036.12.074.239.113.359.081.252.165.5.255.753.018.049.038.1.056.149.111.3.227.6.353.89q.288.678.62,1.328c.023.045.046.09.069.135q.155.3.319.593c.047.084.1.167.145.251q.231.4.478.786c.1.157.2.314.305.467q.113.168.23.332c.4.565.825,1.113,1.281,1.639l.043.049c.211.241.429.477.652.709.112.117.227.231.341.346s.221.218.333.325q.21.2.425.4c.081.073.164.144.247.217A20.876,20.876,0,0,0,1366.2,452.8a5.053,5.053,0,0,1-.755.059A4.967,4.967,0,0,1,1360.552,448.7Z"
        transform="translate(-1341.879 -411.177)" fill="#141d44" />
    </g>
    <g id="Group_1159" data-name="Group 1159" transform="translate(1352.539 478.522)">
      <path id="Path_2716" data-name="Path 2716"
        d="M1440.42,526.151c7.127,0,11.956,4.735,11.956,11.527,0,6.7-4.829,11.43-11.956,11.43-7.177,0-12.006-4.733-12.006-11.43C1428.414,530.886,1433.243,526.151,1440.42,526.151Zm0,17.027c3.108,0,5.164-2.344,5.164-5.549,0-3.252-2.056-5.5-5.164-5.5s-5.167,2.247-5.167,5.5C1435.252,540.834,1437.309,543.178,1440.42,543.178Z"
        transform="translate(-1428.414 -526.151)" fill="#fff" />
    </g>
  </g>
</svg>