<svg xmlns="http://www.w3.org/2000/svg" xmlns:xlink="http://www.w3.org/1999/xlink" width="217" height="34.703" viewBox="0 0 217 34.703">
  <defs>
    <clipPath id="clip-path">
      <rect id="Rectangle_816" data-name="Rectangle 816" width="24.36" height="24.526" fill="none"/>
    </clipPath>
  </defs>
  <g id="Group_1099" data-name="Group 1099" transform="translate(-133 -2975.06)">
    <g id="Group_1086" data-name="Group 1086" transform="translate(169.209 2975.396)">
      <path id="Path_272" data-name="Path 272" d="M-46.348-38.664v14.023h-7.2v-11.67a7.6,7.6,0,0,0-.914-4.232,3.447,3.447,0,0,0-3.061-1.32A3.918,3.918,0,0,0-60.769-40.5a6.261,6.261,0,0,0-1.1,4v11.856H-69.02V-57.578h7.153v13.55a6.794,6.794,0,0,1,2.85-2.892,9.189,9.189,0,0,1,4.441-1.013q8.225,0,8.228,9.268" transform="translate(69.02 57.578)" fill="#fff"/>
    </g>
    <g id="Group_1087" data-name="Group 1087" transform="translate(194.629 2985.042)">
      <path id="Path_273" data-name="Path 273" d="M-10.08-45.692a9.964,9.964,0,0,1-3.669-4.259,14.362,14.362,0,0,1-1.262-6.141A13.988,13.988,0,0,1-13.7-62.21a10.159,10.159,0,0,1,3.764-4.282A10.312,10.312,0,0,1-4.3-68.044,8.628,8.628,0,0,1-.051-67.008a6.781,6.781,0,0,1,2.8,2.822v-3.246h7.1v22.679h-7.1v-3.2A7,7,0,0,1-.123-45.2,8.786,8.786,0,0,1-4.4-44.14a10.274,10.274,0,0,1-5.68-1.552M1.633-51.81a6.5,6.5,0,0,0,1.4-4.282,6.423,6.423,0,0,0-1.4-4.235,4.878,4.878,0,0,0-3.974-1.694,4.986,4.986,0,0,0-3.905,1.648,6.189,6.189,0,0,0-1.469,4.282,6.273,6.273,0,0,0,1.469,4.3,4.95,4.95,0,0,0,3.905,1.671A4.878,4.878,0,0,0,1.633-51.81" transform="translate(15.011 68.044)" fill="#fff"/>
    </g>
    <g id="Group_1088" data-name="Group 1088" transform="translate(222.955 2985.276)">
      <path id="Path_274" data-name="Path 274" d="M0-47.133V-69.812H7.153v4.752a6.375,6.375,0,0,1,2.311-3.788,6.281,6.281,0,0,1,3.905-1.34A7.821,7.821,0,0,1,15.24-70v6.681a20.043,20.043,0,0,0-2.15-.139,5.3,5.3,0,0,0-4.441,1.9,9.063,9.063,0,0,0-1.5,5.671v8.752Z" transform="translate(0 70.189)" fill="#fff"/>
    </g>
    <g id="Group_1089" data-name="Group 1089" transform="translate(241.449 2975.396)">
      <path id="Path_275" data-name="Path 275" d="M-2.168-13.172a3.655,3.655,0,0,1-1.06-2.658,3.705,3.705,0,0,1,1.06-2.7,3.606,3.606,0,0,1,2.7-1.087,3.65,3.65,0,0,1,2.72,1.107,3.7,3.7,0,0,1,1.08,2.678,3.628,3.628,0,0,1-1.08,2.658,3.677,3.677,0,0,1-2.72,1.087,3.606,3.606,0,0,1-2.7-1.087" transform="translate(3.228 19.616)" fill="#fff"/>
    </g>
    <path id="Path_2678" data-name="Path 2678" d="M337.867-50.716h-7.1V-73.4h7.1Z" transform="translate(-89.11 3059.049)" fill="#fff"/>
    <g id="Group_1090" data-name="Group 1090" transform="translate(251.686 2985.653)">
      <path id="Path_278" data-name="Path 278" d="M-43.1-46.362H-64.177l11.078-16.7h-10v-5.976h20.848l-10.891,16.75H-43.1Z" transform="translate(64.177 69.041)" fill="#fff"/>
    </g>
    <g id="Group_1091" data-name="Group 1091" transform="translate(300.894 2985.042)">
      <path id="Path_279" data-name="Path 279" d="M0-47.613V-70.292H7.153V-67A6.8,6.8,0,0,1,10-69.892,9.193,9.193,0,0,1,14.444-70.9q8.225,0,8.228,9.268v14.023h-7.2v-11.67a7.6,7.6,0,0,0-.914-4.232,3.447,3.447,0,0,0-3.06-1.32,3.918,3.918,0,0,0-3.248,1.366,6.261,6.261,0,0,0-1.1,4v11.856Z" transform="translate(0 70.904)" fill="#fff"/>
    </g>
    <g id="Group_1092" data-name="Group 1092" transform="translate(326.069 2985.042)">
      <path id="Path_280" data-name="Path 280" d="M-48.538-28.471h-16.64a4.438,4.438,0,0,0,1.5,3.388A5.7,5.7,0,0,0-59.9-23.9q3.319,0,4.208-2.025h7.012A7.693,7.693,0,0,1-52.3-20.542a13.5,13.5,0,0,1-7.6,2.048q-5.8,0-9.093-3.153t-3.294-8.8a12.948,12.948,0,0,1,1.5-6.376,10.039,10.039,0,0,1,4.254-4.139,13.678,13.678,0,0,1,6.4-1.436,13.447,13.447,0,0,1,6.147,1.363,10.02,10.02,0,0,1,4.158,3.812,10.634,10.634,0,0,1,1.473,5.6,28.8,28.8,0,0,1-.187,3.154m-6.87-4.47a4.722,4.722,0,0,0-1.262-3.435,4.843,4.843,0,0,0-3.5-1.175A5.088,5.088,0,0,0-63.8-36.3a4.523,4.523,0,0,0-1.377,3.362Z" transform="translate(72.282 42.398)" fill="#fff"/>
    </g>
    <g id="Group_1093" data-name="Group 1093" transform="translate(133.483 2975.318)">
      <path id="Path_281" data-name="Path 281" d="M-67.143-31.7v0A16.563,16.563,0,0,0-84.582-47.183,16.553,16.553,0,0,0-99.959-29.644l.042.76,6.842-.472-.044-.744a9.662,9.662,0,0,1,9-10.2,9.64,9.64,0,0,1,10.131,9.062,9.664,9.664,0,0,1-9,10.2,9.834,9.834,0,0,1-1.442-.024l-.745-.068-.627,6.874.747.068c.492.044.985.066,1.486.066.345,0,.694-.01,1.05-.031A16.575,16.575,0,0,0-67.143-31.7" transform="translate(99.988 47.213)" fill="#42476a"/>
    </g>
    <g id="Group_1094" data-name="Group 1094" transform="translate(133 2975.06)">
      <path id="Path_282" data-name="Path 282" d="M-34.333-69.139a16.75,16.75,0,0,1-10.881-4.033,16.939,16.939,0,0,1-5.914-12.885A16.984,16.984,0,0,1-47.119-97.01a16.736,16.736,0,0,1,12.8-5.95,16.734,16.734,0,0,1,10.881,4.034A17.318,17.318,0,0,1-21.6-97.088a3.83,3.83,0,0,1-.383,5.377,3.774,3.774,0,0,1-5.342-.386,9.593,9.593,0,0,0-1.027-1.027,9.186,9.186,0,0,0-5.972-2.213,9.2,9.2,0,0,0-7.034,3.268,9.327,9.327,0,0,0-2.2,6.012,9.309,9.309,0,0,0,3.248,7.08,9.2,9.2,0,0,0,5.973,2.213A9.2,9.2,0,0,0-27.3-80.03a3.767,3.767,0,0,1,5.337-.431,3.828,3.828,0,0,1,.428,5.372,16.735,16.735,0,0,1-12.8,5.95" transform="translate(51.128 102.96)" fill="#fff"/>
    </g>
    <g id="Group_1096" data-name="Group 1096" transform="translate(273.771 2985.237)">
      <g id="Group_1081" data-name="Group 1081" clip-path="url(#clip-path)">
        <path id="Path_2670" data-name="Path 2670" d="M140.717,70.324h.164c-.055,0-.109,0-.164,0" transform="translate(-128.667 -64.3)" fill="#9bccf4"/>
        <path id="Path_2671" data-name="Path 2671" d="M153.668,7.258c.04.089.077.181.116.271a3.063,3.063,0,0,0-.146-.394c-.094-.207-.2-.412-.3-.617l-.052-.1A12.127,12.127,0,0,0,142.618,0a12.229,12.229,0,0,1,11.05,7.258" transform="translate(-130.405)" fill="#9bccf4"/>
        <path id="Path_2672" data-name="Path 2672" d="M139.6,70.34h0" transform="translate(-127.554 -64.317)" fill="#f6cdcc"/>
        <path id="Path_2673" data-name="Path 2673" d="M6.071,35.717A11.845,11.845,0,0,1,9.616,26.73a10.513,10.513,0,0,1,1.143-.973" transform="translate(-5.551 -23.551)" fill="#9bccf4"/>
        <path id="Path_2674" data-name="Path 2674" d="M8.95,2.2a2.98,2.98,0,0,1,4.152.724l.014.021a3.024,3.024,0,0,1-.586,4.076q.226-.147.468-.277l.049-.026a6.148,6.148,0,0,1,2.447-.689c.064,0,.129-.008.193-.01h.1c.055,0,.11,0,.164,0a6.17,6.17,0,0,1,5.418,3.314q.082.156.153.314l.01.023a2.98,2.98,0,0,0,3.955,1.455,3.026,3.026,0,0,0,1.627-3.6c-.038-.091-.076-.182-.116-.271A12.229,12.229,0,0,0,15.955,0a12.057,12.057,0,0,0-5.022,1.075c-.243.11-.485.228-.724.355C4.944,4.249,3.236,10.276,4.481,16.014" transform="translate(-3.743 0.001)" fill="#9bccf4"/>
        <path id="Path_2675" data-name="Path 2675" d="M20.5,34.979l-.015-.017a2.98,2.98,0,0,0-4.207-.253,6.171,6.171,0,0,1-8.75-.562,6.271,6.271,0,0,1,.56-8.81,6.081,6.081,0,0,1,.546-.432c.053-.037.1-.077.154-.117a3.024,3.024,0,0,0,.586-4.076l-.014-.021a2.98,2.98,0,0,0-4.152-.724A12.317,12.317,0,0,0,3.037,38.125a12.157,12.157,0,0,0,9.149,4.162,12.4,12.4,0,0,0,8.045-3.058,3,3,0,0,0,.268-4.25" transform="translate(0 -17.761)" fill="#141d44"/>
        <path id="Path_2676" data-name="Path 2676" d="M142.017,90.111c.033.08.07.159.1.244a6.2,6.2,0,0,1-3.193,8c-.077.035-.157.069-.241.1a6.177,6.177,0,0,1-.656.221,3.011,3.011,0,0,0,1.613,5.8,12.079,12.079,0,0,0,1.282-.432q.237-.1.47-.2h0a12.11,12.11,0,0,0,6.7-7.74,12.275,12.275,0,0,0-.423-7.972c-.028-.068-.058-.135-.086-.2a3.026,3.026,0,0,1-1.627,3.6,2.98,2.98,0,0,1-3.955-1.455l-.01-.023c-.048-.105-.1-.209-.153-.314" transform="translate(-124.211 -80.4)" fill="#f6cdcc"/>
      </g>
    </g>
    <g id="Group_1097" data-name="Group 1097" transform="translate(273.771 2985.237)">
      <g id="Group_1081-2" data-name="Group 1081" clip-path="url(#clip-path)">
        <path id="Path_2670-2" data-name="Path 2670" d="M140.717,70.324h.164c-.055,0-.109,0-.164,0" transform="translate(-128.667 -64.3)" fill="#9bccf4"/>
        <path id="Path_2671-2" data-name="Path 2671" d="M153.668,7.258c.04.089.077.181.116.271a3.063,3.063,0,0,0-.146-.394c-.094-.207-.2-.412-.3-.617l-.052-.1A12.127,12.127,0,0,0,142.618,0a12.229,12.229,0,0,1,11.05,7.258" transform="translate(-130.405)" fill="#9bccf4"/>
        <path id="Path_2672-2" data-name="Path 2672" d="M139.6,70.34h0" transform="translate(-127.554 -64.317)" fill="#f6cdcc"/>
        <path id="Path_2673-2" data-name="Path 2673" d="M6.071,35.717A11.845,11.845,0,0,1,9.616,26.73a10.513,10.513,0,0,1,1.143-.973" transform="translate(-5.551 -23.551)" fill="#9bccf4"/>
        <path id="Path_2674-2" data-name="Path 2674" d="M8.95,2.2a2.98,2.98,0,0,1,4.152.724l.014.021a3.024,3.024,0,0,1-.586,4.076q.226-.147.468-.277l.049-.026a6.148,6.148,0,0,1,2.447-.689c.064,0,.129-.008.193-.01h.1c.055,0,.11,0,.164,0a6.17,6.17,0,0,1,5.418,3.314q.082.156.153.314l.01.023a2.98,2.98,0,0,0,3.955,1.455,3.026,3.026,0,0,0,1.627-3.6c-.038-.091-.076-.182-.116-.271A12.229,12.229,0,0,0,15.955,0a12.057,12.057,0,0,0-5.022,1.075c-.243.11-.485.228-.724.355C4.944,4.249,3.236,10.276,4.481,16.014" transform="translate(-3.743 0.001)" fill="#9bccf4"/>
        <path id="Path_2675-2" data-name="Path 2675" d="M20.5,34.979l-.015-.017a2.98,2.98,0,0,0-4.207-.253,6.171,6.171,0,0,1-8.75-.562,6.271,6.271,0,0,1,.56-8.81,6.081,6.081,0,0,1,.546-.432c.053-.037.1-.077.154-.117a3.024,3.024,0,0,0,.586-4.076l-.014-.021a2.98,2.98,0,0,0-4.152-.724A12.317,12.317,0,0,0,3.037,38.125a12.157,12.157,0,0,0,9.149,4.162,12.4,12.4,0,0,0,8.045-3.058,3,3,0,0,0,.268-4.25" transform="translate(0 -17.761)" fill="#fff"/>
        <path id="Path_2676-2" data-name="Path 2676" d="M142.017,90.111c.033.08.07.159.1.244a6.2,6.2,0,0,1-3.193,8c-.077.035-.157.069-.241.1a6.177,6.177,0,0,1-.656.221,3.011,3.011,0,0,0,1.613,5.8,12.079,12.079,0,0,0,1.282-.432q.237-.1.47-.2h0a12.11,12.11,0,0,0,6.7-7.74,12.275,12.275,0,0,0-.423-7.972c-.028-.068-.058-.135-.086-.2a3.026,3.026,0,0,1-1.627,3.6,2.98,2.98,0,0,1-3.955-1.455l-.01-.023c-.048-.105-.1-.209-.153-.314" transform="translate(-124.211 -80.4)" fill="#f6cdcc"/>
      </g>
    </g>
  </g>
</svg>
