<svg xmlns="http://www.w3.org/2000/svg" xmlns:xlink="http://www.w3.org/1999/xlink" width="216.999" height="34.704" viewBox="0 0 216.999 34.704">
  <defs>
    <clipPath id="clip-path">
      <path id="Path_35" data-name="Path 35" d="M0-32.78H217v-34.7H0Z" transform="translate(0 67.484)" fill="none"/>
    </clipPath>
  </defs>
  <g id="Group_988" data-name="Group 988" transform="translate(0 67.484)">
    <g id="Group_36" data-name="Group 36" transform="translate(0 -67.484)" clip-path="url(#clip-path)">
      <g id="Group_29" data-name="Group 29" transform="translate(148.566 10.178)">
        <path id="Path_28" data-name="Path 28" d="M-4.15-23.166q-.241,0-.486-.009a12.916,12.916,0,0,1-1.357-.13A3.01,3.01,0,0,1-8.51-26.728a3.005,3.005,0,0,1,3.4-2.535,6.466,6.466,0,0,0,.7.069l.257,0a6.2,6.2,0,0,0,6.189-5.986l0-.263A6.2,6.2,0,0,0-3.9-41.672,3,3,0,0,1-6.765-44.8a2.974,2.974,0,0,1,3.11-2.885A12.193,12.193,0,0,1,8.025-35.439c0,.161,0,.325-.009.49A12.19,12.19,0,0,1-4.15-23.166" transform="translate(8.543 47.692)" fill="#f6cdcc"/>
      </g>
      <g id="Group_30" data-name="Group 30" transform="translate(140.77 10.17)">
        <path id="Path_29" data-name="Path 29" d="M-4.115-19.009a2.985,2.985,0,0,1-2.55-1.431,12.3,12.3,0,0,1-1.807-6.421,12.308,12.308,0,0,1,4.155-9.233,12.136,12.136,0,0,1,8.027-3.04,12.156,12.156,0,0,1,9.171,4.184c.153.175.3.357.442.541a3.024,3.024,0,0,1-.533,4.226,2.979,2.979,0,0,1-4.2-.537c-.069-.09-.14-.175-.213-.26a6.183,6.183,0,0,0-4.669-2.13A6.17,6.17,0,0,0-.372-31.565a6.269,6.269,0,0,0-2.115,4.7A6.261,6.261,0,0,0-1.571-23.6a3.022,3.022,0,0,1-.976,4.144,2.954,2.954,0,0,1-1.568.449" transform="translate(8.472 39.134)" fill="#9bccf4"/>
      </g>
      <g id="Group_31" data-name="Group 31" transform="translate(140.769 11.835)">
        <path id="Path_30" data-name="Path 30" d="M-11.514-21.6a12.15,12.15,0,0,1-9.152-4.165,12.3,12.3,0,0,1-3.038-8.1,12.3,12.3,0,0,1,4.138-9.212,12.824,12.824,0,0,1,1.061-.841,2.979,2.979,0,0,1,4.17.727,3.024,3.024,0,0,1-.722,4.2,6.61,6.61,0,0,0-.561.444,6.261,6.261,0,0,0-2.1,4.686,6.259,6.259,0,0,0,1.547,4.121,6.183,6.183,0,0,0,4.658,2.119,6.17,6.17,0,0,0,4.1-1.558A2.981,2.981,0,0,1-3.2-28.91a3.026,3.026,0,0,1-.27,4.251A12.134,12.134,0,0,1-11.514-21.6" transform="translate(23.704 44.469)" fill="#fff"/>
      </g>
      <g id="Group_32" data-name="Group 32" transform="translate(36.208 0.337)">
        <path id="Path_31" data-name="Path 31" d="M-21.416-17.865V-3.842h-7.2v-11.67a7.6,7.6,0,0,0-.913-4.232,3.449,3.449,0,0,0-3.061-1.32A3.917,3.917,0,0,0-35.837-19.7a6.258,6.258,0,0,0-1.1,4V-3.842h-7.153V-36.779h7.153v13.55a6.792,6.792,0,0,1,2.85-2.892,9.193,9.193,0,0,1,4.441-1.013q8.225,0,8.228,9.268" transform="translate(44.088 36.779)" fill="#fff"/>
      </g>
      <g id="Group_33" data-name="Group 33" transform="translate(61.628 9.982)">
        <path id="Path_32" data-name="Path 32" d="M-4.658-21.113a9.959,9.959,0,0,1-3.669-4.259,14.359,14.359,0,0,1-1.262-6.141A13.986,13.986,0,0,1-8.28-37.63a10.148,10.148,0,0,1,3.764-4.282,10.308,10.308,0,0,1,5.634-1.552,8.629,8.629,0,0,1,4.254,1.036,6.783,6.783,0,0,1,2.8,2.822v-3.246h7.1v22.68h-7.1v-3.2A7,7,0,0,1,5.3-20.619a8.783,8.783,0,0,1-4.277,1.059,10.272,10.272,0,0,1-5.68-1.552M7.055-27.231a6.5,6.5,0,0,0,1.4-4.282,6.424,6.424,0,0,0-1.4-4.235A4.878,4.878,0,0,0,3.08-37.442,4.985,4.985,0,0,0-.825-35.794a6.189,6.189,0,0,0-1.469,4.282,6.274,6.274,0,0,0,1.469,4.3A4.951,4.951,0,0,0,3.08-25.537a4.878,4.878,0,0,0,3.975-1.694" transform="translate(9.589 43.464)" fill="#fff"/>
      </g>
      <g id="Group_34" data-name="Group 34" transform="translate(89.954 10.217)">
        <path id="Path_33" data-name="Path 33" d="M0-21.779v-22.68H7.153v4.752a6.375,6.375,0,0,1,2.311-3.788,6.283,6.283,0,0,1,3.906-1.34,7.81,7.81,0,0,1,1.87.189v6.681a20.151,20.151,0,0,0-2.15-.139,5.3,5.3,0,0,0-4.441,1.9,9.066,9.066,0,0,0-1.5,5.672v8.752Z" transform="translate(0 44.835)" fill="#fff"/>
      </g>
      <g id="Group_35" data-name="Group 35" transform="translate(108.448 0.337)">
        <path id="Path_34" data-name="Path 34" d="M-1-6.086a3.655,3.655,0,0,1-1.06-2.658A3.706,3.706,0,0,1-1-11.443,3.608,3.608,0,0,1,1.7-12.53a3.651,3.651,0,0,1,2.72,1.107A3.7,3.7,0,0,1,5.5-8.745a3.629,3.629,0,0,1-1.08,2.658A3.678,3.678,0,0,1,1.7-5,3.606,3.606,0,0,1-1-6.086" transform="translate(2.062 12.53)" fill="#fff"/>
      </g>
    </g>
    <path id="Path_36" data-name="Path 36" d="M218.386-24.2h-7.1v-22.68h7.1Z" transform="translate(-102.63 -10.007)" fill="#fff"/>
    <g id="Group_37" data-name="Group 37" transform="translate(118.687 -56.89)">
      <path id="Path_37" data-name="Path 37" d="M-19.913-21.423H-40.994l11.078-16.7h-10V-44.1h20.848l-10.891,16.75h10.049Z" transform="translate(40.994 44.102)" fill="#fff"/>
    </g>
    <g id="Group_42" data-name="Group 42" transform="translate(0 -67.484)" clip-path="url(#clip-path)">
      <g id="Group_38" data-name="Group 38" transform="translate(167.893 9.982)">
        <path id="Path_38" data-name="Path 38" d="M0-22V-44.68H7.153v3.293A6.792,6.792,0,0,1,10-44.279a9.193,9.193,0,0,1,4.441-1.013q8.224,0,8.228,9.268V-22h-7.2v-11.67a7.6,7.6,0,0,0-.914-4.232,3.449,3.449,0,0,0-3.061-1.32,3.917,3.917,0,0,0-3.247,1.367,6.258,6.258,0,0,0-1.1,4V-22Z" transform="translate(0 45.292)" fill="#fff"/>
      </g>
      <g id="Group_39" data-name="Group 39" transform="translate(193.068 9.982)">
        <path id="Path_39" data-name="Path 39" d="M-22.428-13.156h-16.64a4.438,4.438,0,0,0,1.5,3.388,5.7,5.7,0,0,0,3.787,1.178q3.318,0,4.208-2.025h7.012a7.692,7.692,0,0,1-3.622,5.387,13.506,13.506,0,0,1-7.6,2.048q-5.8,0-9.092-3.153t-3.294-8.8a12.948,12.948,0,0,1,1.5-6.376,10.042,10.042,0,0,1,4.254-4.14,13.682,13.682,0,0,1,6.4-1.436,13.447,13.447,0,0,1,6.147,1.364,10.016,10.016,0,0,1,4.158,3.812,10.63,10.63,0,0,1,1.473,5.6,28.767,28.767,0,0,1-.187,3.153m-6.87-4.47a4.721,4.721,0,0,0-1.262-3.435,4.842,4.842,0,0,0-3.5-1.175,5.087,5.087,0,0,0-3.626,1.248,4.522,4.522,0,0,0-1.377,3.362Z" transform="translate(46.172 27.083)" fill="#fff"/>
      </g>
      <g id="Group_40" data-name="Group 40" transform="translate(0.484 0.258)">
        <path id="Path_40" data-name="Path 40" d="M-31.025-14.649v0a16.563,16.563,0,0,0-17.44-15.476,16.554,16.554,0,0,0-15.376,17.54l.043.76,6.842-.472L-57-13.045a9.662,9.662,0,0,1,9-10.2A9.64,9.64,0,0,1-37.866-14.18a9.664,9.664,0,0,1-9,10.2,9.851,9.851,0,0,1-1.442-.024l-.745-.068L-49.683,2.8l.747.067c.492.044.985.066,1.486.066.345,0,.694-.01,1.05-.031A16.576,16.576,0,0,0-31.025-14.649" transform="translate(63.87 30.158)" fill="#42476a"/>
      </g>
      <g id="Group_41" data-name="Group 41" transform="translate(0 0)">
        <path id="Path_41" data-name="Path 41" d="M-15.864-31.947a16.752,16.752,0,0,1-10.881-4.033,16.937,16.937,0,0,1-5.914-12.885A16.983,16.983,0,0,1-28.65-59.818a16.734,16.734,0,0,1,12.8-5.95A16.73,16.73,0,0,1-4.97-61.734,17.367,17.367,0,0,1-3.128-59.9a3.83,3.83,0,0,1-.383,5.377A3.774,3.774,0,0,1-8.852-54.9,9.634,9.634,0,0,0-9.88-55.931a9.185,9.185,0,0,0-5.971-2.213,9.2,9.2,0,0,0-7.033,3.268,9.324,9.324,0,0,0-2.2,6.012,9.312,9.312,0,0,0,3.248,7.08,9.2,9.2,0,0,0,5.973,2.213,9.2,9.2,0,0,0,7.032-3.268,3.767,3.767,0,0,1,5.337-.431A3.828,3.828,0,0,1-3.066-37.9a16.734,16.734,0,0,1-12.8,5.95" transform="translate(32.659 65.768)" fill="#fff"/>
      </g>
    </g>
  </g>
</svg>
