<svg xmlns="http://www.w3.org/2000/svg" width="63.021" height="55.725" viewBox="0 0 63.021 55.725">
  <g id="Group_965" data-name="Group 965" transform="translate(-420.979 -6360.177)">
    <g id="Group_80" data-name="Group 80" transform="translate(420.979 6360.177)">
      <path id="Path_6" data-name="Path 6" d="M-.5-63.6a32.451,32.451,0,0,1,19.32-25.24,34.713,34.713,0,0,1,31.837,3c6.7,4.348,12.06,11.714,11.619,19.686-.474,8.57-7.049,14.9-14.1,18.833-5.772,3.222-11.637,8-17.883,10.2C12.5-30.879-2.748-45.6-.5-63.6" transform="translate(0.724 91.392)" fill="#f4e8a0"/>
    </g>
    <path id="Path_259" data-name="Path 259" d="M9723.9,8970h-9.264a7.625,7.625,0,0,0-7.638,7.61v9.263a7.625,7.625,0,0,0,7.638,7.638h9.264a7.625,7.625,0,0,0,7.61-7.638v-9.263a7.625,7.625,0,0,0-7.61-7.61Zm2.784,5.763a.94.94,0,0,0-.937-.909.923.923,0,1,0,0,1.847A.947.947,0,0,0,9726.686,8975.763Zm-7.416.414a6.117,6.117,0,1,0,4.273,1.791A6.063,6.063,0,0,0,9719.27,8976.177Zm0,10.035a3.971,3.971,0,1,1,2.785-6.755,3.859,3.859,0,0,1,1.186,2.784,4,4,0,0,1-3.971,3.971Zm10.146.661a5.555,5.555,0,0,1-5.515,5.543h-9.264a5.555,5.555,0,0,1-5.542-5.543v-9.263a5.555,5.555,0,0,1,5.542-5.515h9.264a5.555,5.555,0,0,1,5.515,5.515Z" transform="translate(-9266.767 -2594.215)" fill="#121b39" fill-rule="evenodd"/>
  </g>
</svg>
