<svg xmlns="http://www.w3.org/2000/svg" width="63.021" height="55.725" viewBox="0 0 63.021 55.725">
  <g id="Group_964" data-name="Group 964" transform="translate(-343.989 -6360.177)">
    <g id="Group_79" data-name="Group 79" transform="translate(343.989 6360.177)">
      <path id="Path_6" data-name="Path 6" d="M-.5-63.6a32.451,32.451,0,0,1,19.32-25.24,34.713,34.713,0,0,1,31.837,3c6.7,4.348,12.06,11.714,11.619,19.686-.474,8.57-7.049,14.9-14.1,18.833-5.772,3.222-11.637,8-17.883,10.2C12.5-30.879-2.748-45.6-.5-63.6" transform="translate(0.724 91.392)" fill="#f4e8a0"/>
    </g>
    <g id="Group_81" data-name="Group 81" transform="translate(-3.218 693.271)">
      <path id="Path_23" data-name="Path 23" d="M3677.408,3390a2.395,2.395,0,1,1-2.408,2.381A2.414,2.414,0,0,1,3677.408,3390Z" transform="translate(-3307.903 2294.785)" fill="#121b39" fill-rule="evenodd"/>
      <path id="Path_24" data-name="Path 24" d="M3690.491,3648.34h-2.814a.664.664,0,0,1-.676-.65v-12.014a.669.669,0,0,1,.676-.676h2.814a.664.664,0,0,1,.649.676v12.014A.658.658,0,0,1,3690.491,3648.34Z" transform="translate(-3319.578 2056.414)" fill="#121b39" fill-rule="evenodd"/>
      <path id="Path_25" data-name="Path 25" d="M3949.934,3627.546a4.544,4.544,0,0,0-4.573-4.546h-.7a4.025,4.025,0,0,0-3.328,1.732,1.515,1.515,0,0,0-.217.351h-.054v-1.488a.271.271,0,0,0-.271-.271h-3.517a.291.291,0,0,0-.271.271v12.8a.29.29,0,0,0,.271.27h3.6a.27.27,0,0,0,.271-.27v-7.387a2.334,2.334,0,0,1,3.978-1.677,2.4,2.4,0,0,1,.677,1.65v7.414a.271.271,0,0,0,.271.27h3.6a.271.271,0,0,0,.271-.27v-8.848Z" transform="translate(-3562.813 2068.09)" fill="#121b39" fill-rule="evenodd"/>
    </g>
  </g>
</svg>
