<svg xmlns="http://www.w3.org/2000/svg" width="63.021" height="55.725" viewBox="0 0 63.021 55.725">
  <g id="Group_963" data-name="Group 963" transform="translate(-267 -6360.177)">
    <g id="Group_78" data-name="Group 78" transform="translate(267 6360.177)">
      <path id="Path_6" data-name="Path 6" d="M-.5-63.6a32.451,32.451,0,0,1,19.32-25.24,34.713,34.713,0,0,1,31.837,3c6.7,4.348,12.06,11.714,11.619,19.686-.474,8.57-7.049,14.9-14.1,18.833-5.772,3.222-11.637,8-17.883,10.2C12.5-30.879-2.748-45.6-.5-63.6" transform="translate(0.724 91.392)" fill="#f4e8a0"/>
    </g>
    <path id="Path_260" data-name="Path 260" d="M537,6289.341a13.259,13.259,0,0,0,20.335-11.2v-.536a10.3,10.3,0,0,0,2.289-2.387,10.123,10.123,0,0,1-2.63.682h0a4.826,4.826,0,0,0,2.021-2.581,14.754,14.754,0,0,1-2.241.95c-.219.072-.463.146-.682.219a4.617,4.617,0,0,0-3.409-1.485,4.667,4.667,0,0,0-4.652,4.651,4.925,4.925,0,0,0,.122,1.047,13.918,13.918,0,0,1-9.547-4.821s-2.216,3.044,1.339,6.161a4.821,4.821,0,0,1-2.021-.608,4.435,4.435,0,0,0,3.677,4.627,4.244,4.244,0,0,1-2.046.073,4.6,4.6,0,0,0,4.262,3.263,8.939,8.939,0,0,1-6.819,1.948Z" transform="translate(-249.802 105.055)" fill="#121b39" fill-rule="evenodd"/>
  </g>
</svg>
