<svg xmlns="http://www.w3.org/2000/svg" width="124.096" height="63.951" viewBox="0 0 124.096 63.951">
  <g id="Group_1154" data-name="Group 1154" transform="translate(-1211.183 -112.875)">
    <g id="Group_104" data-name="Group 104" transform="translate(1231.765 157.74)">
      <path id="Path_272" data-name="Path 272" d="M1279.628,244.733V252.7h-4.092V246.07a4.315,4.315,0,0,0-.519-2.406,1.96,1.96,0,0,0-1.74-.751,2.226,2.226,0,0,0-1.846.777,3.559,3.559,0,0,0-.625,2.275V252.7h-4.066V233.979h4.066v7.7a3.862,3.862,0,0,1,1.62-1.644,5.226,5.226,0,0,1,2.524-.575q4.676,0,4.677,5.268" transform="translate(-1266.741 -233.979)" fill="#141d44"/>
    </g>
    <g id="Group_105" data-name="Group 105" transform="translate(1246.218 163.226)">
      <path id="Path_273" data-name="Path 273" d="M1308.553,261.49a5.662,5.662,0,0,1-2.085-2.42,8.166,8.166,0,0,1-.713-3.491,7.951,7.951,0,0,1,.744-3.478,5.774,5.774,0,0,1,2.139-2.434,5.857,5.857,0,0,1,3.2-.882,4.908,4.908,0,0,1,2.418.589,3.856,3.856,0,0,1,1.587,1.6v-1.843h4.038v12.892h-4.038v-1.818a3.981,3.981,0,0,1-1.63,1.557,4.994,4.994,0,0,1-2.431.6,5.84,5.84,0,0,1-3.229-.882m6.658-3.478a3.692,3.692,0,0,0,.8-2.433,3.65,3.65,0,0,0-.8-2.407,2.774,2.774,0,0,0-2.26-.964,2.835,2.835,0,0,0-2.219.937,3.517,3.517,0,0,0-.835,2.434,3.565,3.565,0,0,0,.835,2.445,2.814,2.814,0,0,0,2.219.95,2.773,2.773,0,0,0,2.26-.962" transform="translate(-1305.753 -248.785)" fill="#141d44"/>
    </g>
    <g id="Group_106" data-name="Group 106" transform="translate(1262.317 163.358)">
      <path id="Path_274" data-name="Path 274" d="M1349.209,262.25V249.358h4.066v2.7a3.623,3.623,0,0,1,1.314-2.154,3.57,3.57,0,0,1,2.219-.762,4.464,4.464,0,0,1,1.064.107v3.8a11.429,11.429,0,0,0-1.223-.079,3.014,3.014,0,0,0-2.524,1.082,5.152,5.152,0,0,0-.85,3.224v4.975Z" transform="translate(-1349.209 -249.143)" fill="#141d44"/>
    </g>
    <g id="Group_107" data-name="Group 107" transform="translate(1272.829 157.744)">
      <path id="Path_275" data-name="Path 275" d="M1378.189,237.65a2.079,2.079,0,0,1-.6-1.508,2.107,2.107,0,0,1,.6-1.534,2.052,2.052,0,0,1,1.535-.618,2.077,2.077,0,0,1,1.546.625,2.1,2.1,0,0,1,.611,1.523,2.062,2.062,0,0,1-.611,1.512,2.091,2.091,0,0,1-1.546.618,2.051,2.051,0,0,1-1.535-.618" transform="translate(-1377.585 -233.989)" fill="#141d44"/>
    </g>
    <path id="Path_277" data-name="Path 277" d="M1381.936,262.617H1377.9V249.725h4.038Z" transform="translate(-104.953 -86.151)" fill="#141d44"/>
    <g id="Group_109" data-name="Group 109" transform="translate(1278.649 163.573)">
      <path id="Path_278" data-name="Path 278" d="M1405.278,262.615H1393.3l6.3-9.494h-5.686v-3.4h11.851l-6.191,9.521h5.712Z" transform="translate(-1393.295 -249.723)" fill="#141d44"/>
    </g>
    <g id="Group_110" data-name="Group 110" transform="translate(1306.992 163.227)">
      <path id="Path_279" data-name="Path 279" d="M1469.8,262.029V249.137h4.066v1.871a3.861,3.861,0,0,1,1.62-1.644,5.222,5.222,0,0,1,2.525-.572q4.676,0,4.677,5.268v7.971h-4.093V255.4a4.318,4.318,0,0,0-.519-2.406,1.96,1.96,0,0,0-1.74-.751,2.229,2.229,0,0,0-1.846.777,3.56,3.56,0,0,0-.624,2.274v6.74Z" transform="translate(-1469.799 -248.791)" fill="#141d44"/>
    </g>
    <g id="Group_111" data-name="Group 111" transform="translate(1321.661 163.227)">
      <path id="Path_280" data-name="Path 280" d="M1522.9,256.7h-9.459a2.522,2.522,0,0,0,.851,1.926,3.241,3.241,0,0,0,2.152.669q1.886,0,2.392-1.151h3.986a4.372,4.372,0,0,1-2.059,3.064,7.673,7.673,0,0,1-4.318,1.164,7.168,7.168,0,0,1-5.168-1.793,6.6,6.6,0,0,1-1.872-5,7.365,7.365,0,0,1,.851-3.624,5.705,5.705,0,0,1,2.418-2.353,7.774,7.774,0,0,1,3.641-.815,7.642,7.642,0,0,1,3.495.775,5.7,5.7,0,0,1,2.364,2.167,6.044,6.044,0,0,1,.837,3.182,16.26,16.26,0,0,1-.1,1.793m-3.905-2.541a2.687,2.687,0,0,0-.713-1.953,2.75,2.75,0,0,0-1.992-.668,2.892,2.892,0,0,0-2.061.713,2.572,2.572,0,0,0-.783,1.911Z" transform="translate(-1509.396 -248.788)" fill="#141d44"/>
    </g>
    <g id="Group_112" data-name="Group 112" transform="translate(1211.456 157.697)">
      <path id="Path_281" data-name="Path 281" d="M1230.592,242.68h0a9.346,9.346,0,1,0-18.654,1.167l.024.432,3.889-.268-.026-.423a5.449,5.449,0,1,1,5.76,5.155,5.643,5.643,0,0,1-.815-.013l-.424-.039-.357,3.908.425.039c.28.026.56.038.844.038q.293,0,.6-.017a9.422,9.422,0,0,0,8.74-9.983" transform="translate(-1211.919 -233.863)" fill="#e7e8ec"/>
    </g>
    <g id="Group_113" data-name="Group 113" transform="translate(1211.183 157.552)">
      <path id="Path_282" data-name="Path 282" d="M1220.729,252.7a9.521,9.521,0,0,1-6.185-2.292,9.654,9.654,0,0,1-1.083-13.551,9.5,9.5,0,0,1,13.46-1.09,9.865,9.865,0,0,1,1.047,1.045,2.177,2.177,0,0,1-.218,3.056,2.146,2.146,0,0,1-3.027-.207l-.01-.012a5.47,5.47,0,0,0-.583-.584,5.222,5.222,0,0,0-7.392.6,5.307,5.307,0,0,0,.6,7.443,5.22,5.22,0,0,0,7.392-.6,2.139,2.139,0,0,1,3.014-.262l.02.017a2.176,2.176,0,0,1,.243,3.056,9.512,9.512,0,0,1-7.275,3.383" transform="translate(-1211.183 -233.47)" fill="#141d44"/>
    </g>
    <g id="Group_114" data-name="Group 114" transform="translate(1251.882 112.875)">
      <path id="Path_283" data-name="Path 283" d="M1321.188,131.333a21.542,21.542,0,0,1,12.753-16.771,22.784,22.784,0,0,1,21.016,1.99c4.421,2.889,7.961,7.782,7.669,13.08-.313,5.694-4.653,9.9-9.307,12.513-3.811,2.139-7.682,5.317-11.8,6.775-11.746,4.152-21.808-5.627-20.327-17.588" transform="translate(-1321.043 -112.875)" fill="#141d44"/>
    </g>
    <g id="Group_1156" data-name="Group 1156" transform="translate(1259.602 118.74)">
      <path id="Path_2709" data-name="Path 2709" d="M1383.7,147.75a11.853,11.853,0,0,0-2.451-6.429,2.826,2.826,0,0,1-4.34,3.548,6.305,6.305,0,0,1-4.419,9.974,2.827,2.827,0,0,0,.811,5.534,2.876,2.876,0,0,0,.43-.034c.072-.012.144-.025.216-.039.1-.018.2-.036.3-.056a11.869,11.869,0,0,0,9.487-11.662C1383.724,148.309,1383.714,148.027,1383.7,147.75Z" transform="translate(-1359.879 -136.647)" fill="#f6cdcc"/>
      <path id="Path_2710" data-name="Path 2710" d="M1347.789,134.782a2.827,2.827,0,0,1,1.754,3.287,6.306,6.306,0,0,1,10.865-1.142,2.829,2.829,0,0,0,4.128-3.848,11.916,11.916,0,0,0-11.8-4.092,11.74,11.74,0,0,0-2.7.955l-.067.033c-.072.036-.142.073-.212.109-.1.053-.2.106-.3.162l-.067.038a12.049,12.049,0,0,0-3.342,2.854l-.069.087c-.064.08-.126.162-.188.244-.042.056-.085.112-.126.169-.029.04-.057.082-.086.122a12.116,12.116,0,0,0-1.314,2.4A2.828,2.828,0,0,1,1347.789,134.782Z" transform="translate(-1343.382 -128.705)" fill="#9bccf4"/>
      <path id="Path_2711" data-name="Path 2711" d="M1352.51,160.086a2.826,2.826,0,0,1,1.976-3.168,6.408,6.408,0,0,1-.683.037,6.306,6.306,0,0,1-5.762-8.87,2.826,2.826,0,0,0-5.276-1.913,11.9,11.9,0,0,0-.8,3.081c-.009.077-.019.154-.026.231-.005.057-.01.115-.016.172-.012.144-.022.288-.029.432v.025q-.012.266-.012.532a12.058,12.058,0,0,0,.073,1.329v.011c.023.2.052.4.084.6.007.044.016.087.023.131q.041.232.09.462.026.117.054.235c0,.013.007.025.01.038q.036.147.075.293.045.168.095.335c.021.069.042.136.064.2.046.143.094.286.145.428.01.029.021.057.032.085.063.17.129.339.2.507q.164.387.353.756l.039.077q.088.171.182.337c.027.048.055.1.083.143q.132.227.272.448c.057.089.115.179.174.266q.064.1.131.189c.228.322.47.633.729.933l.024.028c.12.137.245.272.371.4.064.067.129.132.194.2s.125.124.189.185q.119.114.242.225c.046.042.093.082.14.123a11.886,11.886,0,0,0,9.775,2.8,2.876,2.876,0,0,1-.43.034A2.829,2.829,0,0,1,1352.51,160.086Z" transform="translate(-1341.879 -138.722)" fill="#fff"/>
    </g>
    <g id="Group_1157" data-name="Group 1157" transform="translate(1291.66 163.393)">
      <path id="Path_2712" data-name="Path 2712" d="M1435.249,249.237c4.057,0,6.807,2.7,6.807,6.562,0,3.813-2.749,6.507-6.807,6.507-4.086,0-6.835-2.695-6.835-6.507C1428.414,251.933,1431.163,249.237,1435.249,249.237Zm0,9.694a2.921,2.921,0,0,0,2.94-3.159,2.947,2.947,0,1,0-5.882,0A2.921,2.921,0,0,0,1435.249,258.931Z" transform="translate(-1428.414 -249.237)" fill="#141d44"/>
    </g>
  </g>
</svg>
