<svg xmlns="http://www.w3.org/2000/svg" xmlns:xlink="http://www.w3.org/1999/xlink" width="121.096" height="63.235" viewBox="0 0 121.096 63.235">
  <defs>
    <clipPath id="clip-path">
      <rect id="Rectangle_816" data-name="Rectangle 816" width="13.594" height="13.686" fill="none"/>
    </clipPath>
    <clipPath id="clip-path-3">
      <rect id="Rectangle_816-3" data-name="Rectangle 816" width="25.313" height="25.485" fill="none"/>
    </clipPath>
  </defs>
  <g id="Group_1100" data-name="Group 1100" transform="translate(-261 -25.191)">
    <g id="Group_104" data-name="Group 104" transform="translate(281.206 69.247)">
      <path id="Path_272" data-name="Path 272" d="M-56.368-47.023V-39.2h-4.017V-45.71a4.239,4.239,0,0,0-.51-2.362,1.924,1.924,0,0,0-1.708-.737,2.186,2.186,0,0,0-1.812.763,3.494,3.494,0,0,0-.613,2.233V-39.2H-69.02v-18.38h3.992v7.561a3.791,3.791,0,0,1,1.59-1.614,5.128,5.128,0,0,1,2.478-.565q4.59,0,4.592,5.172" transform="translate(69.02 57.578)" fill="#141d44"/>
    </g>
    <g id="Group_105" data-name="Group 105" transform="translate(295.392 74.63)">
      <path id="Path_273" data-name="Path 273" d="M-12.259-55.571a5.56,5.56,0,0,1-2.047-2.376,8.015,8.015,0,0,1-.7-3.427,7.806,7.806,0,0,1,.73-3.414,5.669,5.669,0,0,1,2.1-2.389,5.755,5.755,0,0,1,3.144-.866,4.815,4.815,0,0,1,2.374.578A3.784,3.784,0,0,1-5.1-65.891V-67.7h3.964v12.656H-5.1v-1.785A3.906,3.906,0,0,1-6.7-55.3a4.9,4.9,0,0,1-2.387.591,5.733,5.733,0,0,1-3.17-.866m6.536-3.414a3.625,3.625,0,0,0,.781-2.389,3.584,3.584,0,0,0-.781-2.363,2.722,2.722,0,0,0-2.218-.946,2.782,2.782,0,0,0-2.179.92,3.454,3.454,0,0,0-.82,2.389,3.5,3.5,0,0,0,.82,2.4,2.762,2.762,0,0,0,2.179.933,2.722,2.722,0,0,0,2.218-.945" transform="translate(15.011 68.044)" fill="#141d44"/>
    </g>
    <g id="Group_106" data-name="Group 106" transform="translate(311.199 74.761)">
      <path id="Path_274" data-name="Path 274" d="M0-57.322V-69.979H3.992v2.652a3.558,3.558,0,0,1,1.29-2.114,3.505,3.505,0,0,1,2.179-.748,4.364,4.364,0,0,1,1.044.105v3.728a11.185,11.185,0,0,0-1.2-.078,2.959,2.959,0,0,0-2.478,1.062,5.058,5.058,0,0,0-.835,3.165v4.884Z" transform="translate(0 70.189)" fill="#141d44"/>
    </g>
    <g id="Group_107" data-name="Group 107" transform="translate(321.52 69.247)">
      <path id="Path_275" data-name="Path 275" d="M-2.636-16.02A2.04,2.04,0,0,1-3.228-17.5a2.068,2.068,0,0,1,.592-1.506,2.013,2.013,0,0,1,1.507-.607A2.037,2.037,0,0,1,.388-19a2.062,2.062,0,0,1,.6,1.495,2.025,2.025,0,0,1-.6,1.484,2.052,2.052,0,0,1-1.518.607,2.013,2.013,0,0,1-1.507-.607" transform="translate(3.228 19.616)" fill="#141d44"/>
    </g>
    <path id="Path_276" data-name="Path 276" d="M0-281.721H121.1v-63.235H0Z" transform="translate(261 370.147)" fill="none"/>
    <path id="Path_277" data-name="Path 277" d="M334.727-60.739h-3.964V-73.395h3.964Z" transform="translate(-9.13 148.367)" fill="#141d44"/>
    <g id="Group_109" data-name="Group 109" transform="translate(327.232 74.971)">
      <path id="Path_278" data-name="Path 278" d="M-52.413-56.385H-64.177l6.182-9.321h-5.582v-3.335h11.634l-6.078,9.347h5.608Z" transform="translate(64.177 69.041)" fill="#141d44"/>
    </g>
    <g id="Group_110" data-name="Group 110" transform="translate(354.692 74.63)">
      <path id="Path_279" data-name="Path 279" d="M0-57.906V-70.562H3.992v1.837a3.792,3.792,0,0,1,1.59-1.614A5.13,5.13,0,0,1,8.061-70.9q4.59,0,4.592,5.172v7.825H8.635v-6.513a4.24,4.24,0,0,0-.51-2.362,1.924,1.924,0,0,0-1.708-.737,2.187,2.187,0,0,0-1.812.763,3.494,3.494,0,0,0-.613,2.232v6.616Z" transform="translate(0 70.904)" fill="#141d44"/>
    </g>
    <g id="Group_111" data-name="Group 111" transform="translate(368.741 74.63)">
      <path id="Path_280" data-name="Path 280" d="M-59.032-34.626h-9.286a2.476,2.476,0,0,0,.835,1.891,3.181,3.181,0,0,0,2.113.657q1.852,0,2.348-1.13h3.913A4.293,4.293,0,0,1-61.13-30.2a7.536,7.536,0,0,1-4.239,1.143,7.038,7.038,0,0,1-5.074-1.76,6.473,6.473,0,0,1-1.838-4.91,7.226,7.226,0,0,1,.835-3.558,5.6,5.6,0,0,1,2.374-2.31,7.633,7.633,0,0,1,3.574-.8,7.5,7.5,0,0,1,3.431.761,5.592,5.592,0,0,1,2.321,2.127,5.934,5.934,0,0,1,.822,3.124,16.075,16.075,0,0,1-.1,1.76m-3.834-2.495a2.635,2.635,0,0,0-.7-1.917,2.7,2.7,0,0,0-1.956-.656,2.839,2.839,0,0,0-2.023.7,2.524,2.524,0,0,0-.769,1.876Z" transform="translate(72.282 42.398)" fill="#141d44"/>
    </g>
    <g id="Group_112" data-name="Group 112" transform="translate(261.27 69.204)">
      <path id="Path_281" data-name="Path 281" d="M-81.659-38.558v0A9.243,9.243,0,0,0-91.391-47.2a9.238,9.238,0,0,0-8.581,9.788l.024.424,3.818-.263-.025-.415a5.392,5.392,0,0,1,5.024-5.691A5.38,5.38,0,0,1-85.476-38.3,5.393,5.393,0,0,1-90.5-32.605a5.488,5.488,0,0,1-.8-.013l-.416-.038-.35,3.836.417.038c.275.025.55.037.829.037.192,0,.387-.006.586-.017a9.25,9.25,0,0,0,8.58-9.8" transform="translate(99.988 47.213)" fill="#e7e8ec"/>
    </g>
    <g id="Group_113" data-name="Group 113" transform="translate(261 69.059)">
      <path id="Path_282" data-name="Path 282" d="M-41.756-84.086a9.347,9.347,0,0,1-6.072-2.25,9.453,9.453,0,0,1-3.3-7.19,9.478,9.478,0,0,1,2.237-6.113,9.339,9.339,0,0,1,7.142-3.321,9.338,9.338,0,0,1,6.072,2.251,9.664,9.664,0,0,1,1.028,1.026,2.137,2.137,0,0,1-.214,3,2.106,2.106,0,0,1-2.981-.215,5.353,5.353,0,0,0-.573-.573,5.126,5.126,0,0,0-3.332-1.235,5.134,5.134,0,0,0-3.925,1.823A5.2,5.2,0,0,0-46.9-93.527a5.2,5.2,0,0,0,1.812,3.951,5.134,5.134,0,0,0,3.333,1.235,5.134,5.134,0,0,0,3.924-1.824,2.1,2.1,0,0,1,2.978-.241,2.136,2.136,0,0,1,.239,3,9.339,9.339,0,0,1-7.142,3.321" transform="translate(51.128 102.96)" fill="#141d44"/>
    </g>
    <g id="Group_114" data-name="Group 114" transform="translate(300.956 25.191)">
      <path id="Path_283" data-name="Path 283" d="M-.636-80.768a21.148,21.148,0,0,1,12.52-16.464,22.368,22.368,0,0,1,20.632,1.954c4.34,2.836,7.815,7.64,7.529,12.841-.307,5.59-4.568,9.717-9.137,12.284-3.741,2.1-7.541,5.22-11.589,6.651C7.788-59.426-2.09-69.026-.636-80.768" transform="translate(0.778 98.898)" fill="#141d44"/>
    </g>
    <path id="Path_287" data-name="Path 287" d="M0-281.721H121.1v-63.235H0Z" transform="translate(261 370.147)" fill="none"/>
    <g id="Group_1083" data-name="Group 1083" transform="translate(339.557 74.739)">
      <g id="Group_1081" data-name="Group 1081" clip-path="url(#clip-path)">
        <path id="Path_2670" data-name="Path 2670" d="M140.717,70.323h0" transform="translate(-133.993 -66.962)" fill="#9bccf4"/>
        <path id="Path_2671" data-name="Path 2671" d="M148.785,4.05c.022.05.043.1.065.151a1.707,1.707,0,0,0-.082-.22c-.053-.115-.109-.23-.169-.345l-.029-.055A6.767,6.767,0,0,0,142.618,0a6.824,6.824,0,0,1,6.167,4.05" transform="translate(-135.803)" fill="#9bccf4"/>
        <path id="Path_2672" data-name="Path 2672" d="M139.557,70.34h0" transform="translate(-132.833 -66.979)" fill="#f6cdcc"/>
        <path id="Path_2673" data-name="Path 2673" d="M6.071,31.315A6.61,6.61,0,0,1,8.049,26.3a5.867,5.867,0,0,1,.638-.543" transform="translate(-5.781 -24.526)" fill="#9bccf4"/>
        <path id="Path_2674" data-name="Path 2674" d="M6.8,1.23a1.663,1.663,0,0,1,2.317.4l.008.012A1.688,1.688,0,0,1,8.8,3.92q.126-.082.261-.155l.028-.015a3.431,3.431,0,0,1,1.366-.384l.108-.006h.15a3.443,3.443,0,0,1,3.024,1.85q.046.087.086.175l.006.013a1.663,1.663,0,0,0,2.207.812A1.689,1.689,0,0,0,16.944,4.2c-.021-.051-.042-.1-.065-.151A6.824,6.824,0,0,0,10.713,0a6.728,6.728,0,0,0-2.8.6c-.136.061-.271.127-.4.2C4.568,2.371,3.615,5.734,4.31,8.936" transform="translate(-3.898 0.001)" fill="#9bccf4"/>
        <path id="Path_2675" data-name="Path 2675" d="M11.44,28.1l-.008-.009a1.663,1.663,0,0,0-2.348-.141A3.444,3.444,0,0,1,4.2,27.64a3.5,3.5,0,0,1,.312-4.917,3.394,3.394,0,0,1,.3-.241c.03-.021.058-.043.086-.065a1.688,1.688,0,0,0,.327-2.275l-.008-.012a1.663,1.663,0,0,0-2.317-.4A6.873,6.873,0,0,0,1.695,29.861,6.784,6.784,0,0,0,6.8,32.183a6.917,6.917,0,0,0,4.49-1.707,1.674,1.674,0,0,0,.15-2.371" transform="translate(0 -18.496)" fill="#141d44"/>
        <path id="Path_2676" data-name="Path 2676" d="M139.289,89.147c.019.045.039.089.058.136a3.462,3.462,0,0,1-1.782,4.463c-.043.019-.087.038-.135.057a3.446,3.446,0,0,1-.366.123,1.68,1.68,0,0,0,.9,3.238,6.742,6.742,0,0,0,.716-.241q.132-.053.263-.112h0a6.758,6.758,0,0,0,3.741-4.319,6.85,6.85,0,0,0-.236-4.449c-.015-.038-.032-.075-.048-.113a1.689,1.689,0,0,1-.908,2.008,1.663,1.663,0,0,1-2.207-.812l-.006-.013c-.027-.059-.056-.117-.086-.175" transform="translate(-129.352 -83.728)" fill="#f6cdcc"/>
      </g>
    </g>
    <g id="Group_1084" data-name="Group 1084" transform="translate(339.557 74.739)">
      <g id="Group_1081-2" data-name="Group 1081" clip-path="url(#clip-path)">
        <path id="Path_2670-2" data-name="Path 2670" d="M140.717,70.323h0" transform="translate(-133.993 -66.962)" fill="#9bccf4"/>
        <path id="Path_2671-2" data-name="Path 2671" d="M148.785,4.05c.022.05.043.1.065.151a1.707,1.707,0,0,0-.082-.22c-.053-.115-.109-.23-.169-.345l-.029-.055A6.767,6.767,0,0,0,142.618,0a6.824,6.824,0,0,1,6.167,4.05" transform="translate(-135.803)" fill="#9bccf4"/>
        <path id="Path_2672-2" data-name="Path 2672" d="M139.557,70.34h0" transform="translate(-132.833 -66.979)" fill="#f6cdcc"/>
        <path id="Path_2673-2" data-name="Path 2673" d="M6.071,31.315A6.61,6.61,0,0,1,8.049,26.3a5.867,5.867,0,0,1,.638-.543" transform="translate(-5.781 -24.526)" fill="#9bccf4"/>
        <path id="Path_2674-2" data-name="Path 2674" d="M6.8,1.23a1.663,1.663,0,0,1,2.317.4l.008.012A1.688,1.688,0,0,1,8.8,3.92q.126-.082.261-.155l.028-.015a3.431,3.431,0,0,1,1.366-.384l.108-.006h.15a3.443,3.443,0,0,1,3.024,1.85q.046.087.086.175l.006.013a1.663,1.663,0,0,0,2.207.812A1.689,1.689,0,0,0,16.944,4.2c-.021-.051-.042-.1-.065-.151A6.824,6.824,0,0,0,10.713,0a6.728,6.728,0,0,0-2.8.6c-.136.061-.271.127-.4.2C4.568,2.371,3.615,5.734,4.31,8.936" transform="translate(-3.898 0.001)" fill="#9bccf4"/>
        <path id="Path_2675-2" data-name="Path 2675" d="M11.44,28.1l-.008-.009a1.663,1.663,0,0,0-2.348-.141A3.444,3.444,0,0,1,4.2,27.64a3.5,3.5,0,0,1,.312-4.917,3.394,3.394,0,0,1,.3-.241c.03-.021.058-.043.086-.065a1.688,1.688,0,0,0,.327-2.275l-.008-.012a1.663,1.663,0,0,0-2.317-.4A6.873,6.873,0,0,0,1.695,29.861,6.784,6.784,0,0,0,6.8,32.183a6.917,6.917,0,0,0,4.49-1.707,1.674,1.674,0,0,0,.15-2.371" transform="translate(0 -18.496)" fill="#141d44"/>
        <path id="Path_2676-2" data-name="Path 2676" d="M139.289,89.147c.019.045.039.089.058.136a3.462,3.462,0,0,1-1.782,4.463c-.043.019-.087.038-.135.057a3.446,3.446,0,0,1-.366.123,1.68,1.68,0,0,0,.9,3.238,6.742,6.742,0,0,0,.716-.241q.132-.053.263-.112h0a6.758,6.758,0,0,0,3.741-4.319,6.85,6.85,0,0,0-.236-4.449c-.015-.038-.032-.075-.048-.113a1.689,1.689,0,0,1-.908,2.008,1.663,1.663,0,0,1-2.207-.812l-.006-.013c-.027-.059-.056-.117-.086-.175" transform="translate(-129.352 -83.728)" fill="#f6cdcc"/>
      </g>
    </g>
    <g id="Group_1085" data-name="Group 1085" transform="translate(307.048 30.156)">
      <g id="Group_1081-3" data-name="Group 1081" clip-path="url(#clip-path-3)">
        <path id="Path_2670-3" data-name="Path 2670" d="M140.717,70.324h.171c-.057,0-.114,0-.171,0" transform="translate(-128.196 -64.065)" fill="#9bccf4"/>
        <path id="Path_2671-3" data-name="Path 2671" d="M154.1,7.542c.041.092.08.188.12.282a3.178,3.178,0,0,0-.152-.41c-.1-.215-.2-.428-.314-.642l-.054-.1A12.6,12.6,0,0,0,142.618,0,12.708,12.708,0,0,1,154.1,7.542" transform="translate(-129.928)" fill="#9bccf4"/>
        <path id="Path_2672-3" data-name="Path 2672" d="M139.607,70.34l-.108,0,.108,0" transform="translate(-127.086 -64.081)" fill="#f6cdcc"/>
        <path id="Path_2673-3" data-name="Path 2673" d="M6.071,36.107a12.308,12.308,0,0,1,3.684-9.338,10.924,10.924,0,0,1,1.188-1.011" transform="translate(-5.531 -23.465)" fill="#9bccf4"/>
        <path id="Path_2674-3" data-name="Path 2674" d="M9.141,2.291a3.1,3.1,0,0,1,4.314.753l.015.021A3.142,3.142,0,0,1,12.861,7.3q.235-.153.486-.288l.051-.027a6.389,6.389,0,0,1,2.543-.716c.067,0,.134-.008.2-.01l.108,0c.057,0,.114,0,.171,0A6.411,6.411,0,0,1,22.052,9.7q.085.162.159.326l.011.023a3.1,3.1,0,0,0,4.11,1.512,3.144,3.144,0,0,0,1.691-3.739c-.04-.094-.079-.19-.12-.282A12.708,12.708,0,0,0,16.419,0,12.528,12.528,0,0,0,11.2,1.117c-.253.114-.5.237-.752.369C4.977,4.415,3.2,10.678,4.5,16.64" transform="translate(-3.729 0.001)" fill="#9bccf4"/>
        <path id="Path_2675-3" data-name="Path 2675" d="M21.3,35.588l-.015-.018a3.1,3.1,0,0,0-4.371-.263,6.412,6.412,0,0,1-9.093-.584A6.516,6.516,0,0,1,8.4,25.568a6.319,6.319,0,0,1,.568-.448c.055-.039.108-.08.16-.121a3.142,3.142,0,0,0,.609-4.236l-.015-.021a3.1,3.1,0,0,0-4.314-.753A12.8,12.8,0,0,0,3.156,38.857a12.633,12.633,0,0,0,9.507,4.325A12.88,12.88,0,0,0,21.024,40a3.116,3.116,0,0,0,.279-4.416" transform="translate(0 -17.696)" fill="#fff"/>
        <path id="Path_2676-3" data-name="Path 2676" d="M142.259,90.2c.035.084.073.166.108.253a6.447,6.447,0,0,1-3.318,8.31c-.08.036-.163.071-.251.106a6.422,6.422,0,0,1-.681.229,3.129,3.129,0,0,0,1.676,6.029,12.556,12.556,0,0,0,1.332-.449q.247-.1.489-.208h0a12.584,12.584,0,0,0,6.966-8.043,12.755,12.755,0,0,0-.44-8.284c-.029-.071-.06-.14-.089-.21a3.144,3.144,0,0,1-1.691,3.739,3.1,3.1,0,0,1-4.11-1.512l-.011-.023c-.05-.109-.1-.218-.159-.326" transform="translate(-123.756 -80.106)" fill="#f6cdcc"/>
      </g>
    </g>
  </g>
</svg>
