<svg xmlns="http://www.w3.org/2000/svg" xmlns:xlink="http://www.w3.org/1999/xlink" width="121.096" height="63.235" viewBox="0 0 121.096 63.235">
  <defs>
    <clipPath id="clip-path">
      <path id="Path_276" data-name="Path 276" d="M0-281.721H121.1v-63.235H0Z" transform="translate(0 344.956)" fill="none"/>
    </clipPath>
  </defs>
  <g id="Group_101" data-name="Group 101" transform="translate(0 344.956)">
    <g id="Group_108" data-name="Group 108" transform="translate(0 -344.956)" clip-path="url(#clip-path)">
      <g id="Group_101-2" data-name="Group 101" transform="translate(82.907 49.548)">
        <path id="Path_269" data-name="Path 269" d="M-10.922-60.975q-.134,0-.271,0a7.19,7.19,0,0,1-.757-.072,1.68,1.68,0,0,1-1.4-1.911,1.677,1.677,0,0,1,1.9-1.415,3.639,3.639,0,0,0,.393.038l.143,0a3.46,3.46,0,0,0,3.454-3.34l0-.147A3.462,3.462,0,0,0-10.783-71.3a1.676,1.676,0,0,1-1.6-1.748,1.66,1.66,0,0,1,1.736-1.61,6.8,6.8,0,0,1,6.518,6.836q0,.136,0,.273a6.8,6.8,0,0,1-6.789,6.576" transform="translate(13.374 74.662)" fill="#f6cdcc"/>
      </g>
      <g id="Group_102" data-name="Group 102" transform="translate(78.557 49.544)">
        <path id="Path_270" data-name="Path 270" d="M-10.833-50.034a1.666,1.666,0,0,1-1.423-.8,6.866,6.866,0,0,1-1.009-3.583,6.869,6.869,0,0,1,2.319-5.153,6.771,6.771,0,0,1,4.48-1.7A6.783,6.783,0,0,1-1.348-58.93c.086.1.168.2.247.3a1.688,1.688,0,0,1-.3,2.358,1.663,1.663,0,0,1-2.342-.3c-.038-.05-.078-.1-.119-.145A3.451,3.451,0,0,0-6.465-57.9a3.442,3.442,0,0,0-2.278.863,3.5,3.5,0,0,0-1.181,2.623,3.5,3.5,0,0,0,.511,1.82,1.686,1.686,0,0,1-.545,2.313,1.65,1.65,0,0,1-.875.25" transform="translate(13.264 61.265)" fill="#9bccf4"/>
      </g>
      <g id="Group_103" data-name="Group 103" transform="translate(78.556 50.473)">
        <path id="Path_271" data-name="Path 271" d="M-30.306-56.855a6.781,6.781,0,0,1-5.107-2.324,6.865,6.865,0,0,1-1.7-4.52A6.864,6.864,0,0,1-34.8-68.84a7.163,7.163,0,0,1,.592-.469,1.663,1.663,0,0,1,2.327.405,1.688,1.688,0,0,1-.4,2.342,3.68,3.68,0,0,0-.313.248A3.494,3.494,0,0,0-33.768-63.7a3.493,3.493,0,0,0,.863,2.3,3.451,3.451,0,0,0,2.6,1.183,3.444,3.444,0,0,0,2.286-.869,1.664,1.664,0,0,1,2.357.152,1.689,1.689,0,0,1-.151,2.373,6.772,6.772,0,0,1-4.492,1.706" transform="translate(37.108 69.617)" fill="#141d44"/>
      </g>
      <g id="Group_104" data-name="Group 104" transform="translate(20.206 44.056)">
        <path id="Path_272" data-name="Path 272" d="M-56.368-47.023V-39.2h-4.017V-45.71a4.239,4.239,0,0,0-.51-2.362,1.924,1.924,0,0,0-1.708-.737,2.186,2.186,0,0,0-1.812.763,3.494,3.494,0,0,0-.613,2.233V-39.2H-69.02v-18.38h3.992v7.561a3.791,3.791,0,0,1,1.59-1.614,5.128,5.128,0,0,1,2.478-.565q4.59,0,4.592,5.172" transform="translate(69.02 57.578)" fill="#141d44"/>
      </g>
      <g id="Group_105" data-name="Group 105" transform="translate(34.391 49.439)">
        <path id="Path_273" data-name="Path 273" d="M-12.259-55.571a5.56,5.56,0,0,1-2.047-2.376,8.015,8.015,0,0,1-.7-3.427,7.806,7.806,0,0,1,.73-3.414,5.669,5.669,0,0,1,2.1-2.389,5.755,5.755,0,0,1,3.144-.866,4.815,4.815,0,0,1,2.374.578A3.784,3.784,0,0,1-5.1-65.891V-67.7h3.964v12.656H-5.1v-1.785A3.906,3.906,0,0,1-6.7-55.3a4.9,4.9,0,0,1-2.387.591,5.733,5.733,0,0,1-3.17-.866m6.536-3.414a3.625,3.625,0,0,0,.781-2.389,3.584,3.584,0,0,0-.781-2.363,2.722,2.722,0,0,0-2.218-.946,2.782,2.782,0,0,0-2.179.92,3.454,3.454,0,0,0-.82,2.389,3.5,3.5,0,0,0,.82,2.4,2.762,2.762,0,0,0,2.179.933,2.722,2.722,0,0,0,2.218-.945" transform="translate(15.011 68.044)" fill="#141d44"/>
      </g>
      <g id="Group_106" data-name="Group 106" transform="translate(50.199 49.57)">
        <path id="Path_274" data-name="Path 274" d="M0-57.322V-69.979H3.992v2.652a3.558,3.558,0,0,1,1.29-2.114,3.505,3.505,0,0,1,2.179-.748,4.364,4.364,0,0,1,1.044.105v3.728a11.185,11.185,0,0,0-1.2-.078,2.959,2.959,0,0,0-2.478,1.062,5.058,5.058,0,0,0-.835,3.165v4.884Z" transform="translate(0 70.189)" fill="#141d44"/>
      </g>
      <g id="Group_107" data-name="Group 107" transform="translate(60.52 44.056)">
        <path id="Path_275" data-name="Path 275" d="M-2.636-16.02A2.04,2.04,0,0,1-3.228-17.5a2.068,2.068,0,0,1,.592-1.506,2.013,2.013,0,0,1,1.507-.607A2.037,2.037,0,0,1,.388-19a2.062,2.062,0,0,1,.6,1.495,2.025,2.025,0,0,1-.6,1.484,2.052,2.052,0,0,1-1.518.607,2.013,2.013,0,0,1-1.507-.607" transform="translate(3.228 19.616)" fill="#141d44"/>
      </g>
    </g>
    <path id="Path_277" data-name="Path 277" d="M334.727-60.739h-3.964V-73.395h3.964Z" transform="translate(-270.13 -221.78)" fill="#141d44"/>
    <g id="Group_109" data-name="Group 109" transform="translate(66.233 -295.175)">
      <path id="Path_278" data-name="Path 278" d="M-52.413-56.385H-64.177l6.182-9.321h-5.582v-3.335h11.634l-6.078,9.347h5.608Z" transform="translate(64.177 69.041)" fill="#141d44"/>
    </g>
    <g id="Group_118" data-name="Group 118" transform="translate(0 -344.956)" clip-path="url(#clip-path)">
      <g id="Group_110" data-name="Group 110" transform="translate(93.693 49.439)">
        <path id="Path_279" data-name="Path 279" d="M0-57.906V-70.562H3.992v1.837a3.792,3.792,0,0,1,1.59-1.614A5.13,5.13,0,0,1,8.061-70.9q4.59,0,4.592,5.172v7.825H8.635v-6.513a4.24,4.24,0,0,0-.51-2.362,1.924,1.924,0,0,0-1.708-.737,2.187,2.187,0,0,0-1.812.763,3.494,3.494,0,0,0-.613,2.232v6.616Z" transform="translate(0 70.904)" fill="#141d44"/>
      </g>
      <g id="Group_111" data-name="Group 111" transform="translate(107.741 49.439)">
        <path id="Path_280" data-name="Path 280" d="M-59.032-34.626h-9.286a2.476,2.476,0,0,0,.835,1.891,3.181,3.181,0,0,0,2.113.657q1.852,0,2.348-1.13h3.913A4.293,4.293,0,0,1-61.13-30.2a7.536,7.536,0,0,1-4.239,1.143,7.038,7.038,0,0,1-5.074-1.76,6.473,6.473,0,0,1-1.838-4.91,7.226,7.226,0,0,1,.835-3.558,5.6,5.6,0,0,1,2.374-2.31,7.633,7.633,0,0,1,3.574-.8,7.5,7.5,0,0,1,3.431.761,5.592,5.592,0,0,1,2.321,2.127,5.934,5.934,0,0,1,.822,3.124,16.075,16.075,0,0,1-.1,1.76m-3.834-2.495a2.635,2.635,0,0,0-.7-1.917,2.7,2.7,0,0,0-1.956-.656,2.839,2.839,0,0,0-2.023.7,2.524,2.524,0,0,0-.769,1.876Z" transform="translate(72.282 42.398)" fill="#141d44"/>
      </g>
      <g id="Group_112" data-name="Group 112" transform="translate(0.27 44.013)">
        <path id="Path_281" data-name="Path 281" d="M-81.659-38.558v0A9.243,9.243,0,0,0-91.391-47.2a9.238,9.238,0,0,0-8.581,9.788l.024.424,3.818-.263-.025-.415a5.392,5.392,0,0,1,5.024-5.691A5.38,5.38,0,0,1-85.476-38.3,5.393,5.393,0,0,1-90.5-32.605a5.488,5.488,0,0,1-.8-.013l-.416-.038-.35,3.836.417.038c.275.025.55.037.829.037.192,0,.387-.006.586-.017a9.25,9.25,0,0,0,8.58-9.8" transform="translate(99.988 47.213)" fill="#e7e8ec"/>
      </g>
      <g id="Group_113" data-name="Group 113" transform="translate(0 43.869)">
        <path id="Path_282" data-name="Path 282" d="M-41.756-84.086a9.347,9.347,0,0,1-6.072-2.25,9.453,9.453,0,0,1-3.3-7.19,9.478,9.478,0,0,1,2.237-6.113,9.339,9.339,0,0,1,7.142-3.321,9.338,9.338,0,0,1,6.072,2.251,9.664,9.664,0,0,1,1.028,1.026,2.137,2.137,0,0,1-.214,3,2.106,2.106,0,0,1-2.981-.215,5.353,5.353,0,0,0-.573-.573,5.126,5.126,0,0,0-3.332-1.235,5.134,5.134,0,0,0-3.925,1.823A5.2,5.2,0,0,0-46.9-93.527a5.2,5.2,0,0,0,1.812,3.951,5.134,5.134,0,0,0,3.333,1.235,5.134,5.134,0,0,0,3.924-1.824,2.1,2.1,0,0,1,2.978-.241,2.136,2.136,0,0,1,.239,3,9.339,9.339,0,0,1-7.142,3.321" transform="translate(51.128 102.96)" fill="#141d44"/>
      </g>
      <g id="Group_114" data-name="Group 114" transform="translate(39.956 0)">
        <path id="Path_283" data-name="Path 283" d="M-.636-80.768a21.148,21.148,0,0,1,12.52-16.464,22.368,22.368,0,0,1,20.632,1.954c4.34,2.836,7.815,7.64,7.529,12.841-.307,5.59-4.568,9.717-9.137,12.284-3.741,2.1-7.541,5.22-11.589,6.651C7.788-59.426-2.09-69.026-.636-80.768" transform="translate(0.778 98.898)" fill="#141d44"/>
      </g>
      <g id="Group_115" data-name="Group 115" transform="translate(54.657 4.97)">
        <path id="Path_284" data-name="Path 284" d="M-19.983-111.452q-.261,0-.522-.01a12.326,12.326,0,0,1-1.374-.134,3.069,3.069,0,0,1-2.554-3.5,3.058,3.058,0,0,1,3.48-2.571,6.291,6.291,0,0,0,.7.069c.093,0,.181.006.267.006a6.327,6.327,0,0,0,6.316-6.107c0-.093.005-.181.005-.27a6.331,6.331,0,0,0-6.066-6.355,3.064,3.064,0,0,1-2.924-3.2,3.074,3.074,0,0,1,3.175-2.943A12.441,12.441,0,0,1-7.558-123.973q0,.26-.01.525a12.433,12.433,0,0,1-12.415,12" transform="translate(24.469 136.469)" fill="#f6cdcc"/>
      </g>
      <g id="Group_116" data-name="Group 116" transform="translate(46.706 4.961)">
        <path id="Path_285" data-name="Path 285" d="M-19.792-91.466a3.047,3.047,0,0,1-2.6-1.46,12.547,12.547,0,0,1-1.841-6.553,12.554,12.554,0,0,1,4.24-9.417,12.377,12.377,0,0,1,8.188-3.1,12.4,12.4,0,0,1,9.355,4.268c.155.179.3.359.445.542a3.087,3.087,0,0,1-.528,4.313,3.04,3.04,0,0,1-4.285-.532q-.108-.14-.226-.276a6.309,6.309,0,0,0-4.761-2.171,6.3,6.3,0,0,0-4.165,1.578,6.39,6.39,0,0,0-2.159,4.795,6.364,6.364,0,0,0,.934,3.328,3.086,3.086,0,0,1-1,4.228,3.028,3.028,0,0,1-1.6.457" transform="translate(24.235 111.997)" fill="#9bccf4"/>
      </g>
      <g id="Group_117" data-name="Group 117" transform="translate(46.706 6.66)">
        <path id="Path_286" data-name="Path 286" d="M-55.4-103.924a12.4,12.4,0,0,1-9.335-4.246,12.551,12.551,0,0,1-3.1-8.263,12.558,12.558,0,0,1,4.217-9.4,12.641,12.641,0,0,1,1.1-.867,3.041,3.041,0,0,1,4.25.76,3.086,3.086,0,0,1-.755,4.278,6.2,6.2,0,0,0-.557.44,6.4,6.4,0,0,0-2.148,4.786,6.386,6.386,0,0,0,1.577,4.2,6.315,6.315,0,0,0,4.753,2.161,6.293,6.293,0,0,0,4.175-1.588,3.041,3.041,0,0,1,4.308.276,3.086,3.086,0,0,1-.274,4.336,12.368,12.368,0,0,1-8.209,3.12" transform="translate(67.831 127.25)" fill="#fff"/>
      </g>
    </g>
  </g>
</svg>
