<svg id="Group_1415" data-name="Group 1415" xmlns="http://www.w3.org/2000/svg" xmlns:xlink="http://www.w3.org/1999/xlink" width="37.768" height="51.745" viewBox="0 0 37.768 51.745">
  <defs>
    <clipPath id="clip-path">
      <rect id="Rectangle_1120" data-name="Rectangle 1120" width="37.768" height="51.745" fill="none"/>
    </clipPath>
  </defs>
  <g id="Group_1411" data-name="Group 1411" clip-path="url(#clip-path)">
    <path id="Path_158" data-name="Path 158" d="M35.284,60.991H2.906A2.156,2.156,0,0,1,.75,58.835V34.785H37.44v24.05A2.156,2.156,0,0,1,35.284,60.991Z" transform="translate(-0.211 -9.786)" fill="none" stroke="#333" stroke-miterlimit="10" stroke-width="1.5"/>
    <path id="Path_159" data-name="Path 159" d="M4.4,25.21V16.475a15.724,15.724,0,1,1,31.448,0V25.21" transform="translate(-1.237 -0.211)" fill="none" stroke="#333" stroke-miterlimit="10" stroke-width="1.5"/>
    <path id="Path_160" data-name="Path 160" d="M32.655,27.262V18.527a10.483,10.483,0,0,0-20.966,0v8.735" transform="translate(-3.288 -2.263)" fill="none" stroke="#333" stroke-miterlimit="10" stroke-width="1.5"/>
    <path id="Path_161" data-name="Path 161" d="M28.4,48a3.494,3.494,0,1,0-5.588,2.781l-1.4,7.7H28.4l-1.4-7.7A3.477,3.477,0,0,0,28.4,48Z" transform="translate(-6.024 -12.521)" fill="none" stroke="#333" stroke-miterlimit="10" stroke-width="1.5"/>
  </g>
</svg>
