<svg width="375" height="366" viewBox="0 0 375 366" fill="none" xmlns="http://www.w3.org/2000/svg">
    <path
        d="M70.9637 104.251C76.843 62.3012 104.126 26.4186 142.98 9.53384C182.001 -6.38843 226.337 -2.18294 261.675 20.7694C286.636 37.0892 306.639 64.7282 304.986 94.6479C303.228 126.806 278.707 150.554 252.428 165.325C230.898 177.398 209.055 195.349 185.767 203.593C119.421 227.047 62.5946 171.811 70.9637 104.272"
        fill="#141D44" />
    <path
        d="M248.243 95.8382C247.302 82.1965 242.259 69.7056 234.413 59.5371C238.598 66.2533 237.259 75.1874 230.982 80.3344C224.684 85.5023 215.645 85.0211 209.892 79.5812C214.16 85.4605 216.692 92.6789 216.692 100.504C216.692 118.874 202.799 133.98 184.931 135.905C177.336 138.186 172.44 145.781 173.779 153.794C175.076 161.62 181.834 167.164 189.513 167.164C190.308 167.164 191.124 167.101 191.94 166.976C192.338 166.913 192.756 166.829 193.153 166.767C193.718 166.662 194.262 166.557 194.827 166.453C226.044 160.008 248.411 132.725 248.411 100.588C248.411 99.0185 248.348 97.4283 248.243 95.8591V95.8382Z"
        fill="#F6CDCC" />
    <path
        d="M138.606 67.4457C146.201 70.3121 150.302 78.3255 148.503 86.0042C154.047 73.5551 166.538 64.8722 181.038 64.8722C192.88 64.8722 203.383 70.6678 209.848 79.56C215.602 84.9999 224.641 85.4602 230.938 80.3132C237.215 75.1662 238.554 66.2322 234.37 59.5159C234.014 58.9301 233.616 58.3652 233.177 57.8212C220.31 42.1291 201.333 33.1113 181.079 33.1113C176.204 33.1113 171.308 33.6553 166.517 34.7015C161.14 35.8941 156.056 37.7143 151.264 40.0995C151.139 40.1623 151.013 40.2251 150.888 40.2879C150.49 40.4971 150.093 40.7063 149.695 40.9155C149.13 41.2085 148.565 41.5223 148.021 41.8361C147.896 41.8989 147.77 41.9826 147.645 42.0454C140.384 46.2299 133.982 51.7326 128.772 58.1559C128.647 58.3233 128.5 58.4907 128.375 58.6372C128.019 59.0975 127.663 59.5578 127.308 60.0181C127.078 60.3319 126.827 60.6458 126.596 60.9805C126.429 61.2107 126.262 61.4408 126.115 61.671C123.144 65.8765 120.654 70.4167 118.688 75.208C122.307 67.9897 130.865 64.5374 138.585 67.4457H138.606Z"
        fill="#9BCCF4" />
    <path
        d="M173.777 153.795C172.438 145.781 177.355 138.186 184.929 135.906C183.653 136.052 182.377 136.115 181.059 136.115C161.391 136.115 145.448 120.172 145.448 100.504C145.448 95.3574 146.557 90.4614 148.524 86.0258C150.323 78.3471 146.201 70.3128 138.627 67.4672C130.907 64.559 122.349 68.0112 118.73 75.2296C116.47 80.7532 114.943 86.6116 114.21 92.6374C114.168 93.0768 114.106 93.5162 114.064 93.9346C114.022 94.2485 114.001 94.5832 113.98 94.918C113.917 95.734 113.855 96.55 113.813 97.366C113.813 97.4078 113.813 97.4706 113.813 97.5124C113.771 98.5167 113.75 99.521 113.75 100.525C113.75 103.057 113.896 105.547 114.168 108.037C114.168 108.058 114.168 108.078 114.168 108.099C114.294 109.25 114.461 110.38 114.65 111.51C114.691 111.761 114.733 112.012 114.775 112.242C114.922 113.121 115.089 113.979 115.277 114.857C115.382 115.297 115.487 115.736 115.591 116.176C115.591 116.238 115.633 116.322 115.654 116.385C115.78 116.95 115.926 117.494 116.072 118.038C116.24 118.665 116.428 119.293 116.616 119.921C116.742 120.297 116.847 120.695 116.972 121.072C117.223 121.888 117.495 122.683 117.788 123.499C117.851 123.666 117.914 123.812 117.976 123.98C118.332 124.942 118.709 125.905 119.106 126.846C119.734 128.311 120.383 129.713 121.094 131.114C121.178 131.261 121.24 131.407 121.324 131.554C121.659 132.202 121.994 132.83 122.349 133.458C122.496 133.73 122.663 134.002 122.809 134.274C123.312 135.132 123.814 135.969 124.337 136.805C124.651 137.308 124.986 137.81 125.32 138.312C125.571 138.668 125.802 139.023 126.053 139.379C127.329 141.199 128.71 142.957 130.174 144.652C130.216 144.714 130.258 144.756 130.321 144.819C130.99 145.593 131.702 146.346 132.413 147.1C132.769 147.476 133.145 147.832 133.501 148.208C133.857 148.564 134.212 148.92 134.568 149.255C135.007 149.694 135.468 150.112 135.928 150.531C136.179 150.761 136.451 150.991 136.723 151.221C148.754 161.766 164.383 167.897 181.079 167.897C184.741 167.897 188.361 167.583 191.918 166.997C191.102 167.123 190.286 167.185 189.491 167.185C181.812 167.185 175.054 161.641 173.757 153.816L173.777 153.795Z"
        fill="white" />
    <path
        d="M101.143 340.141V364.22H88.7737V344.182C88.964 341.652 88.4267 339.134 87.2065 336.917C85.9639 335.305 83.9714 334.455 81.9453 334.645C79.8184 334.499 77.7475 335.373 76.3706 336.996C74.9825 339.011 74.3108 341.429 74.4787 343.869V364.22H62.1875V307.645H74.4787V330.917C75.5645 328.802 77.2772 327.066 79.3706 325.947C81.7213 324.738 84.352 324.134 86.9939 324.212C96.4082 324.212 101.121 329.518 101.132 340.13"
        fill="#141D44" />
    <path
        d="M114.327 362.607C111.573 360.827 109.379 358.286 108.025 355.297C106.536 351.984 105.808 348.379 105.875 344.752C105.819 341.125 106.592 337.532 108.125 334.241C109.536 331.219 111.775 328.666 114.584 326.886C117.484 325.084 120.842 324.155 124.256 324.222C126.809 324.177 129.316 324.793 131.566 326.002C133.615 327.099 135.282 328.789 136.357 330.849V325.286H148.559V364.241H136.357V358.745C135.204 360.76 133.491 362.394 131.432 363.447C129.182 364.667 126.652 365.294 124.088 365.26C120.641 365.338 117.249 364.42 114.327 362.596M134.454 352.096C136.111 350.014 136.962 347.405 136.861 344.741C136.95 342.11 136.1 339.525 134.454 337.465C132.753 335.484 130.234 334.409 127.626 334.554C125.085 334.454 122.622 335.495 120.92 337.387C119.185 339.435 118.278 342.054 118.402 344.741C118.29 347.428 119.185 350.07 120.92 352.129C122.611 354.043 125.073 355.096 127.626 355.006C130.234 355.152 132.753 354.077 134.454 352.096Z"
        fill="#141D44" />
    <path
        d="M154.514 364.232V325.276H166.805V333.437C167.309 330.862 168.719 328.556 170.779 326.933C172.693 325.433 175.055 324.616 177.484 324.627C178.559 324.604 179.645 324.716 180.697 324.951V336.425C179.466 336.28 178.234 336.202 177.003 336.19C174.081 335.989 171.249 337.209 169.38 339.459C167.465 342.336 166.559 345.761 166.805 349.198V364.232H154.514Z"
        fill="#141D44" />
    <path
        d="M188.1 318.727C186.902 317.518 186.242 315.873 186.276 314.171C186.231 312.447 186.891 310.768 188.1 309.537C189.32 308.294 191 307.611 192.735 307.667C194.481 307.611 196.183 308.305 197.403 309.559C198.612 310.779 199.283 312.436 199.25 314.16C199.283 315.873 198.623 317.518 197.403 318.727C196.171 319.97 194.481 320.641 192.735 320.597C191 320.653 189.309 319.97 188.1 318.727Z"
        fill="#141D44" />
    <path d="M198.835 364.229H186.633V325.273H198.835V364.229Z" fill="#141D44" />
    <path d="M240.073 364.23H203.859L222.889 335.539H205.706V325.274H241.517L222.811 354.043H240.073V364.23Z"
        fill="#141D44" />
    <path
        d="M289.506 364.228V325.273H301.797V330.926C302.883 328.81 304.596 327.075 306.689 325.955C309.051 324.746 311.67 324.153 314.323 324.231C323.738 324.231 328.45 329.538 328.462 340.15V364.24H316.092V344.191C316.282 341.661 315.745 339.142 314.525 336.926C313.282 335.314 311.29 334.463 309.263 334.653C307.137 334.508 305.066 335.381 303.689 337.004C302.301 339.008 301.629 341.437 301.797 343.877V364.24H289.506V364.228Z"
        fill="#141D44" />
    <path
        d="M374.649 348.142H346.07C346.036 350.359 346.977 352.486 348.644 353.963C350.503 355.396 352.809 356.113 355.148 355.989C358.943 355.989 361.361 354.825 362.38 352.508H374.425C373.82 356.359 371.548 359.751 368.201 361.766C364.294 364.206 359.76 365.437 355.148 365.281C349.428 365.605 343.82 363.658 339.532 359.863C335.603 355.844 333.543 350.359 333.879 344.751C333.778 340.945 334.663 337.172 336.454 333.803C338.122 330.747 340.663 328.273 343.764 326.694C347.178 324.993 350.95 324.153 354.768 324.232C358.428 324.164 362.044 324.97 365.324 326.571C368.279 328.026 370.764 330.299 372.466 333.12C374.178 336.03 375.063 339.355 374.996 342.736C374.996 344.549 374.895 346.351 374.693 348.154M362.872 340.474C362.973 338.303 362.201 336.176 360.723 334.575C359.066 333.131 356.895 332.403 354.701 332.56C352.428 332.437 350.189 333.209 348.477 334.709C346.921 336.221 346.059 338.314 346.115 340.486H362.883L362.872 340.474Z"
        fill="#141D44" />
    <!-- <path d="M57.249 334.161C56.2527 318.579 42.887 306.702 27.2935 307.564C11.7112 308.649 -0.0876146 322.094 0.88628 337.687L0.964716 338.997L12.7186 338.191L12.6402 336.915C12.1141 327.825 19.0209 320 28.0994 319.396C37.1891 318.915 44.969 325.866 45.5063 334.956C46.0324 344.057 39.1369 351.881 30.0472 352.486C29.23 352.531 28.4016 352.519 27.5844 352.441L26.3084 352.329L25.2336 364.139L26.521 364.251C27.3718 364.329 28.2114 364.363 29.0733 364.363C29.6666 364.363 30.2599 364.341 30.8756 364.307C46.4691 363.21 58.2565 349.743 57.2826 334.139" fill="#E7E8EC"/> -->
    <path
        d="M28.8512 365.17C22.0004 365.17 15.3623 362.707 10.157 358.241C3.69795 352.7 -0.00726265 344.618 0.00393154 336.11C0.00393154 329.226 2.44416 322.554 6.88825 317.293C12.351 310.811 20.3997 307.072 28.8737 307.072C35.7357 307.072 42.3627 309.535 47.568 314.001C48.6987 314.975 49.7621 316.028 50.7359 317.158C53.0867 319.901 52.7957 324.02 50.0755 326.393C47.3777 328.744 43.2806 328.464 40.9298 325.767C40.9298 325.755 40.9074 325.744 40.8962 325.733C40.3589 325.106 39.7656 324.513 39.1276 323.964C36.2731 321.513 32.6349 320.169 28.8737 320.158C24.2169 320.158 19.7953 322.207 16.7952 325.767C14.3549 328.655 13.0228 332.315 13.0228 336.099C13.0228 340.767 15.0601 345.211 18.5975 348.256C21.452 350.707 25.09 352.051 28.8512 352.062C33.508 352.062 37.9298 350.002 40.9298 346.442C43.2246 343.711 47.2993 343.353 50.0419 345.647C50.0643 345.659 50.0867 345.681 50.0979 345.703C52.8405 348.054 53.165 352.185 50.8367 354.939C45.3739 361.42 37.3253 365.159 28.8512 365.159"
        fill="#141D44" />
    <path
        d="M263.827 324.727C276.085 324.727 284.391 332.876 284.391 344.551C284.391 356.227 276.085 364.208 263.827 364.208C251.569 364.208 243.174 356.07 243.174 344.551C243.174 333.033 251.48 324.727 263.827 324.727ZM263.827 354.022C269.178 354.022 272.715 349.992 272.715 344.473C272.715 338.954 269.178 335.014 263.827 335.014C258.476 335.014 254.939 338.876 254.939 344.473C254.939 350.07 258.476 354.022 263.827 354.022Z"
        fill="#141D44" />
    <path
        d="M74.5251 247.094C76.7696 247.094 78.7666 247.605 80.516 248.629C82.2984 249.652 83.6847 251.071 84.675 252.887C85.6652 254.702 86.1603 256.765 86.1603 259.076C86.1603 261.353 85.6652 263.4 84.675 265.215C83.6847 267.03 82.2984 268.45 80.516 269.473C78.7666 270.496 76.7696 271.008 74.5251 271.008H66.6032V281.752H62.0977V247.094H74.5251ZM74.2775 266.948C75.6638 266.948 76.9181 266.618 78.0404 265.958C79.1627 265.265 80.0374 264.324 80.6645 263.136C81.3247 261.914 81.6547 260.561 81.6547 259.076C81.6547 257.557 81.3247 256.204 80.6645 255.016C80.0374 253.794 79.1627 252.854 78.0404 252.193C76.9181 251.5 75.6638 251.154 74.2775 251.154H66.6032V266.948H74.2775Z"
        fill="#161D45" />
    <path
        d="M100.622 282.346C98.212 282.346 96.0995 281.818 94.2841 280.762C92.5017 279.705 91.1318 278.27 90.1746 276.454C89.2174 274.606 88.7388 272.576 88.7388 270.364C88.7388 268.12 89.2174 266.09 90.1746 264.274C91.1318 262.426 92.5017 260.974 94.2841 259.917C96.0995 258.861 98.212 258.333 100.622 258.333C103.031 258.333 105.127 258.861 106.91 259.917C108.725 260.974 110.111 262.426 111.069 264.274C112.026 266.09 112.504 268.12 112.504 270.364C112.504 272.576 112.009 274.606 111.019 276.454C110.062 278.27 108.692 279.705 106.91 280.762C105.127 281.818 103.031 282.346 100.622 282.346ZM100.622 278.484C102.965 278.484 104.814 277.725 106.167 276.207C107.52 274.655 108.197 272.708 108.197 270.364C108.197 267.988 107.52 266.04 106.167 264.522C104.814 262.97 102.965 262.195 100.622 262.195C98.278 262.195 96.4131 262.97 95.0267 264.522C93.6734 266.04 92.9968 267.988 92.9968 270.364C92.9968 272.708 93.6734 274.655 95.0267 276.207C96.4131 277.725 98.278 278.484 100.622 278.484Z"
        fill="#161D45" />
    <path
        d="M125.684 281.752H122.07L113.653 258.927H118.357L123.803 275.612L129.398 258.927H134.002L139.548 275.612L145.044 258.927H149.747L141.33 281.752H137.666L131.675 264.225L125.684 281.752Z"
        fill="#161D45" />
    <path
        d="M172.999 269.077C172.999 270.067 172.966 270.909 172.9 271.602H155.225C155.258 273.781 155.918 275.497 157.205 276.751C158.493 277.972 160.225 278.583 162.404 278.583C163.922 278.583 165.193 278.303 166.216 277.741C167.24 277.147 167.982 276.306 168.444 275.216H172.752C172.356 277.329 171.2 279.045 169.286 280.366C167.372 281.686 165.078 282.346 162.404 282.346C158.905 282.346 156.116 281.273 154.036 279.128C151.99 276.949 150.967 274.012 150.967 270.315C150.967 267.938 151.429 265.842 152.353 264.027C153.277 262.211 154.581 260.808 156.264 259.818C157.981 258.828 159.961 258.333 162.206 258.333C164.318 258.333 166.183 258.795 167.801 259.719C169.451 260.61 170.722 261.881 171.613 263.532C172.537 265.149 172.999 266.997 172.999 269.077ZM168.791 268.285C168.791 266.271 168.197 264.687 167.009 263.532C165.853 262.376 164.236 261.799 162.156 261.799C160.11 261.799 158.46 262.393 157.205 263.581C155.984 264.769 155.324 266.337 155.225 268.285H168.791Z"
        fill="#161D45" />
    <path
        d="M178.618 281.752V258.927H182.926V264.126C183.355 262.31 184.18 260.941 185.401 260.016C186.656 259.059 188.058 258.58 189.61 258.58C190.501 258.58 191.194 258.646 191.689 258.778V262.739C191.194 262.64 190.484 262.591 189.56 262.591C187.415 262.591 185.764 263.449 184.609 265.165C183.487 266.882 182.926 269.093 182.926 271.8V281.752H178.618Z"
        fill="#161D45" />
    <path
        d="M215.984 269.077C215.984 270.067 215.951 270.909 215.885 271.602H198.209C198.242 273.781 198.902 275.497 200.189 276.751C201.477 277.972 203.21 278.583 205.388 278.583C206.906 278.583 208.177 278.303 209.201 277.741C210.224 277.147 210.966 276.306 211.429 275.216H215.736C215.34 277.329 214.185 279.045 212.27 280.366C210.356 281.686 208.062 282.346 205.388 282.346C201.889 282.346 199.1 281.273 197.021 279.128C194.974 276.949 193.951 274.012 193.951 270.315C193.951 267.938 194.413 265.842 195.337 264.027C196.261 262.211 197.565 260.808 199.249 259.818C200.965 258.828 202.946 258.333 205.19 258.333C207.303 258.333 209.168 258.795 210.785 259.719C212.435 260.61 213.706 261.881 214.597 263.532C215.522 265.149 215.984 266.997 215.984 269.077ZM211.775 268.285C211.775 266.271 211.181 264.687 209.993 263.532C208.837 262.376 207.22 261.799 205.141 261.799C203.094 261.799 201.444 262.393 200.189 263.581C198.968 264.769 198.308 266.337 198.209 268.285H211.775Z"
        fill="#161D45" />
    <path
        d="M239.034 247.094H243.292V281.752H239.034V277.741C238.308 279.128 237.202 280.25 235.717 281.108C234.231 281.933 232.63 282.346 230.914 282.346C228.571 282.346 226.541 281.834 224.824 280.811C223.108 279.755 221.804 278.319 220.913 276.504C220.055 274.688 219.625 272.642 219.625 270.364C219.625 268.12 220.088 266.09 221.012 264.274C221.936 262.426 223.256 260.974 224.973 259.917C226.689 258.861 228.703 258.333 231.013 258.333C232.796 258.333 234.396 258.762 235.816 259.62C237.235 260.445 238.308 261.568 239.034 262.987V247.094ZM231.508 278.484C233.918 278.484 235.799 277.708 237.153 276.157C238.539 274.606 239.232 272.675 239.232 270.364C239.232 268.054 238.539 266.123 237.153 264.571C235.799 262.987 233.918 262.195 231.508 262.195C229.198 262.195 227.349 262.97 225.963 264.522C224.577 266.04 223.883 267.988 223.883 270.364C223.883 272.741 224.577 274.688 225.963 276.207C227.349 277.725 229.198 278.484 231.508 278.484Z"
        fill="#161D45" />
    <path
        d="M275.908 258.333C278.053 258.333 279.968 258.845 281.651 259.868C283.335 260.858 284.638 262.277 285.563 264.126C286.487 265.941 286.949 268.021 286.949 270.364C286.949 272.675 286.47 274.738 285.513 276.553C284.556 278.369 283.219 279.788 281.503 280.811C279.786 281.834 277.839 282.346 275.66 282.346C273.911 282.346 272.293 281.933 270.808 281.108C269.323 280.283 268.217 279.161 267.491 277.741V281.752H263.233V247.094H267.491V262.987C268.217 261.568 269.339 260.445 270.858 259.62C272.376 258.762 274.059 258.333 275.908 258.333ZM275.066 278.484C277.278 278.484 279.093 277.725 280.512 276.207C281.932 274.688 282.641 272.741 282.641 270.364C282.641 268.813 282.311 267.41 281.651 266.156C281.024 264.901 280.133 263.928 278.977 263.235C277.822 262.541 276.518 262.195 275.066 262.195C272.789 262.195 270.924 262.954 269.471 264.472C268.019 265.991 267.293 267.955 267.293 270.364C267.293 272.741 268.019 274.688 269.471 276.207C270.924 277.725 272.789 278.484 275.066 278.484Z"
        fill="#161D45" />
    <path
        d="M308.824 258.927H313.082V282.197C313.082 285.795 312.059 288.535 310.012 290.416C308.098 292.067 305.606 292.892 302.536 292.892C299.235 292.892 296.661 292.1 294.812 290.515C293.129 289.096 292.271 287.132 292.238 284.624H296.545C296.644 286.109 297.156 287.248 298.08 288.04C299.004 288.865 300.473 289.278 302.487 289.278C304.5 289.278 306.051 288.667 307.141 287.446C308.263 286.257 308.824 284.409 308.824 281.9V277.642C308.131 279.095 307.108 280.234 305.754 281.059C304.401 281.884 302.784 282.297 300.902 282.297C298.031 282.297 295.869 281.422 294.416 279.672C292.964 277.923 292.238 275.546 292.238 272.543V258.927H296.496V271.652C296.496 273.83 296.925 275.513 297.783 276.702C298.674 277.89 300.193 278.484 302.338 278.484C304.418 278.484 306.018 277.741 307.141 276.256C308.263 274.738 308.824 272.873 308.824 270.661V258.927Z"
        fill="#161D45" />
</svg>