<svg xmlns="http://www.w3.org/2000/svg" width="134.006" height="118.491" viewBox="0 0 134.006 118.491">
  <g id="Group_967" data-name="Group 967" transform="translate(-892.997 -1862.508)">
    <g id="Group_136" data-name="Group 136" transform="translate(892.997 1862.508)">
      <path id="Path_6" data-name="Path 6" d="M-.256-32.293C2.663-55.7,19.1-76.772,40.825-85.963s47.912-6.477,67.7,6.37c14.239,9.246,25.643,24.908,24.705,41.859C132.22-19.513,118.239-6.06,103.247,2.311,90.974,9.163,78.5,19.327,65.222,23.991,27.385,37.28-5.028,5.986-.256-32.293" transform="translate(0.724 91.392)" fill="#7777a5"/>
    </g>
    <g id="Group_89" data-name="Group 89" transform="translate(934.651 1893.892)">
      <g id="Group_30" data-name="Group 30" transform="translate(0 0)">
        <path id="Path_28" data-name="Path 28" d="M19.134,0,11.3,15.872-6.214,18.414,6.46,30.77,3.466,48.216l15.668-8.24L34.8,48.216,31.808,30.77,44.483,18.414,26.966,15.872Z" transform="translate(6.214)" fill="#fff"/>
      </g>
    </g>
  </g>
</svg>
