<svg xmlns="http://www.w3.org/2000/svg" height="24px" viewBox="-8 0 40 24" width="24px" fill="#000000">
    <path d="M0 0h24v24H0z" fill="none" />
    <path fill=""
        d="m18 8v0h-12c-1.1 0-2 .9-2 2v10c0 1.1.9 2 2 2h12c1.1 0 2-.9 2-2v-10c0-1.1-.9-2-2-2zm-6 9c-1.1 0-2-.9-2-2s.9-2 2-2 2 .9 2 2-.9 2-2 2z" />
    <path fill="" transform-origin="7.5"
        d="m17 9v-3c0-2.76-2.24-5-5-5s-5 2.24-5 5v3h1.9v-3c0-1.71 1.39-3.1 3.1-3.1 1.71 0 3.1 1.39 3.1 3.1v3z">
        <animateTransform attributeName="transform" attributeType="XML" type="scale" values="1 1;-1 1;1 1" dur="5s"
            repeatCount="indefinite" />
    </path>
</svg>