<svg xmlns="http://www.w3.org/2000/svg" width="31.161" height="43.031" viewBox="0 0 31.161 43.031">
  <g id="Group_1564" data-name="Group 1564" transform="translate(-412.339 -637)">
    <g id="Group_1563" data-name="Group 1563" transform="translate(397.501 637)">
      <path id="Path_2780" data-name="Path 2780" d="M13.354,0A13.37,13.37,0,0,0,0,13.354v7.419H4.451V13.354a8.9,8.9,0,0,1,17.806,0v7.419h4.451V13.354A13.37,13.37,0,0,0,13.354,0" transform="translate(17.064)" fill="#f7cdcc"/>
      <path id="Path_2781" data-name="Path 2781" d="M24.31,34.035V54.461a1.831,1.831,0,0,0,1.831,1.831h27.5a1.831,1.831,0,0,0,1.831-1.831V34.035ZM42.858,51.841H36.923L38.112,45.3a2.968,2.968,0,1,1,3.557,0Z" transform="translate(-9.472 -13.261)" fill="#f7cdcc"/>
    </g>
  </g>
</svg>
