<svg width="502" height="399" viewBox="0 0 502 399" fill="none" xmlns="http://www.w3.org/2000/svg">
<path d="M445.168 184.317C461.748 195.094 475.426 209.602 486.203 227.84C496.98 245.248 501.954 264.73 501.125 286.283C500.296 316.956 489.104 343.069 467.551 364.623C445.997 386.177 419.469 397.368 387.968 398.197C371.388 398.197 356.051 395.296 341.959 389.493C327.866 383.69 315.431 375.814 304.654 365.866C294.706 355.09 286.416 342.655 279.784 328.562C273.981 314.469 271.08 299.547 271.08 283.796V280.066C271.909 246.906 276.883 216.234 286.002 188.048C295.95 159.862 307.97 134.578 322.063 112.195C336.156 88.9836 350.663 69.0878 365.585 52.508C381.336 35.0992 395.014 21.0064 406.62 10.2295C414.91 2.76856 424.443 -0.547408 435.22 0.281572C446.826 0.281572 456.359 4.42655 463.82 12.7165C471.281 21.8354 474.597 31.7833 473.768 42.5601C472.939 53.337 468.38 62.4559 460.09 69.9168C455.945 74.0618 451.385 78.6212 446.411 83.5952C441.438 87.7401 436.464 92.2996 431.49 97.2735C419.884 111.366 415.324 127.117 417.811 144.526C420.298 161.935 429.417 175.199 445.168 184.317ZM172.845 184.317C189.424 195.094 203.103 209.602 213.88 227.84C224.656 245.248 229.63 264.73 228.801 286.283C227.972 316.956 216.781 343.069 195.227 364.623C173.674 386.177 147.146 397.368 115.644 398.197C99.8934 398.197 84.9715 395.296 70.8787 389.493C56.7859 383.69 44.351 375.814 33.5741 365.866C23.6262 355.09 15.3363 342.655 8.7044 328.562C2.90147 314.469 0 299.547 0 283.796V280.066C0 246.906 4.97394 216.234 14.9218 188.048C24.8697 159.862 36.4756 134.578 49.7394 112.195C63.8323 88.9836 78.3396 69.0878 93.2614 52.508C109.012 35.0992 122.691 21.0064 134.296 10.2295C142.586 2.76856 152.12 -0.547408 162.897 0.281572C174.503 0.281572 184.036 4.42655 191.497 12.7165C198.958 21.8354 202.274 31.7833 201.445 42.5601C200.616 53.337 196.056 62.4559 187.766 69.9168C183.621 74.0618 179.062 78.6212 174.088 83.5952C169.114 87.7401 164.14 92.2996 159.166 97.2735C147.56 111.366 143.001 127.117 145.488 144.526C147.975 161.935 157.094 175.199 172.845 184.317Z" fill="#F4E8A0"/>
</svg>
