<svg width="99" height="99" viewBox="0 0 99 99" fill="none" xmlns="http://www.w3.org/2000/svg">
<g id="Isolation_Mode" clip-path="url(#clip0_74_278)">
<path id="Vector" d="M99 49.5C99 76.8376 76.839 99 49.4979 99C22.161 99 -9.68749e-07 76.8376 -2.16371e-06 49.5C-3.35868e-06 22.1624 22.161 6.66071e-06 49.4979 5.46577e-06C76.8347 4.27084e-06 98.9957 22.1624 98.9957 49.5L99 49.5Z" fill="#E4E4ED"/>
<path id="Vector_2" d="M90.9693 49.5006C90.9693 72.3681 72.3644 90.9707 49.4982 90.9707C26.632 90.9707 8.03125 72.3681 8.03125 49.5006C8.03125 26.6331 26.6362 8.03054 49.5024 8.03054C72.3686 8.03054 90.9736 26.6331 90.9736 49.5006L90.9693 49.5006Z" fill="white"/>
<path id="Vector_3" d="M82.9381 49.4993C82.9381 67.9395 67.9361 82.9395 49.4978 82.9395C31.0596 82.9395 16.0576 67.9395 16.0576 49.4993C16.0576 31.0591 31.0596 16.0591 49.4978 16.0591C67.9361 16.0591 82.9381 31.0591 82.9381 49.4993Z" fill="#A4A4C3"/>
<path id="Vector_4" d="M74.9113 49.4999C74.9113 63.5127 63.5124 74.9102 49.5021 74.9102C35.4917 74.9102 24.0928 63.5127 24.0928 49.4999C24.0928 35.4871 35.4917 24.0896 49.502 24.0896C63.5124 24.0896 74.9113 35.4871 74.9113 49.4999Z" fill="white"/>
<path id="Vector_5" d="M66.8801 49.5005C66.8801 59.0817 59.0842 66.8809 49.5017 66.8809C39.9193 66.8809 32.1191 59.086 32.1191 49.5005C32.1191 39.9151 39.915 32.1202 49.4975 32.1202C59.0799 32.1202 66.8801 39.9151 66.8801 49.5005Z" fill="#7777A5"/>
<path id="Vector_6" d="M58.8498 49.4992C58.8498 54.653 54.6569 58.8496 49.4981 58.8496C44.3393 58.8496 40.1465 54.6573 40.1465 49.4992C40.1465 44.3411 44.3393 40.1488 49.4981 40.1488C54.6569 40.1488 58.8498 44.3411 58.8498 49.4992Z" fill="white"/>
<path id="Vector_7" d="M49.4979 99C22.161 99 -9.68749e-07 76.8376 -2.16371e-06 49.5C-3.35868e-06 22.1624 22.161 6.66071e-06 49.4979 5.46577e-06L49.4979 99Z" fill="#7777A5"/>
</g>
<defs>
<clipPath id="clip0_74_278">
<rect width="99" height="99" fill="white" transform="translate(0 99) rotate(-90)"/>
</clipPath>
</defs>
</svg>
