<svg width="157" height="79" viewBox="0 0 157 79" fill="none" xmlns="http://www.w3.org/2000/svg">
<g id="Group 227">
<path id="Vector" d="M0 39.5C0 61.3152 17.4598 79 38.9966 79H78V0H38.9966C17.4598 0 0 17.6848 0 39.5Z" fill="#E4E4ED"/>
<path id="Vector_2" d="M157 39.5C157 61.3152 139.316 79 117.503 79H78V0H117.503C139.316 0 157 17.6848 157 39.5Z" fill="#E4E4ED"/>
<path id="Vector_3" d="M117.997 73H117.991C99.2187 73 84 58.0022 84 39.5014C84.0029 20.9978 99.2216 6 117.994 6H118V73H117.997Z" fill="#A4A4C3"/>
<path id="Vector_4" d="M118 6C136.225 6 151 20.9985 151 39.5C151 58.0015 136.225 73 118 73V6Z" fill="#7777A5"/>
</g>
</svg>
