<svg width="123" height="123" viewBox="0 0 123 123" fill="none" xmlns="http://www.w3.org/2000/svg">
<path d="M122.006 56.9035C121.152 44.5284 116.577 33.1971 109.46 23.9727C113.256 30.0653 112.041 38.1699 106.347 42.8391C100.634 47.5272 92.4341 47.0907 87.2145 42.1558C91.0865 47.4893 93.3831 54.0375 93.3831 61.1361C93.3831 77.8009 80.7803 91.5047 64.5711 93.2509C57.6813 95.3197 53.2397 102.21 54.4545 109.479C55.6312 116.578 61.7619 121.607 68.7277 121.607C69.449 121.607 70.1893 121.551 70.9295 121.437C71.2901 121.38 71.6696 121.304 72.0303 121.247C72.5427 121.152 73.0363 121.057 73.5488 120.962C101.867 115.116 122.157 90.3659 122.157 61.2121C122.157 59.7885 122.101 58.346 122.006 56.9225V56.9035Z" fill="white"/>
<path d="M22.5483 31.1467C29.4382 33.747 33.1583 41.0165 31.526 47.9823C36.5558 36.689 47.8871 28.8121 61.0405 28.8121C71.7833 28.8121 81.3113 34.0697 87.1762 42.1363C92.3958 47.0712 100.595 47.4888 106.309 42.8196C112.003 38.1505 113.217 30.0459 109.421 23.9532C109.099 23.4217 108.738 22.9093 108.339 22.4158C96.6664 8.18052 79.4512 0 61.0783 0C56.6558 0 52.2145 0.493489 47.868 1.44251C42.9901 2.52438 38.3778 4.17567 34.0313 6.33943C33.9174 6.39637 33.8036 6.45331 33.6898 6.51025C33.3291 6.70006 32.9684 6.88986 32.6078 7.07966C32.0953 7.34539 31.583 7.63009 31.0895 7.9148C30.9756 7.97174 30.8616 8.04766 30.7477 8.1046C24.1615 11.9007 18.3535 16.8925 13.6274 22.7195C13.5135 22.8713 13.3808 23.0231 13.2669 23.156C12.9442 23.5736 12.6216 23.9911 12.2989 24.4087C12.0901 24.6934 11.8624 24.9781 11.6536 25.2818C11.5018 25.4906 11.35 25.6994 11.2171 25.9082C8.52191 29.7232 6.26316 33.8419 4.479 38.1884C7.7626 31.6402 15.5256 28.5085 22.5293 31.1467H22.5483Z" fill="white"/>
<path d="M54.4545 109.478C53.2397 102.209 57.7002 95.319 64.5711 93.2502C63.4133 93.383 62.2556 93.44 61.0598 93.44C43.2183 93.44 28.7552 78.977 28.7552 61.1354C28.7552 56.4663 29.7612 52.0249 31.5453 48.0011C33.1776 41.0353 29.4385 33.7468 22.5676 31.1655C15.5639 28.5272 7.80093 31.659 4.51733 38.2072C2.46745 43.218 1.08182 48.5325 0.417512 53.9988C0.379551 54.3974 0.322712 54.796 0.284751 55.1756C0.246791 55.4603 0.227736 55.764 0.208756 56.0677C0.151815 56.8079 0.0949573 57.5482 0.0569966 58.2884C0.0569966 58.3264 0.0569966 58.3833 0.0569966 58.4213C0.0190359 59.3323 0 60.2434 0 61.1544C0 63.451 0.13277 65.7097 0.379514 67.9684C0.379514 67.9874 0.379514 68.0063 0.379514 68.0253C0.493396 69.0692 0.645202 70.0942 0.816024 71.1191C0.853985 71.3469 0.892057 71.5746 0.930018 71.7834C1.06288 72.5806 1.2147 73.3588 1.38553 74.156C1.48043 74.5545 1.57538 74.9531 1.67028 75.3517C1.67028 75.4087 1.70829 75.4846 1.72728 75.5415C1.84116 76.054 1.97393 76.5475 2.10679 77.041C2.25863 77.6104 2.42947 78.1798 2.6003 78.7492C2.71418 79.0908 2.80916 79.4515 2.92305 79.7931C3.15081 80.5333 3.39735 81.2546 3.66307 81.9948C3.72002 82.1467 3.77712 82.2795 3.83406 82.4314C4.15673 83.3045 4.49822 84.1776 4.85884 85.0317C5.42825 86.3603 6.01678 87.632 6.66212 88.9037C6.73804 89.0365 6.79495 89.1694 6.87087 89.3023C7.17456 89.8907 7.47822 90.4601 7.80089 91.0295C7.93375 91.2762 8.08554 91.523 8.2184 91.7697C8.67393 92.5479 9.12942 93.3071 9.60393 94.0663C9.88863 94.5219 10.1925 94.9774 10.4962 95.4329C10.7239 95.7556 10.9327 96.0782 11.1604 96.4009C12.3182 98.0522 13.5709 99.6465 14.8995 101.184C14.9375 101.241 14.9756 101.279 15.0325 101.336C15.6399 102.038 16.2852 102.721 16.9305 103.405C17.2532 103.746 17.5947 104.069 17.9173 104.411C18.24 104.733 18.5627 105.056 18.8853 105.36C19.2839 105.758 19.7015 106.138 20.1191 106.517C20.3469 106.726 20.5936 106.935 20.8404 107.144C31.7541 116.71 45.9323 122.271 61.0786 122.271C64.4001 122.271 67.6838 121.986 70.9105 121.455C70.1703 121.569 69.43 121.626 68.7087 121.626C61.7429 121.626 55.6122 116.596 54.4355 109.497L54.4545 109.478Z" fill="#F4E8A0"/>
</svg>
