<svg width="123" height="123" viewBox="0 0 123 123" fill="none" xmlns="http://www.w3.org/2000/svg">
<path d="M122.848 56.9035C121.994 44.5284 117.42 33.1971 110.302 23.9727C114.098 30.0653 112.883 38.1699 107.189 42.8391C101.476 47.5272 93.2767 47.0907 88.0571 42.1558C91.9291 47.4893 94.2257 54.0375 94.2257 61.1361C94.2257 77.8009 81.6229 91.5047 65.4137 93.2509C58.5238 95.3197 54.0822 102.21 55.297 109.479C56.4738 116.578 62.6045 121.607 69.5702 121.607C70.2915 121.607 71.0318 121.551 71.772 121.437C72.1326 121.38 72.5122 121.304 72.8728 121.247C73.3853 121.152 73.8788 121.057 74.3913 120.962C102.71 115.116 123 90.3659 123 61.2121C123 59.7885 122.943 58.346 122.848 56.9225V56.9035Z" fill="white"/>
<path d="M23.3911 31.1467C30.281 33.747 34.0011 41.0165 32.3687 47.9823C37.3985 36.689 48.7299 28.8121 61.8833 28.8121C72.6261 28.8121 82.1541 34.0697 88.019 42.1363C93.2386 47.0712 101.438 47.4888 107.151 42.8196C112.845 38.1505 114.06 30.0459 110.264 23.9532C109.941 23.4217 109.581 22.9093 109.182 22.4158C97.5092 8.18052 80.294 0 61.921 0C57.4986 0 53.0573 0.493489 48.7108 1.44251C43.8328 2.52438 39.2205 4.17567 34.8741 6.33943C34.7602 6.39637 34.6464 6.45331 34.5325 6.51025C34.1719 6.70006 33.8112 6.88986 33.4505 7.07966C32.9381 7.34539 32.4257 7.63009 31.9322 7.9148C31.8184 7.97174 31.7044 8.04766 31.5905 8.1046C25.0043 11.9007 19.1963 16.8925 14.4702 22.7195C14.3563 22.8713 14.2236 23.0231 14.1097 23.156C13.787 23.5736 13.4643 23.9911 13.1417 24.4087C12.9329 24.6934 12.7052 24.9781 12.4964 25.2818C12.3446 25.4906 12.1927 25.6994 12.0599 25.9082C9.36468 29.7232 7.10593 33.8419 5.32178 38.1884C8.60537 31.6402 16.3683 28.5085 23.3721 31.1467H23.3911Z" fill="#9BCCF4"/>
<path d="M55.2972 109.478C54.0825 102.209 58.543 95.319 65.4139 93.2502C64.2561 93.383 63.0983 93.44 61.9026 93.44C44.0611 93.44 29.598 78.977 29.598 61.1354C29.598 56.4663 30.6039 52.0249 32.3881 48.0011C34.0204 41.0353 30.2813 33.7468 23.4104 31.1655C16.4067 28.5272 8.6437 31.659 5.3601 38.2072C3.31023 43.218 1.9246 48.5325 1.26029 53.9988C1.22232 54.3974 1.16549 54.796 1.12752 55.1756C1.08956 55.4603 1.07051 55.764 1.05153 56.0677C0.994588 56.8079 0.937731 57.5482 0.89977 58.2884C0.89977 58.3264 0.89977 58.3833 0.89977 58.4213C0.861809 59.3323 0.842773 60.2434 0.842773 61.1544C0.842773 63.451 0.975543 65.7097 1.22229 67.9684C1.22229 67.9874 1.22229 68.0063 1.22229 68.0253C1.33617 69.0692 1.48797 70.0942 1.6588 71.1191C1.69676 71.3469 1.73483 71.5746 1.77279 71.7834C1.90565 72.5806 2.05748 73.3588 2.2283 74.156C2.3232 74.5545 2.41815 74.9531 2.51305 75.3517C2.51305 75.4087 2.55107 75.4846 2.57005 75.5415C2.68393 76.054 2.8167 76.5475 2.94956 77.041C3.10141 77.6104 3.27225 78.1798 3.44307 78.7492C3.55695 79.0908 3.65194 79.4515 3.76582 79.7931C3.99358 80.5333 4.24012 81.2546 4.50585 81.9948C4.56279 82.1467 4.6199 82.2795 4.67684 82.4314C4.9995 83.3045 5.34099 84.1776 5.70162 85.0317C6.27103 86.3603 6.85956 87.632 7.50489 88.9037C7.58081 89.0365 7.63772 89.1694 7.71364 89.3023C8.01733 89.8907 8.321 90.4601 8.64366 91.0295C8.77652 91.2762 8.92831 91.523 9.06117 91.7697C9.5167 92.5479 9.97219 93.3071 10.4467 94.0663C10.7314 94.5219 11.0353 94.9774 11.339 95.4329C11.5667 95.7556 11.7755 96.0782 12.0032 96.4009C13.161 98.0522 14.4137 99.6465 15.7423 101.184C15.7802 101.241 15.8183 101.279 15.8753 101.336C16.4826 102.038 17.128 102.721 17.7733 103.405C18.096 103.746 18.4374 104.069 18.7601 104.411C19.0828 104.733 19.4054 105.056 19.7281 105.36C20.1267 105.758 20.5443 106.138 20.9619 106.517C21.1896 106.726 21.4364 106.935 21.6831 107.144C32.5968 116.71 46.775 122.271 61.9213 122.271C65.2429 122.271 68.5266 121.986 71.7533 121.455C71.013 121.569 70.2727 121.626 69.5515 121.626C62.5857 121.626 56.455 116.596 55.2782 109.497L55.2972 109.478Z" fill="white"/>
</svg>
