<svg width="240" height="240" viewBox="0 0 240 240" fill="none" xmlns="http://www.w3.org/2000/svg">
<path d="M239.27 111.232C237.6 87.0418 228.659 64.8919 214.746 46.8604C222.166 58.7701 219.791 74.6127 208.661 83.7398C197.493 92.904 181.465 92.0506 171.262 82.4041C178.831 92.8298 183.32 105.63 183.32 119.506C183.32 152.082 158.684 178.869 126.999 182.283C113.531 186.327 104.849 199.795 107.224 214.005C109.524 227.881 121.508 237.713 135.124 237.713C136.534 237.713 137.981 237.602 139.428 237.379C140.133 237.268 140.875 237.12 141.58 237.008C142.582 236.823 143.547 236.637 144.548 236.452C199.905 225.024 239.567 176.643 239.567 119.655C239.567 116.872 239.456 114.052 239.27 111.269V111.232Z" fill="#F7CFCE"/>
<path d="M44.8544 60.8844C58.3224 65.9674 65.5944 80.1775 62.4036 93.7939C72.2356 71.7182 94.3857 56.3209 120.097 56.3209C141.097 56.3209 159.722 66.5981 171.187 82.3665C181.39 92.013 197.418 92.8293 208.586 83.7022C219.716 74.5751 222.091 58.7325 214.67 46.8228C214.04 45.7839 213.335 44.7821 212.555 43.8175C189.738 15.991 156.086 0 120.171 0C111.526 0 102.845 0.964653 94.3484 2.81975C84.8132 4.93457 75.7972 8.16245 67.3009 12.3921C67.0782 12.5034 66.8559 12.6147 66.6333 12.726C65.9283 13.097 65.2231 13.468 64.5182 13.8391C63.5165 14.3585 62.515 14.915 61.5503 15.4715C61.3277 15.5829 61.1049 15.7313 60.8823 15.8426C48.0079 23.263 36.6546 33.0208 27.4162 44.4111C27.1936 44.7079 26.9341 45.0048 26.7115 45.2645C26.0807 46.0807 25.45 46.897 24.8192 47.7132C24.4111 48.2697 23.966 48.8263 23.5579 49.4199C23.2611 49.828 22.9643 50.2361 22.7046 50.6443C17.4361 58.1018 13.0208 66.1529 9.5332 74.6493C15.9519 61.8491 31.1266 55.7272 44.8173 60.8844H44.8544Z" fill="#9BCCF4"/>
<path d="M107.223 214.004C104.849 199.794 113.568 186.326 126.999 182.282C124.736 182.541 122.473 182.653 120.135 182.653C85.2593 182.653 56.9875 154.381 56.9875 119.505C56.9875 110.378 58.9538 101.696 62.4414 93.8305C65.6322 80.2141 58.3231 65.9669 44.8922 60.921C31.2015 55.7638 16.0268 61.8857 9.60813 74.6859C5.60111 84.4808 2.89254 94.8694 1.59397 105.555C1.51976 106.334 1.40866 107.113 1.33445 107.855C1.26025 108.412 1.223 109.005 1.1859 109.599C1.07459 111.046 0.963451 112.493 0.889247 113.94C0.889247 114.014 0.889247 114.125 0.889247 114.2C0.815043 115.98 0.777832 117.761 0.777832 119.542C0.777832 124.032 1.03737 128.447 1.51969 132.862C1.51969 132.899 1.51969 132.936 1.51969 132.973C1.7423 135.014 2.03905 137.017 2.37297 139.021C2.44717 139.466 2.52159 139.911 2.5958 140.319C2.85551 141.878 3.15229 143.399 3.48621 144.957C3.67172 145.736 3.85732 146.515 4.04283 147.295C4.04283 147.406 4.11714 147.554 4.15424 147.666C4.37686 148.667 4.63639 149.632 4.8961 150.597C5.19292 151.71 5.52687 152.823 5.86079 153.936C6.0834 154.604 6.26908 155.309 6.49169 155.976C6.93691 157.423 7.41884 158.833 7.93827 160.28C8.04958 160.577 8.16121 160.837 8.27251 161.134C8.90325 162.84 9.57078 164.547 10.2757 166.217C11.3888 168.814 12.5392 171.3 13.8007 173.785C13.9491 174.045 14.0603 174.305 14.2087 174.565C14.8024 175.715 15.396 176.828 16.0267 177.941C16.2864 178.423 16.5831 178.905 16.8428 179.388C17.7333 180.909 18.6237 182.393 19.5512 183.877C20.1078 184.768 20.7017 185.658 21.2954 186.548C21.7406 187.179 22.1486 187.81 22.5938 188.441C24.8571 191.669 27.3057 194.785 29.9028 197.79C29.977 197.902 30.0515 197.976 30.1628 198.087C31.3501 199.46 32.6115 200.796 33.873 202.131C34.5037 202.799 35.1712 203.43 35.8019 204.098C36.4327 204.728 37.0634 205.359 37.6942 205.953C38.4733 206.732 39.2896 207.474 40.1059 208.216C40.5511 208.624 41.0335 209.032 41.5158 209.44C62.8495 228.14 90.5645 239.011 120.172 239.011C126.665 239.011 133.084 238.454 139.391 237.415C137.944 237.638 136.497 237.749 135.087 237.749C121.471 237.749 109.487 227.917 107.186 214.041L107.223 214.004Z" fill="#141D44"/>
</svg>
