<svg width="257" height="229" viewBox="0 0 257 229" fill="none" xmlns="http://www.w3.org/2000/svg">
<mask id="path-1-outside-1_2_698" maskUnits="userSpaceOnUse" x="0" y="0" width="257" height="229" fill="black">
<rect fill="white" width="257" height="229"/>
<path d="M3.87662 114.298C10.1533 69.5124 39.281 31.2043 80.7609 13.1783C122.42 -3.82024 169.752 0.669508 207.479 25.1733C234.127 42.5962 255.482 72.1035 253.717 104.045C251.841 138.378 225.662 163.73 197.606 179.5C174.621 192.389 151.302 211.554 126.44 220.355C55.6095 245.394 -5.05821 186.425 3.87662 114.321"/>
</mask>
<path d="M3.87662 114.298C10.1533 69.5124 39.281 31.2043 80.7609 13.1783C122.42 -3.82024 169.752 0.669508 207.479 25.1733C234.127 42.5962 255.482 72.1035 253.717 104.045C251.841 138.378 225.662 163.73 197.606 179.5C174.621 192.389 151.302 211.554 126.44 220.355C55.6095 245.394 -5.05821 186.425 3.87662 114.321" fill="#141D44"/>
<path d="M80.7609 13.1783L79.8333 10.905L79.8077 10.9154L79.7823 10.9264L80.7609 13.1783ZM207.479 25.1733L208.823 23.1182L208.816 23.1142L207.479 25.1733ZM253.717 104.045L251.265 103.91L251.265 103.911L253.717 104.045ZM197.606 179.5L198.807 181.642L198.809 181.64L197.606 179.5ZM126.44 220.355L127.259 222.67L127.26 222.669L126.44 220.355ZM6.30814 114.639C12.4662 70.6998 41.0434 33.1155 81.7395 15.4301L79.7823 10.9264C37.5186 29.2931 7.84047 68.3249 1.44509 113.957L6.30814 114.639ZM81.6885 15.4516C122.602 -1.24295 169.088 3.16634 206.142 27.2324L208.816 23.1142C170.415 -1.82732 122.237 -6.39754 79.8333 10.905L81.6885 15.4516ZM206.135 27.2283C232.354 44.3702 252.965 73.1544 251.265 103.91L256.169 104.181C257.999 71.0526 235.901 40.8222 208.823 23.1182L206.135 27.2283ZM251.265 103.911C249.458 136.985 224.191 161.74 196.403 177.36L198.809 181.64C227.133 165.72 254.224 139.77 256.169 104.179L251.265 103.911ZM196.405 177.359C184.837 183.845 173.104 191.96 161.41 199.388C149.63 206.871 137.778 213.737 125.621 218.04L127.26 222.669C139.964 218.172 152.202 211.054 164.043 203.533C175.972 195.956 187.39 188.043 198.807 181.642L196.405 177.359ZM125.622 218.04C91.0647 230.256 59.1325 221.972 36.8894 201.942C14.6071 181.876 1.94016 149.913 6.31327 114.622L1.43997 114.019C-3.12175 150.832 10.0778 184.406 33.6033 205.591C57.1682 226.812 90.9852 235.493 127.259 222.67L125.622 218.04Z" fill="white" mask="url(#path-1-outside-1_2_698)"/>
<path d="M193.139 105.319C192.134 90.755 186.751 77.4198 178.374 66.564C182.842 73.7342 181.412 83.2721 174.711 88.767C167.988 94.2843 158.338 93.7705 152.195 87.9629C156.752 94.2396 159.455 101.946 159.455 110.3C159.455 129.912 144.623 146.039 125.547 148.094C117.439 150.529 112.212 158.637 113.641 167.192C115.026 175.547 122.241 181.466 130.439 181.466C131.288 181.466 132.159 181.399 133.03 181.265C133.455 181.198 133.901 181.108 134.326 181.041C134.929 180.93 135.51 180.818 136.113 180.706C169.44 173.827 193.318 144.699 193.318 110.389C193.318 108.714 193.251 107.016 193.139 105.341V105.319Z" fill="#F7CFCE"/>
<path d="M76.0921 75.0067C84.2004 78.0669 88.5785 86.622 86.6575 94.8197C92.5768 81.5291 105.912 72.2592 121.392 72.2592C134.035 72.2592 145.247 78.4466 152.15 87.9399C158.292 93.7475 167.942 94.2389 174.666 88.744C181.367 83.2491 182.796 73.7111 178.329 66.5409C177.949 65.9155 177.525 65.3124 177.056 64.7316C163.318 47.9788 143.058 38.3516 121.436 38.3516C116.232 38.3516 111.005 38.9323 105.89 40.0492C100.149 41.3224 94.721 43.2657 89.6059 45.8121C89.4718 45.8792 89.338 45.9462 89.2039 46.0132C88.7795 46.2365 88.355 46.4599 87.9306 46.6833C87.3275 46.996 86.7245 47.3311 86.1438 47.6661C86.0097 47.7331 85.8756 47.8225 85.7416 47.8895C77.9906 52.3569 71.1554 58.2316 65.5935 65.089C65.4595 65.2677 65.3032 65.4464 65.1692 65.6028C64.7895 66.0942 64.4097 66.5856 64.03 67.077C63.7843 67.4121 63.5163 67.7471 63.2706 68.1045C63.0919 68.3502 62.9133 68.596 62.7569 68.8417C59.5851 73.3314 56.9268 78.1786 54.8271 83.2937C58.6915 75.5875 67.8273 71.9018 76.0697 75.0067H76.0921Z" fill="#9BCCF4"/>
<path d="M113.642 167.192C112.212 158.637 117.461 150.528 125.547 148.094C124.185 148.25 122.822 148.317 121.415 148.317C100.418 148.317 83.3974 131.296 83.3974 110.299C83.3974 104.804 84.5812 99.5775 86.6808 94.8421C88.6018 86.6444 84.2015 78.0669 76.1154 75.0291C67.8731 71.9243 58.7372 75.6099 54.8729 83.3162C52.4605 89.2131 50.8298 95.4675 50.048 101.901C50.0033 102.37 49.9364 102.839 49.8918 103.285C49.8471 103.621 49.8247 103.978 49.8023 104.335C49.7353 105.206 49.6684 106.078 49.6237 106.949C49.6237 106.993 49.6237 107.06 49.6237 107.105C49.579 108.177 49.5566 109.249 49.5566 110.322C49.5566 113.024 49.7129 115.683 50.0033 118.341C50.0033 118.363 50.0033 118.385 50.0033 118.408C50.1373 119.636 50.3159 120.842 50.517 122.049C50.5617 122.317 50.6065 122.585 50.6511 122.83C50.8075 123.769 50.9862 124.684 51.1872 125.623C51.2989 126.092 51.4106 126.561 51.5223 127.03C51.5223 127.097 51.5671 127.186 51.5894 127.253C51.7234 127.856 51.8797 128.437 52.036 129.018C52.2147 129.688 52.4158 130.358 52.6168 131.028C52.7508 131.43 52.8626 131.855 52.9966 132.257C53.2647 133.128 53.5548 133.977 53.8675 134.848C53.9346 135.026 54.0018 135.183 54.0688 135.362C54.4485 136.389 54.8504 137.417 55.2748 138.422C55.9449 139.985 56.6375 141.482 57.397 142.978C57.4863 143.135 57.5533 143.291 57.6426 143.448C58 144.14 58.3574 144.81 58.7371 145.48C58.8935 145.771 59.0721 146.061 59.2285 146.351C59.7646 147.267 60.3006 148.161 60.8591 149.054C61.1941 149.59 61.5517 150.126 61.9091 150.662C62.1772 151.042 62.4228 151.422 62.6908 151.802C64.0534 153.745 65.5276 155.621 67.0912 157.431C67.1359 157.498 67.1807 157.542 67.2477 157.609C67.9625 158.436 68.7219 159.24 69.4814 160.044C69.8611 160.446 70.263 160.826 70.6427 161.228C71.0224 161.608 71.4022 161.987 71.7819 162.345C72.251 162.814 72.7425 163.261 73.2339 163.707C73.5019 163.953 73.7923 164.199 74.0827 164.444C86.9265 175.702 103.612 182.247 121.437 182.247C125.346 182.247 129.211 181.912 133.008 181.287C132.137 181.421 131.266 181.488 130.417 181.488C122.219 181.488 115.004 175.568 113.619 167.214L113.642 167.192Z" fill="white"/>
</svg>
