<svg width="251" height="224" viewBox="0 0 251 224" fill="none" xmlns="http://www.w3.org/2000/svg">
    <path
        d="M0.876619 111.298C7.15334 66.5124 36.281 28.2043 77.7609 10.1783C119.42 -6.82024 166.752 -2.33049 204.479 22.1733C231.127 39.5962 252.482 69.1035 250.717 101.045C248.841 135.378 222.662 160.73 194.606 176.5C171.621 189.389 148.302 208.554 123.44 217.355C52.6095 242.394 -8.05821 183.425 0.876619 111.321"
        fill="#141D44" />
    <path
        d="M190.139 102.319C189.134 87.755 183.751 74.4198 175.374 63.564C179.842 70.7342 178.412 80.2721 171.711 85.767C164.988 91.2843 155.338 90.7705 149.195 84.9629C153.752 91.2396 156.455 98.9459 156.455 107.3C156.455 126.912 141.623 143.039 122.547 145.094C114.439 147.529 109.212 155.637 110.641 164.192C112.026 172.547 119.241 178.466 127.439 178.466C128.288 178.466 129.159 178.399 130.03 178.265C130.455 178.198 130.901 178.108 131.326 178.041C131.929 177.93 132.51 177.818 133.113 177.706C166.44 170.827 190.318 141.699 190.318 107.389C190.318 105.714 190.251 104.016 190.139 102.341V102.319Z"
        fill="#F7CFCE" />
    <path
        d="M73.0921 72.0067C81.2004 75.0669 85.5785 83.622 83.6575 91.8197C89.5768 78.5291 102.912 69.2592 118.392 69.2592C131.035 69.2592 142.247 75.4466 149.15 84.9399C155.292 90.7475 164.942 91.2389 171.666 85.744C178.367 80.2491 179.796 70.7111 175.329 63.5409C174.949 62.9155 174.525 62.3124 174.056 61.7316C160.318 44.9788 140.058 35.3516 118.436 35.3516C113.232 35.3516 108.005 35.9323 102.89 37.0492C97.149 38.3224 91.721 40.2657 86.6059 42.8121C86.4718 42.8792 86.338 42.9462 86.2039 43.0132C85.7795 43.2365 85.355 43.4599 84.9306 43.6833C84.3275 43.996 83.7245 44.3311 83.1438 44.6661C83.0097 44.7331 82.8756 44.8225 82.7416 44.8895C74.9906 49.3569 68.1554 55.2316 62.5935 62.089C62.4595 62.2677 62.3032 62.4464 62.1692 62.6028C61.7895 63.0942 61.4097 63.5856 61.03 64.077C60.7843 64.4121 60.5163 64.7471 60.2706 65.1045C60.0919 65.3502 59.9133 65.596 59.7569 65.8417C56.5851 70.3314 53.9268 75.1786 51.8271 80.2937C55.6915 72.5875 64.8273 68.9018 73.0697 72.0067H73.0921Z"
        fill="#9BCCF4" />
    <path
        d="M110.642 164.192C109.212 155.637 114.461 147.528 122.547 145.094C121.185 145.25 119.822 145.317 118.415 145.317C97.4182 145.317 80.3974 128.296 80.3974 107.299C80.3974 101.804 81.5812 96.5775 83.6808 91.8421C85.6018 83.6444 81.2015 75.0669 73.1154 72.0291C64.8731 68.9243 55.7372 72.6099 51.8729 80.3162C49.4605 86.2131 47.8298 92.4675 47.048 98.9006C47.0033 99.3697 46.9364 99.8388 46.8918 100.285C46.8471 100.621 46.8247 100.978 46.8023 101.335C46.7353 102.206 46.6684 103.078 46.6237 103.949C46.6237 103.993 46.6237 104.06 46.6237 104.105C46.579 105.177 46.5566 106.249 46.5566 107.322C46.5566 110.024 46.7129 112.683 47.0033 115.341C47.0033 115.363 47.0033 115.385 47.0033 115.408C47.1373 116.636 47.3159 117.842 47.517 119.049C47.5617 119.317 47.6065 119.585 47.6511 119.83C47.8075 120.769 47.9862 121.684 48.1872 122.623C48.2989 123.092 48.4106 123.561 48.5223 124.03C48.5223 124.097 48.5671 124.186 48.5894 124.253C48.7234 124.856 48.8797 125.437 49.036 126.018C49.2147 126.688 49.4158 127.358 49.6168 128.028C49.7508 128.43 49.8626 128.855 49.9966 129.257C50.2647 130.128 50.5548 130.977 50.8675 131.848C50.9346 132.026 51.0018 132.183 51.0688 132.362C51.4485 133.389 51.8504 134.417 52.2748 135.422C52.9449 136.985 53.6375 138.482 54.397 139.978C54.4863 140.135 54.5533 140.291 54.6426 140.448C55 141.14 55.3574 141.81 55.7371 142.48C55.8935 142.771 56.0721 143.061 56.2285 143.351C56.7646 144.267 57.3006 145.161 57.8591 146.054C58.1941 146.59 58.5517 147.126 58.9091 147.662C59.1772 148.042 59.4228 148.422 59.6908 148.802C61.0534 150.745 62.5276 152.621 64.0912 154.431C64.1359 154.498 64.1807 154.542 64.2477 154.609C64.9625 155.436 65.7219 156.24 66.4814 157.044C66.8611 157.446 67.263 157.826 67.6427 158.228C68.0224 158.608 68.4022 158.987 68.7819 159.345C69.251 159.814 69.7425 160.261 70.2339 160.707C70.5019 160.953 70.7923 161.199 71.0827 161.444C83.9265 172.702 100.612 179.247 118.437 179.247C122.346 179.247 126.211 178.912 130.008 178.287C129.137 178.421 128.266 178.488 127.417 178.488C119.219 178.488 112.004 172.568 110.619 164.214L110.642 164.192Z"
        fill="white" />
</svg>