<svg width="399" height="258" viewBox="0 0 399 258" fill="none" xmlns="http://www.w3.org/2000/svg">
<path d="M107.611 230.929V256.548H94.4495V235.228C94.652 232.537 94.0803 229.857 92.782 227.498C91.46 225.783 89.3399 224.878 87.1841 225.081C84.9212 224.926 82.7177 225.855 81.2527 227.582C79.7758 229.726 79.0611 232.298 79.2398 234.895V256.548H66.1621V196.353H79.2398V221.114C80.3951 218.863 82.2174 217.017 84.4447 215.826C86.9459 214.54 89.7449 213.897 92.5558 213.98C102.573 213.98 107.587 219.626 107.599 230.917" fill="white"/>
<path d="M121.642 254.845C118.712 252.951 116.377 250.247 114.936 247.067C113.352 243.542 112.578 239.706 112.649 235.847C112.59 231.988 113.411 228.165 115.043 224.664C116.544 221.448 118.926 218.732 121.915 216.838C125 214.921 128.573 213.932 132.206 214.004C134.922 213.956 137.59 214.611 139.984 215.897C142.163 217.065 143.938 218.863 145.081 221.055V215.135H158.064V256.584H145.081V250.736C143.855 252.879 142.032 254.618 139.841 255.738C137.447 257.036 134.755 257.703 132.027 257.667C128.359 257.751 124.75 256.774 121.642 254.833M143.057 243.649C144.819 241.433 145.724 238.658 145.617 235.824C145.712 233.025 144.807 230.273 143.057 228.082C141.246 225.974 138.566 224.83 135.791 224.985C133.087 224.878 130.467 225.986 128.657 227.998C126.811 230.178 125.846 232.965 125.977 235.824C125.858 238.682 126.811 241.493 128.657 243.685C130.455 245.721 133.075 246.841 135.791 246.746C138.566 246.9 141.246 245.757 143.057 243.649Z" fill="white"/>
<path d="M164.399 256.56V215.111H177.477V223.794C178.013 221.055 179.514 218.601 181.705 216.874C183.742 215.278 186.255 214.409 188.84 214.42C189.983 214.397 191.138 214.516 192.258 214.766V226.974C190.948 226.819 189.638 226.736 188.328 226.724C185.219 226.51 182.206 227.808 180.217 230.202C178.18 233.263 177.215 236.907 177.477 240.564V256.56H164.399Z" fill="white"/>
<path d="M200.131 208.144C198.857 206.858 198.154 205.107 198.19 203.296C198.142 201.462 198.845 199.676 200.131 198.366C201.429 197.043 203.216 196.317 205.062 196.376C206.92 196.317 208.731 197.055 210.029 198.389C211.315 199.688 212.03 201.45 211.994 203.285C212.03 205.107 211.327 206.858 210.029 208.144C208.719 209.466 206.92 210.181 205.062 210.133C203.216 210.193 201.418 209.466 200.131 208.144Z" fill="white"/>
<path d="M211.554 256.56H198.571V215.111H211.554V256.56Z" fill="white"/>
<path d="M255.433 256.56H216.902L237.15 226.033H218.867V215.111H256.969L237.067 245.721H255.433V256.56Z" fill="white"/>
<path d="M308.028 256.559V215.111H321.106V221.125C322.261 218.874 324.084 217.028 326.311 215.837C328.824 214.551 331.611 213.92 334.434 214.003C344.45 214.003 349.465 219.648 349.477 230.94V256.571H336.316V235.239C336.518 232.548 335.946 229.868 334.648 227.509C333.326 225.794 331.206 224.889 329.05 225.092C326.787 224.937 324.584 225.866 323.119 227.593C321.642 229.725 320.927 232.309 321.106 234.906V256.571H308.028V256.559Z" fill="white"/>
<path d="M398.619 239.444H368.211C368.176 241.802 369.176 244.065 370.951 245.638C372.928 247.162 375.382 247.924 377.871 247.793C381.908 247.793 384.481 246.555 385.565 244.089H398.381C397.738 248.186 395.32 251.795 391.758 253.939C387.602 256.536 382.778 257.846 377.871 257.679C371.785 258.025 365.817 255.952 361.256 251.914C357.075 247.639 354.884 241.802 355.241 235.835C355.134 231.786 356.075 227.772 357.98 224.187C359.755 220.935 362.459 218.303 365.758 216.624C369.391 214.813 373.404 213.92 377.466 214.003C381.361 213.932 385.208 214.79 388.698 216.493C391.842 218.041 394.486 220.459 396.296 223.46C398.119 226.557 399.06 230.094 398.988 233.691C398.988 235.621 398.881 237.539 398.667 239.456M386.089 231.286C386.196 228.975 385.375 226.712 383.802 225.009C382.04 223.472 379.729 222.698 377.395 222.865C374.977 222.734 372.595 223.556 370.772 225.152C369.117 226.76 368.2 228.987 368.259 231.297H386.101L386.089 231.286Z" fill="white"/>
<path d="M60.9099 224.568C59.8499 207.989 45.6289 195.351 29.0376 196.269C12.4582 197.424 -0.095555 211.728 0.940657 228.32L1.02411 229.713L13.5301 228.856L13.4467 227.498C12.8869 217.827 20.2357 209.501 29.8951 208.858C39.5664 208.346 47.8441 215.742 48.4158 225.414C48.9756 235.097 41.6389 243.422 31.9675 244.065C31.0981 244.113 30.2166 244.101 29.3471 244.018L27.9895 243.899L26.846 256.464L28.2157 256.583C29.1209 256.667 30.0142 256.702 30.9313 256.702C31.5626 256.702 32.1938 256.679 32.8489 256.643C49.4402 255.476 61.9819 241.147 60.9457 224.544" fill="white" fill-opacity="0.1"/>
<path d="M30.6932 257.561C23.404 257.561 16.3412 254.94 10.8028 250.188C3.93042 244.292 -0.0118836 235.693 2.69102e-05 226.641C2.69102e-05 219.316 2.5964 212.217 7.32486 206.619C13.1372 199.723 21.7008 195.745 30.7171 195.745C38.0182 195.745 45.0693 198.365 50.6077 203.118C51.8106 204.154 52.9421 205.274 53.9783 206.476C56.4795 209.395 56.1699 213.778 53.2756 216.303C50.4052 218.804 46.0459 218.506 43.5447 215.636C43.5447 215.624 43.5208 215.612 43.5089 215.6C42.9372 214.933 42.306 214.302 41.6271 213.718C38.5899 211.11 34.719 209.68 30.7171 209.668C25.7623 209.668 21.0578 211.848 17.8658 215.636C15.2693 218.709 13.8519 222.603 13.8519 226.629C13.8519 231.596 16.0196 236.324 19.7833 239.564C22.8205 242.172 26.6913 243.601 30.6932 243.613C35.648 243.613 40.3527 241.422 43.5447 237.634C45.9863 234.728 50.3218 234.347 53.2398 236.789C53.2637 236.801 53.2875 236.824 53.2995 236.848C56.2175 239.349 56.5628 243.744 54.0854 246.674C48.2731 253.571 39.7095 257.549 30.6932 257.549" fill="white"/>
<path d="M280.706 214.54C293.748 214.54 302.586 223.21 302.586 235.633C302.586 248.056 293.748 256.548 280.706 256.548C267.664 256.548 258.731 247.889 258.731 235.633C258.731 223.377 267.569 214.54 280.706 214.54ZM280.706 245.697C286.399 245.697 290.163 241.41 290.163 235.538C290.163 229.666 286.399 225.473 280.706 225.473C275.013 225.473 271.249 229.583 271.249 235.538C271.249 241.493 275.013 245.697 280.706 245.697Z" fill="white"/>
<mask id="path-12-outside-1_2_654" maskUnits="userSpaceOnUse" x="114" y="0" width="171" height="153" fill="black">
<rect fill="white" x="114" width="171" height="153"/>
<path d="M117.577 76.2973C121.711 46.8028 140.893 21.5744 168.211 9.70307C195.646 -1.49158 226.817 1.46522 251.663 17.6026C269.213 29.0767 283.276 48.5092 282.114 69.5452C280.878 92.1551 263.637 108.851 245.161 119.237C230.024 127.725 214.666 140.347 198.294 146.142C151.647 162.633 111.693 123.797 117.577 76.312"/>
</mask>
<path d="M117.577 76.2973C121.711 46.8028 140.893 21.5744 168.211 9.70307C195.646 -1.49158 226.817 1.46522 251.663 17.6026C269.213 29.0767 283.276 48.5092 282.114 69.5452C280.878 92.1551 263.637 108.851 245.161 119.237C230.024 127.725 214.666 140.347 198.294 146.142C151.647 162.633 111.693 123.797 117.577 76.312" fill="#141D44"/>
<path d="M168.211 9.70307L167.283 7.42975L167.258 7.4402L167.232 7.45122L168.211 9.70307ZM251.663 17.6026L253.007 15.5475L253 15.5435L251.663 17.6026ZM282.114 69.5452L279.662 69.4097L279.662 69.4112L282.114 69.5452ZM245.161 119.237L246.362 121.379L246.364 121.377L245.161 119.237ZM198.294 146.142L199.112 148.457L199.113 148.457L198.294 146.142ZM120.009 76.638C124.024 47.9902 142.656 23.4856 169.189 11.9549L167.232 7.45122C139.131 19.6632 119.398 45.6154 115.146 75.9565L120.009 76.638ZM169.138 11.9764C195.828 1.08571 226.154 3.96204 250.326 19.6617L253 15.5435C227.481 -1.03161 195.463 -4.06888 167.283 7.42975L169.138 11.9764ZM250.319 19.6576C267.439 30.8507 280.759 49.5601 279.662 69.4097L284.565 69.6806C285.793 47.4583 270.986 27.3027 253.007 15.5475L250.319 19.6576ZM279.662 69.4112C278.495 90.7626 262.166 106.862 243.958 117.097L246.364 121.377C265.108 110.841 283.261 93.5477 284.565 69.6791L279.662 69.4112ZM243.96 117.095C236.316 121.382 228.535 126.761 220.874 131.627C213.127 136.548 205.387 141.027 197.474 143.828L199.113 148.457C207.573 145.462 215.699 140.732 223.507 135.772C231.403 130.756 238.869 125.58 246.362 121.379L243.96 117.095ZM197.475 143.828C175.01 151.769 154.302 146.382 139.879 133.394C125.417 120.37 117.166 99.5955 120.014 76.6139L115.141 76.01C112.104 100.514 120.888 122.9 136.593 137.043C152.338 151.221 174.931 157.006 199.112 148.457L197.475 143.828Z" fill="white" mask="url(#path-12-outside-1_2_654)"/>
<path d="M242.218 70.3835C241.556 60.7922 238.011 52.0101 232.495 44.8608C235.437 49.5829 234.495 55.8643 230.082 59.483C225.654 63.1165 219.299 62.7782 215.254 58.9534C218.255 63.0871 220.035 68.1622 220.035 73.6639C220.035 86.5797 210.267 97.2006 197.705 98.554C192.365 100.157 188.922 105.497 189.864 111.131C190.776 116.633 195.527 120.531 200.926 120.531C201.485 120.531 202.059 120.487 202.633 120.399C202.912 120.355 203.206 120.296 203.486 120.252C203.883 120.178 204.265 120.105 204.663 120.031C226.611 115.5 242.336 96.318 242.336 73.7227C242.336 72.6194 242.292 71.5015 242.218 70.3982V70.3835Z" fill="#F7CFCE"/>
<path d="M165.135 50.4211C170.475 52.4364 173.358 58.0705 172.093 63.4692C175.992 54.7165 184.774 48.6117 194.968 48.6117C203.294 48.6117 210.679 52.6865 215.224 58.9384C219.27 62.7632 225.625 63.0868 230.052 59.468C234.466 55.8492 235.407 49.5679 232.465 44.8458C232.215 44.4339 231.935 44.0368 231.626 43.6543C222.579 32.6215 209.237 26.2812 194.997 26.2812C191.57 26.2812 188.128 26.6637 184.759 27.3992C180.978 28.2377 177.404 29.5175 174.035 31.1945C173.947 31.2387 173.859 31.2828 173.77 31.3269C173.491 31.474 173.211 31.6211 172.932 31.7682C172.534 31.9742 172.137 32.1948 171.755 32.4155C171.667 32.4596 171.578 32.5185 171.49 32.5626C166.386 35.5047 161.884 39.3735 158.221 43.8897C158.133 44.0073 158.03 44.125 157.942 44.228C157.692 44.5516 157.442 44.8753 157.192 45.1989C157.03 45.4195 156.853 45.6402 156.691 45.8756C156.574 46.0374 156.456 46.1992 156.353 46.361C154.264 49.3178 152.514 52.51 151.131 55.8787C153.676 50.8036 159.692 48.3763 165.121 50.4211H165.135Z" fill="#9BCCF4"/>
<path d="M189.864 111.131C188.923 105.497 192.38 100.157 197.705 98.5535C196.808 98.6564 195.91 98.7006 194.984 98.7006C181.156 98.7006 169.947 87.4912 169.947 73.6634C169.947 70.0446 170.726 66.6024 172.109 63.4838C173.374 58.085 170.476 52.4362 165.151 50.4356C159.723 48.3909 153.706 50.8181 151.161 55.8932C149.573 59.7768 148.499 63.8957 147.984 68.1323C147.954 68.4412 147.91 68.7501 147.881 69.0443C147.851 69.265 147.837 69.5004 147.822 69.7357C147.778 70.3094 147.734 70.8831 147.704 71.4568C147.704 71.4863 147.704 71.5304 147.704 71.5598C147.675 72.2659 147.66 72.972 147.66 73.6781C147.66 75.4581 147.763 77.2086 147.954 78.9592C147.954 78.9739 147.954 78.9886 147.954 79.0033C148.043 79.8124 148.16 80.6067 148.293 81.4011C148.322 81.5776 148.352 81.7542 148.381 81.916C148.484 82.5338 148.602 83.1369 148.734 83.7548C148.808 84.0637 148.881 84.3726 148.955 84.6815C148.955 84.7257 148.984 84.7845 148.999 84.8286C149.087 85.2258 149.19 85.6083 149.293 85.9908C149.411 86.4321 149.543 86.8734 149.675 87.3147C149.764 87.5795 149.837 87.859 149.926 88.1238C150.102 88.6975 150.293 89.2565 150.499 89.8302C150.543 89.9479 150.588 90.0508 150.632 90.1685C150.882 90.8452 151.146 91.5219 151.426 92.1839C151.867 93.2136 152.323 94.1992 152.824 95.1848C152.882 95.2878 152.926 95.3907 152.985 95.4937C153.221 95.9497 153.456 96.391 153.706 96.8324C153.809 97.0236 153.927 97.2148 154.03 97.4061C154.383 98.0092 154.736 98.5976 155.104 99.186C155.324 99.5391 155.56 99.8921 155.795 100.245C155.972 100.495 156.133 100.745 156.31 100.995C157.207 102.275 158.178 103.511 159.208 104.702C159.237 104.747 159.267 104.776 159.311 104.82C159.782 105.364 160.282 105.894 160.782 106.424C161.032 106.688 161.297 106.938 161.547 107.203C161.797 107.453 162.047 107.703 162.297 107.939C162.606 108.248 162.93 108.542 163.253 108.836C163.43 108.998 163.621 109.16 163.812 109.322C172.271 116.736 183.259 121.046 194.998 121.046C197.573 121.046 200.118 120.825 202.618 120.413C202.045 120.501 201.471 120.546 200.912 120.546C195.513 120.546 190.762 116.647 189.85 111.146L189.864 111.131Z" fill="white"/>
</svg>
