<svg width="572" height="127" viewBox="0 0 572 127" fill="none" xmlns="http://www.w3.org/2000/svg">
<path d="M280.468 68.1836V93.803H267.306V72.4832C267.509 69.7915 266.937 67.1116 265.639 64.7533C264.317 63.0382 262.197 62.133 260.041 62.3355C257.778 62.1807 255.575 63.1097 254.11 64.8367C252.633 66.9806 251.918 69.5533 252.097 72.1497V93.803H239.019V33.6074H252.097V58.3693C253.252 56.1182 255.074 54.2721 257.302 53.081C259.803 51.7947 262.602 51.1516 265.413 51.2349C275.429 51.2349 280.444 56.8805 280.456 68.1716" fill="white"/>
<path d="M294.498 92.0996C291.568 90.2058 289.234 87.5021 287.792 84.322C286.208 80.7965 285.434 76.9614 285.506 73.1024C285.446 69.2434 286.268 65.4201 287.9 61.9184C289.4 58.7026 291.782 55.987 294.772 54.0932C297.857 52.1756 301.43 51.187 305.063 51.2585C307.778 51.2109 310.446 51.866 312.84 53.1523C315.02 54.3195 316.794 56.118 317.938 58.3095V52.39H330.92V93.8385H317.938V87.9905C316.711 90.1344 314.889 91.8733 312.697 92.9929C310.303 94.2911 307.611 94.9581 304.884 94.9223C301.215 95.0057 297.607 94.0291 294.498 92.0876M315.913 80.9037C317.676 78.6884 318.581 75.9132 318.474 73.0785C318.569 70.2796 317.664 67.5282 315.913 65.3367C314.103 63.2285 311.423 62.0851 308.648 62.24C305.944 62.1328 303.324 63.2404 301.513 65.2533C299.667 67.4329 298.702 70.22 298.833 73.0785C298.714 75.937 299.667 78.7479 301.513 80.9394C303.312 82.9761 305.932 84.0957 308.648 84.0005C311.423 84.1553 314.103 83.0119 315.913 80.9037Z" fill="white"/>
<path d="M337.256 93.8147V52.3662H350.334V61.0489C350.87 58.3095 352.371 55.8559 354.562 54.1289C356.599 52.5329 359.112 51.6634 361.697 51.6753C362.84 51.6515 363.995 51.7706 365.115 52.0208V64.229C363.805 64.0742 362.495 63.9908 361.185 63.9789C358.076 63.7645 355.063 65.0627 353.074 67.4567C351.037 70.5177 350.072 74.1624 350.334 77.8189V93.8147H337.256Z" fill="white"/>
<path d="M372.988 45.3989C371.713 44.1126 371.01 42.3617 371.046 40.5513C370.999 38.7171 371.701 36.9305 372.988 35.6204C374.286 34.2983 376.072 33.5718 377.919 33.6313C379.777 33.5718 381.587 34.3102 382.885 35.6442C384.172 36.9424 384.886 38.7052 384.851 40.5394C384.886 42.3617 384.184 44.1126 382.885 45.3989C381.575 46.721 379.777 47.4356 377.919 47.3879C376.072 47.4475 374.274 46.721 372.988 45.3989Z" fill="white"/>
<path d="M384.41 93.8147H371.428V52.3662H384.41V93.8147Z" fill="white"/>
<path d="M428.289 93.8147H389.758L410.006 63.2881H391.723V52.3662H429.825L409.923 82.9761H428.289V93.8147Z" fill="white"/>
<path d="M480.885 93.814V52.3655H493.963V58.3803C495.118 56.1292 496.941 54.2831 499.168 53.092C501.681 51.8057 504.468 51.1744 507.291 51.2578C517.307 51.2578 522.322 56.9034 522.334 68.1945V93.8259H509.173V72.4942C509.375 69.8024 508.803 67.1226 507.505 64.7643C506.183 63.0492 504.063 62.144 501.907 62.3465C499.644 62.1917 497.441 63.1206 495.976 64.8477C494.499 66.9796 493.784 69.5642 493.963 72.1607V93.8259H480.885V93.814Z" fill="white"/>
<path d="M571.476 76.6991H541.068C541.033 79.0574 542.033 81.3204 543.808 82.8926C545.785 84.4171 548.238 85.1794 550.728 85.0484C554.765 85.0484 557.338 83.8096 558.422 81.3442H571.238C570.595 85.4414 568.177 89.0502 564.615 91.1941C560.459 93.7906 555.635 95.1008 550.728 94.934C544.641 95.2794 538.674 93.207 534.113 89.1694C529.932 84.8935 527.741 79.0574 528.098 73.0902C527.991 69.0406 528.932 65.0268 530.837 61.4418C532.612 58.1902 535.316 55.558 538.615 53.8786C542.248 52.0682 546.261 51.1749 550.323 51.2583C554.218 51.1868 558.065 52.0444 561.554 53.7476C564.699 55.296 567.343 57.7138 569.153 60.7152C570.976 63.8119 571.917 67.3493 571.845 70.9463C571.845 72.8758 571.738 74.7934 571.524 76.711M558.946 68.5404C559.053 66.2298 558.231 63.9668 556.659 62.2636C554.897 60.7271 552.586 59.9529 550.251 60.1197C547.834 59.9887 545.451 60.8105 543.629 62.4065C541.974 64.0144 541.056 66.2417 541.116 68.5523H558.958L558.946 68.5404Z" fill="white"/>
<path d="M233.766 61.8228C232.706 45.2434 218.485 32.6064 201.894 33.5235C185.315 34.6788 172.761 48.9833 173.797 65.5746L173.881 66.9681L186.387 66.1106L186.303 64.7528C185.743 55.0815 193.092 46.756 202.752 46.1129C212.423 45.6007 220.701 52.9971 221.272 62.6684C221.832 72.3517 214.495 80.6771 204.824 81.3203C203.955 81.3679 203.073 81.356 202.204 81.2726L200.846 81.1535L199.702 93.7191L201.072 93.8382C201.977 93.9215 202.871 93.9573 203.788 93.9573C204.419 93.9573 205.05 93.9335 205.705 93.8977C222.297 92.7305 234.838 78.4022 233.802 61.799" fill="white" fill-opacity="0.1"/>
<path d="M203.55 94.8154C196.26 94.8154 189.198 92.1951 183.659 87.4428C176.787 81.5471 172.845 72.9478 172.856 63.8958C172.856 56.5709 175.453 49.4722 180.181 43.8743C185.994 36.9781 194.557 33 203.574 33C210.875 33 217.926 35.6203 223.464 40.3726C224.667 41.4088 225.799 42.5284 226.835 43.7314C229.336 46.6494 229.026 51.0325 226.132 53.5575C223.262 56.0587 218.902 55.761 216.401 52.8905C216.401 52.8786 216.377 52.8667 216.365 52.8548C215.794 52.1878 215.162 51.5565 214.484 50.9729C211.446 48.3645 207.575 46.9353 203.574 46.9234C198.619 46.9234 193.914 49.103 190.722 52.8905C188.126 55.9634 186.708 59.8581 186.708 63.8839C186.708 68.8506 188.876 73.579 192.64 76.8187C195.677 79.4271 199.548 80.8563 203.55 80.8682C208.504 80.8682 213.209 78.6767 216.401 74.8892C218.843 71.983 223.178 71.6019 226.096 74.0435C226.12 74.0554 226.144 74.0793 226.156 74.1031C229.074 76.6043 229.419 80.9993 226.942 83.9292C221.13 90.8254 212.566 94.8035 203.55 94.8035" fill="white"/>
<path d="M453.562 51.7944C466.604 51.7944 475.442 60.4653 475.442 72.8879C475.442 85.3105 466.604 93.8027 453.562 93.8027C440.52 93.8027 431.587 85.1438 431.587 72.8879C431.587 60.632 440.425 51.7944 453.562 51.7944ZM453.562 82.9523C459.255 82.9523 463.019 78.6645 463.019 72.7926C463.019 66.9208 459.255 62.7283 453.562 62.7283C447.869 62.7283 444.105 66.8374 444.105 72.7926C444.105 78.7479 447.869 82.9523 453.562 82.9523Z" fill="white"/>
<mask id="path-12-outside-1_2_696" maskUnits="userSpaceOnUse" x="0" y="0" width="142" height="127" fill="black">
<rect fill="white" width="142" height="127"/>
<path d="M2.48266 63.2802C5.93859 38.6214 21.9761 17.5291 44.8148 7.6041C67.7518 -1.75519 93.8127 0.716843 114.585 14.2085C129.257 23.8015 141.015 40.048 140.043 57.6351C139.01 76.5382 124.596 90.4972 109.149 99.18C96.4939 106.276 83.6541 116.829 69.9656 121.674C30.9665 135.461 -2.43681 102.993 2.48266 63.2925"/>
</mask>
<path d="M2.48266 63.2802C5.93859 38.6214 21.9761 17.5291 44.8148 7.6041C67.7518 -1.75519 93.8127 0.716843 114.585 14.2085C129.257 23.8015 141.015 40.048 140.043 57.6351C139.01 76.5382 124.596 90.4972 109.149 99.18C96.4939 106.276 83.6541 116.829 69.9656 121.674C30.9665 135.461 -2.43681 102.993 2.48266 63.2925" fill="#141D44"/>
<path d="M44.8148 7.6041L44.1697 6.02333L44.1519 6.0306L44.1343 6.03826L44.8148 7.6041ZM114.585 14.2085L115.519 12.7795L115.515 12.7767L114.585 14.2085ZM140.043 57.6351L138.339 57.5409L138.339 57.5419L140.043 57.6351ZM109.149 99.18L109.984 100.669L109.986 100.668L109.149 99.18ZM69.9656 121.674L70.5347 123.284L70.5354 123.284L69.9656 121.674ZM4.17344 63.5172C7.54686 39.447 23.2016 18.8581 45.4952 9.16994L44.1343 6.03826C20.7506 16.2001 4.33032 37.7957 0.791879 63.0432L4.17344 63.5172ZM45.4598 9.18487C67.8788 0.0369576 93.3513 2.45304 113.655 15.6403L115.515 12.7767C94.274 -1.01935 67.6248 -3.54734 44.1697 6.02333L45.4598 9.18487ZM113.651 15.6375C128.024 25.035 139.265 40.7788 138.339 57.5409L141.748 57.7293C142.765 39.3172 130.491 22.5679 115.519 12.7795L113.651 15.6375ZM138.339 57.5419C137.353 75.5699 123.573 89.1136 108.313 97.6917L109.986 100.668C125.619 91.8807 140.667 77.5065 141.748 57.7283L138.339 57.5419ZM108.314 97.6909C101.934 101.269 95.4506 105.751 89.0294 109.83C82.5476 113.947 76.0497 117.709 69.3959 120.065L70.5354 123.284C77.57 120.794 84.3363 116.857 90.8603 112.712C97.4449 108.53 103.709 104.188 109.984 100.669L108.314 97.6909ZM69.3966 120.065C50.4937 126.747 33.0484 122.215 20.8972 111.272C8.71863 100.305 1.78285 82.8233 4.17701 63.5025L0.788314 63.0825C-1.737 83.4618 5.56917 102.064 18.6122 113.81C31.6825 125.58 50.4384 130.388 70.5347 123.284L69.3966 120.065Z" fill="white" mask="url(#path-12-outside-1_2_696)"/>
<path d="M106.69 58.3358C106.136 50.317 103.172 42.9747 98.5602 36.9976C101.02 40.9454 100.233 46.197 96.5432 49.2224C92.8413 52.2602 87.5282 51.9773 84.1461 48.7797C86.655 52.2356 88.1431 56.4787 88.1431 61.0784C88.1431 71.8766 79.9769 80.7562 69.4738 81.8877C65.0094 83.2283 62.1314 87.6927 62.9185 92.4031C63.6811 97.0028 67.6536 100.262 72.1672 100.262C72.6345 100.262 73.1142 100.225 73.5939 100.151C73.8275 100.114 74.0735 100.065 74.3071 100.028C74.6392 99.9668 74.959 99.9053 75.2911 99.8438C93.6407 96.0558 106.788 80.0183 106.788 61.1276C106.788 60.2052 106.751 59.2705 106.69 58.3481V58.3358Z" fill="#F7CFCE"/>
<path d="M42.2445 41.6465C46.7089 43.3314 49.1194 48.0418 48.0617 52.5554C51.3209 45.2377 58.6633 40.1337 67.1862 40.1337C74.1473 40.1337 80.3211 43.5405 84.1214 48.7674C87.5035 51.9651 92.8167 52.2356 96.5186 49.2102C100.208 46.1847 100.995 40.9332 98.5356 36.9853C98.3265 36.6409 98.0927 36.3089 97.8344 35.9891C90.2708 26.7651 79.1158 21.4644 67.2107 21.4644C64.3451 21.4644 61.4673 21.7841 58.6509 22.3991C55.4901 23.1001 52.5015 24.1701 49.6851 25.5721C49.6113 25.609 49.5376 25.6459 49.4638 25.6828C49.2301 25.8058 48.9964 25.9288 48.7627 26.0518C48.4306 26.2239 48.0987 26.4084 47.7789 26.5929C47.7051 26.6298 47.6312 26.679 47.5575 26.7159C43.2898 29.1756 39.5264 32.4102 36.464 36.1859C36.3902 36.2843 36.3042 36.3826 36.2304 36.4687C36.0213 36.7393 35.8123 37.0099 35.6032 37.2805C35.4679 37.4649 35.3204 37.6494 35.1851 37.8462C35.0867 37.9815 34.9883 38.1168 34.9022 38.252C33.1558 40.7241 31.6922 43.3929 30.5361 46.2093C32.6638 41.9662 37.694 39.937 42.2322 41.6465H42.2445Z" fill="#9BCCF4"/>
<path d="M62.9186 92.4029C62.1315 87.6925 65.0218 83.2281 69.4739 81.8876C68.7237 81.9737 67.9735 82.0106 67.1987 82.0106C55.6379 82.0106 46.2663 72.639 46.2663 61.0782C46.2663 58.0527 46.9181 55.1748 48.0742 52.5675C49.1319 48.0539 46.7091 43.3312 42.2569 41.6586C37.7187 39.9491 32.6886 41.9784 30.5609 46.2214C29.2326 49.4683 28.3348 52.9119 27.9043 56.4539C27.8797 56.7122 27.8429 56.9705 27.8183 57.2164C27.7937 57.4009 27.7814 57.5977 27.7691 57.7945C27.7322 58.2741 27.6953 58.7538 27.6707 59.2334C27.6707 59.258 27.6707 59.2949 27.6707 59.3195C27.6461 59.9098 27.6338 60.5002 27.6338 61.0905C27.6338 62.5787 27.7198 64.0422 27.8797 65.5057C27.8797 65.518 27.8797 65.5303 27.8797 65.5426C27.9535 66.2191 28.0519 66.8832 28.1625 67.5473C28.1871 67.6949 28.2118 67.8425 28.2364 67.9778C28.3225 68.4943 28.4209 68.9986 28.5316 69.5151C28.5931 69.7734 28.6546 70.0317 28.7161 70.2899C28.7161 70.3268 28.7407 70.376 28.753 70.4129C28.8268 70.745 28.9128 71.0647 28.9989 71.3845C29.0973 71.7535 29.208 72.1224 29.3187 72.4914C29.3925 72.7128 29.454 72.9464 29.5278 73.1678C29.6754 73.6475 29.8352 74.1148 30.0073 74.5945C30.0442 74.6928 30.0812 74.7789 30.1181 74.8773C30.3272 75.4431 30.5485 76.0088 30.7822 76.5622C31.1511 77.4232 31.5325 78.2472 31.9506 79.0712C31.9998 79.1573 32.0367 79.2434 32.0859 79.3294C32.2827 79.7107 32.4794 80.0797 32.6885 80.4486C32.7746 80.6085 32.873 80.7684 32.9591 80.9283C33.2542 81.4325 33.5494 81.9245 33.8568 82.4164C34.0413 82.7116 34.2382 83.0067 34.435 83.3019C34.5826 83.511 34.7178 83.7201 34.8654 83.9291C35.6156 84.9991 36.4273 86.0322 37.2882 87.0284C37.3128 87.0653 37.3375 87.0899 37.3744 87.1268C37.768 87.5819 38.1861 88.0246 38.6043 88.4674C38.8133 88.6887 39.0346 88.8978 39.2437 89.1192C39.4527 89.3283 39.6618 89.5373 39.8709 89.7341C40.1292 89.9924 40.3998 90.2384 40.6704 90.4843C40.8179 90.6196 40.9778 90.7549 41.1377 90.8902C48.2094 97.0887 57.3965 100.692 67.2108 100.692C69.3631 100.692 71.4908 100.508 73.5816 100.163C73.102 100.237 72.6223 100.274 72.1549 100.274C67.6413 100.274 63.6688 97.0149 62.9063 92.4152L62.9186 92.4029Z" fill="white"/>
</svg>
