<svg width="570" height="123" viewBox="0 0 570 123" fill="none" xmlns="http://www.w3.org/2000/svg">
    <path
        d="M278.468 66.1836V91.803H265.306V70.4832C265.509 67.7915 264.937 65.1116 263.639 62.7533C262.317 61.0382 260.197 60.133 258.041 60.3355C255.778 60.1807 253.575 61.1097 252.11 62.8367C250.633 64.9806 249.918 67.5533 250.097 70.1497V91.803H237.019V31.6074H250.097V56.3693C251.252 54.1182 253.074 52.2721 255.302 51.081C257.803 49.7947 260.602 49.1516 263.413 49.2349C273.429 49.2349 278.444 54.8805 278.456 66.1716"
        fill="#141D44" />
    <path
        d="M292.498 90.0996C289.568 88.2058 287.234 85.5021 285.792 82.322C284.208 78.7965 283.434 74.9614 283.506 71.1024C283.446 67.2434 284.268 63.4201 285.9 59.9184C287.4 56.7026 289.782 53.987 292.772 52.0932C295.857 50.1756 299.43 49.187 303.063 49.2585C305.778 49.2109 308.446 49.866 310.84 51.1523C313.02 52.3195 314.794 54.118 315.938 56.3095V50.39H328.92V91.8385H315.938V85.9905C314.711 88.1344 312.889 89.8733 310.697 90.9929C308.303 92.2911 305.611 92.9581 302.884 92.9223C299.215 93.0057 295.607 92.0291 292.498 90.0876M313.913 78.9037C315.676 76.6884 316.581 73.9132 316.474 71.0785C316.569 68.2796 315.664 65.5282 313.913 63.3367C312.103 61.2285 309.423 60.0851 306.648 60.24C303.944 60.1328 301.324 61.2404 299.513 63.2533C297.667 65.4329 296.702 68.22 296.833 71.0785C296.714 73.937 297.667 76.7479 299.513 78.9394C301.312 80.9761 303.932 82.0957 306.648 82.0005C309.423 82.1553 312.103 81.0119 313.913 78.9037Z"
        fill="#141D44" />
    <path
        d="M335.256 91.8147V50.3662H348.334V59.0489C348.87 56.3095 350.371 53.8559 352.562 52.1289C354.599 50.5329 357.112 49.6634 359.697 49.6753C360.84 49.6515 361.995 49.7706 363.115 50.0208V62.229C361.805 62.0742 360.495 61.9908 359.185 61.9789C356.076 61.7645 353.063 63.0627 351.074 65.4567C349.037 68.5177 348.072 72.1624 348.334 75.8189V91.8147H335.256Z"
        fill="#141D44" />
    <path
        d="M370.988 43.3989C369.713 42.1126 369.01 40.3617 369.046 38.5513C368.999 36.7171 369.701 34.9305 370.988 33.6204C372.286 32.2983 374.072 31.5718 375.919 31.6313C377.777 31.5718 379.587 32.3102 380.885 33.6442C382.172 34.9424 382.886 36.7052 382.851 38.5394C382.886 40.3617 382.184 42.1126 380.885 43.3989C379.575 44.721 377.777 45.4356 375.919 45.3879C374.072 45.4475 372.274 44.721 370.988 43.3989Z"
        fill="#141D44" />
    <path d="M382.41 91.8147H369.428V50.3662H382.41V91.8147Z" fill="#141D44" />
    <path d="M426.289 91.8147H387.758L408.006 61.2881H389.723V50.3662H427.825L407.923 80.9761H426.289V91.8147Z"
        fill="#141D44" />
    <path
        d="M478.885 91.814V50.3655H491.963V56.3803C493.118 54.1292 494.941 52.2831 497.168 51.092C499.681 49.8057 502.468 49.1744 505.291 49.2578C515.307 49.2578 520.322 54.9034 520.334 66.1945V91.8259H507.173V70.4942C507.375 67.8024 506.803 65.1226 505.505 62.7643C504.183 61.0492 502.063 60.144 499.907 60.3465C497.644 60.1917 495.441 61.1206 493.976 62.8477C492.499 64.9796 491.784 67.5642 491.963 70.1607V91.8259H478.885V91.814Z"
        fill="#141D44" />
    <path
        d="M569.476 74.6991H539.068C539.033 77.0574 540.033 79.3204 541.808 80.8926C543.785 82.4171 546.238 83.1794 548.728 83.0484C552.765 83.0484 555.338 81.8096 556.422 79.3442H569.238C568.595 83.4414 566.177 87.0502 562.615 89.1941C558.459 91.7906 553.635 93.1008 548.728 92.934C542.641 93.2794 536.674 91.207 532.113 87.1694C527.932 82.8935 525.741 77.0574 526.098 71.0902C525.991 67.0406 526.932 63.0268 528.837 59.4418C530.612 56.1902 533.316 53.558 536.615 51.8786C540.248 50.0682 544.261 49.1749 548.323 49.2583C552.218 49.1868 556.065 50.0444 559.554 51.7476C562.699 53.296 565.343 55.7138 567.153 58.7152C568.976 61.8119 569.917 65.3493 569.845 68.9463C569.845 70.8758 569.738 72.7934 569.524 74.711M556.946 66.5404C557.053 64.2298 556.231 61.9668 554.659 60.2636C552.897 58.7271 550.586 57.9529 548.251 58.1197C545.834 57.9887 543.451 58.8105 541.629 60.4065C539.974 62.0144 539.056 64.2417 539.116 66.5523H556.958L556.946 66.5404Z"
        fill="#141D44" />
    <path
        d="M231.766 59.8228C230.706 43.2434 216.485 30.6064 199.894 31.5235C183.315 32.6788 170.761 46.9833 171.797 63.5746L171.881 64.9681L184.387 64.1106L184.303 62.7528C183.743 53.0815 191.092 44.756 200.752 44.1129C210.423 43.6007 218.701 50.9971 219.272 60.6684C219.832 70.3517 212.495 78.6771 202.824 79.3203C201.955 79.3679 201.073 79.356 200.204 79.2726L198.846 79.1535L197.702 91.7191L199.072 91.8382C199.977 91.9215 200.871 91.9573 201.788 91.9573C202.419 91.9573 203.05 91.9335 203.705 91.8977C220.297 90.7305 232.838 76.4022 231.802 59.799"
        fill="#141D44" fill-opacity="0.1" />
    <path
        d="M201.55 92.8154C194.26 92.8154 187.198 90.1951 181.659 85.4428C174.787 79.5471 170.845 70.9478 170.856 61.8958C170.856 54.5709 173.453 47.4722 178.181 41.8743C183.994 34.9781 192.557 31 201.574 31C208.875 31 215.926 33.6203 221.464 38.3726C222.667 39.4088 223.799 40.5284 224.835 41.7314C227.336 44.6494 227.026 49.0325 224.132 51.5575C221.262 54.0587 216.902 53.761 214.401 50.8905C214.401 50.8786 214.377 50.8667 214.365 50.8548C213.794 50.1878 213.162 49.5565 212.484 48.9729C209.446 46.3645 205.575 44.9353 201.574 44.9234C196.619 44.9234 191.914 47.103 188.722 50.8905C186.126 53.9634 184.708 57.8581 184.708 61.8839C184.708 66.8506 186.876 71.579 190.64 74.8187C193.677 77.4271 197.548 78.8563 201.55 78.8682C206.504 78.8682 211.209 76.6767 214.401 72.8892C216.843 69.983 221.178 69.6019 224.096 72.0435C224.12 72.0554 224.144 72.0793 224.156 72.1031C227.074 74.6043 227.419 78.9993 224.942 81.9292C219.13 88.8254 210.566 92.8035 201.55 92.8035"
        fill="#141D44" />
    <path
        d="M451.562 49.7944C464.604 49.7944 473.442 58.4653 473.442 70.8879C473.442 83.3105 464.604 91.8027 451.562 91.8027C438.52 91.8027 429.587 83.1438 429.587 70.8879C429.587 58.632 438.425 49.7944 451.562 49.7944ZM451.562 80.9523C457.255 80.9523 461.019 76.6645 461.019 70.7926C461.019 64.9208 457.255 60.7283 451.562 60.7283C445.869 60.7283 442.105 64.8374 442.105 70.7926C442.105 76.7479 445.869 80.9523 451.562 80.9523Z"
        fill="#141D44" />
    <path
        d="M0.482662 61.2802C3.93859 36.6214 19.9761 15.5291 42.8148 5.6041C65.7518 -3.75519 91.8127 -1.28316 112.585 12.2085C127.257 21.8015 139.015 38.048 138.043 55.6351C137.01 74.5382 122.596 88.4972 107.149 97.18C94.4939 104.276 81.6541 114.829 67.9656 119.674C28.9665 133.461 -4.43681 100.993 0.482662 61.2925"
        fill="#141D44" />
    <path
        d="M104.69 56.3358C104.136 48.317 101.172 40.9747 96.5602 34.9976C99.02 38.9454 98.2328 44.197 94.5432 47.2224C90.8413 50.2602 85.5282 49.9773 82.1461 46.7797C84.655 50.2356 86.1431 54.4787 86.1431 59.0784C86.1431 69.8766 77.9769 78.7562 67.4738 79.8877C63.0094 81.2283 60.1314 85.6927 60.9185 90.4031C61.6811 95.0028 65.6536 98.2619 70.1672 98.2619C70.6345 98.2619 71.1142 98.225 71.5939 98.1513C71.8275 98.1144 72.0735 98.0652 72.3071 98.0283C72.6392 97.9668 72.959 97.9053 73.2911 97.8438C91.6407 94.0558 104.788 78.0183 104.788 59.1276C104.788 58.2052 104.751 57.2705 104.69 56.3481V56.3358Z"
        fill="#F7CFCE" />
    <path
        d="M40.2445 39.6465C44.7089 41.3314 47.1194 46.0418 46.0617 50.5554C49.3209 43.2377 56.6633 38.1337 65.1862 38.1337C72.1473 38.1337 78.3211 41.5405 82.1214 46.7674C85.5035 49.9651 90.8167 50.2356 94.5186 47.2102C98.2082 44.1847 98.9953 38.9332 96.5356 34.9853C96.3265 34.6409 96.0927 34.3089 95.8344 33.9891C88.2708 24.7651 77.1158 19.4644 65.2107 19.4644C62.3451 19.4644 59.4673 19.7841 56.6509 20.3991C53.4901 21.1001 50.5015 22.1701 47.6851 23.5721C47.6113 23.609 47.5376 23.6459 47.4638 23.6828C47.2301 23.8058 46.9964 23.9288 46.7627 24.0518C46.4306 24.2239 46.0987 24.4084 45.7789 24.5929C45.7051 24.6298 45.6312 24.679 45.5575 24.7159C41.2898 27.1756 37.5264 30.4102 34.464 34.1859C34.3902 34.2843 34.3042 34.3826 34.2304 34.4687C34.0213 34.7393 33.8123 35.0099 33.6032 35.2805C33.4679 35.4649 33.3204 35.6494 33.1851 35.8462C33.0867 35.9815 32.9883 36.1168 32.9022 36.252C31.1558 38.7241 29.6922 41.3929 28.5361 44.2093C30.6638 39.9662 35.694 37.937 40.2322 39.6465H40.2445Z"
        fill="#9BCCF4" />
    <path
        d="M60.9186 90.4029C60.1315 85.6925 63.0218 81.2281 67.4739 79.8876C66.7237 79.9737 65.9735 80.0106 65.1987 80.0106C53.6379 80.0106 44.2663 70.639 44.2663 59.0782C44.2663 56.0527 44.9181 53.1748 46.0742 50.5675C47.1319 46.0539 44.7091 41.3312 40.2569 39.6586C35.7187 37.9491 30.6886 39.9784 28.5609 44.2214C27.2326 47.4683 26.3348 50.9119 25.9043 54.4539C25.8797 54.7122 25.8429 54.9705 25.8183 55.2164C25.7937 55.4009 25.7814 55.5977 25.7691 55.7945C25.7322 56.2741 25.6953 56.7538 25.6707 57.2334C25.6707 57.258 25.6707 57.2949 25.6707 57.3195C25.6461 57.9098 25.6338 58.5002 25.6338 59.0905C25.6338 60.5787 25.7198 62.0422 25.8797 63.5057C25.8797 63.518 25.8797 63.5303 25.8797 63.5426C25.9535 64.2191 26.0519 64.8832 26.1625 65.5473C26.1871 65.6949 26.2118 65.8425 26.2364 65.9778C26.3225 66.4943 26.4209 66.9986 26.5316 67.5151C26.5931 67.7734 26.6546 68.0317 26.7161 68.2899C26.7161 68.3268 26.7407 68.376 26.753 68.4129C26.8268 68.745 26.9128 69.0647 26.9989 69.3845C27.0973 69.7535 27.208 70.1224 27.3187 70.4914C27.3925 70.7128 27.454 70.9464 27.5278 71.1678C27.6754 71.6475 27.8352 72.1148 28.0073 72.5945C28.0442 72.6928 28.0812 72.7789 28.1181 72.8773C28.3272 73.4431 28.5485 74.0088 28.7822 74.5622C29.1511 75.4232 29.5325 76.2472 29.9506 77.0712C29.9998 77.1573 30.0367 77.2434 30.0859 77.3294C30.2827 77.7107 30.4794 78.0797 30.6885 78.4486C30.7746 78.6085 30.873 78.7684 30.9591 78.9283C31.2542 79.4325 31.5494 79.9245 31.8568 80.4164C32.0413 80.7116 32.2382 81.0067 32.435 81.3019C32.5826 81.511 32.7178 81.7201 32.8654 81.9291C33.6156 82.9991 34.4273 84.0322 35.2882 85.0284C35.3128 85.0653 35.3375 85.0899 35.3744 85.1268C35.768 85.5819 36.1861 86.0246 36.6043 86.4674C36.8133 86.6887 37.0346 86.8978 37.2437 87.1192C37.4527 87.3283 37.6618 87.5373 37.8709 87.7341C38.1292 87.9924 38.3998 88.2384 38.6704 88.4843C38.8179 88.6196 38.9778 88.7549 39.1377 88.8902C46.2094 95.0887 55.3965 98.6922 65.2108 98.6922C67.3631 98.6922 69.4908 98.5078 71.5816 98.1634C71.102 98.2372 70.6223 98.2741 70.1549 98.2741C65.6413 98.2741 61.6688 95.0149 60.9063 90.4152L60.9186 90.4029Z"
        fill="white" />
</svg>