<svg width="399" height="255" viewBox="0 0 399 255" fill="none" xmlns="http://www.w3.org/2000/svg">
    <path
        d="M107.611 227.929V253.548H94.4495V232.228C94.652 229.537 94.0803 226.857 92.782 224.498C91.46 222.783 89.3399 221.878 87.1841 222.081C84.9212 221.926 82.7177 222.855 81.2527 224.582C79.7758 226.726 79.0611 229.298 79.2398 231.895V253.548H66.1621V193.353H79.2398V218.114C80.3951 215.863 82.2174 214.017 84.4447 212.826C86.9459 211.54 89.7449 210.897 92.5558 210.98C102.573 210.98 107.587 216.626 107.599 227.917"
        fill="#141D44" />
    <path
        d="M121.642 251.845C118.712 249.951 116.377 247.247 114.936 244.067C113.352 240.542 112.578 236.706 112.649 232.847C112.59 228.988 113.411 225.165 115.043 221.664C116.544 218.448 118.926 215.732 121.915 213.838C125 211.921 128.573 210.932 132.206 211.004C134.922 210.956 137.59 211.611 139.984 212.897C142.163 214.065 143.938 215.863 145.081 218.055V212.135H158.064V253.584H145.081V247.736C143.855 249.879 142.032 251.618 139.841 252.738C137.447 254.036 134.755 254.703 132.027 254.667C128.359 254.751 124.75 253.774 121.642 251.833M143.057 240.649C144.819 238.433 145.724 235.658 145.617 232.824C145.712 230.025 144.807 227.273 143.057 225.082C141.246 222.974 138.566 221.83 135.791 221.985C133.087 221.878 130.467 222.986 128.657 224.998C126.811 227.178 125.846 229.965 125.977 232.824C125.858 235.682 126.811 238.493 128.657 240.685C130.455 242.721 133.075 243.841 135.791 243.746C138.566 243.9 141.246 242.757 143.057 240.649Z"
        fill="#141D44" />
    <path
        d="M164.399 253.56V212.111H177.477V220.794C178.013 218.055 179.514 215.601 181.705 213.874C183.742 212.278 186.255 211.409 188.84 211.42C189.983 211.397 191.138 211.516 192.258 211.766V223.974C190.948 223.819 189.638 223.736 188.328 223.724C185.219 223.51 182.206 224.808 180.217 227.202C178.18 230.263 177.215 233.907 177.477 237.564V253.56H164.399Z"
        fill="#141D44" />
    <path
        d="M200.131 205.144C198.857 203.858 198.154 202.107 198.19 200.296C198.142 198.462 198.845 196.676 200.131 195.366C201.429 194.043 203.216 193.317 205.062 193.376C206.92 193.317 208.731 194.055 210.029 195.389C211.315 196.688 212.03 198.45 211.994 200.285C212.03 202.107 211.327 203.858 210.029 205.144C208.719 206.466 206.92 207.181 205.062 207.133C203.216 207.193 201.418 206.466 200.131 205.144Z"
        fill="#141D44" />
    <path d="M211.554 253.56H198.571V212.111H211.554V253.56Z" fill="#141D44" />
    <path d="M255.433 253.56H216.902L237.15 223.033H218.867V212.111H256.969L237.067 242.721H255.433V253.56Z"
        fill="#141D44" />
    <path
        d="M308.028 253.559V212.111H321.106V218.125C322.261 215.874 324.084 214.028 326.311 212.837C328.824 211.551 331.611 210.92 334.434 211.003C344.45 211.003 349.465 216.648 349.477 227.94V253.571H336.316V232.239C336.518 229.548 335.946 226.868 334.648 224.509C333.326 222.794 331.206 221.889 329.05 222.092C326.787 221.937 324.584 222.866 323.119 224.593C321.642 226.725 320.927 229.309 321.106 231.906V253.571H308.028V253.559Z"
        fill="#141D44" />
    <path
        d="M398.619 236.444H368.211C368.176 238.802 369.176 241.065 370.951 242.638C372.928 244.162 375.382 244.924 377.871 244.793C381.908 244.793 384.481 243.555 385.565 241.089H398.381C397.738 245.186 395.32 248.795 391.758 250.939C387.602 253.536 382.778 254.846 377.871 254.679C371.785 255.025 365.817 252.952 361.256 248.914C357.075 244.639 354.884 238.802 355.241 232.835C355.134 228.786 356.075 224.772 357.98 221.187C359.755 217.935 362.459 215.303 365.758 213.624C369.391 211.813 373.404 210.92 377.466 211.003C381.361 210.932 385.208 211.79 388.698 213.493C391.842 215.041 394.486 217.459 396.296 220.46C398.119 223.557 399.06 227.094 398.988 230.691C398.988 232.621 398.881 234.539 398.667 236.456M386.089 228.286C386.196 225.975 385.375 223.712 383.802 222.009C382.04 220.472 379.729 219.698 377.395 219.865C374.977 219.734 372.595 220.556 370.772 222.152C369.117 223.76 368.2 225.987 368.259 228.297H386.101L386.089 228.286Z"
        fill="#141D44" />
    <path
        d="M60.9099 221.568C59.8499 204.989 45.6289 192.351 29.0376 193.269C12.4582 194.424 -0.095555 208.728 0.940657 225.32L1.02411 226.713L13.5301 225.856L13.4467 224.498C12.8869 214.827 20.2357 206.501 29.8951 205.858C39.5664 205.346 47.8441 212.742 48.4158 222.414C48.9756 232.097 41.6389 240.422 31.9675 241.065C31.0981 241.113 30.2166 241.101 29.3471 241.018L27.9895 240.899L26.846 253.464L28.2157 253.583C29.1209 253.667 30.0142 253.702 30.9313 253.702C31.5626 253.702 32.1938 253.679 32.8489 253.643C49.4402 252.476 61.9819 238.147 60.9457 221.544"
        fill="#141D44" fill-opacity="0.1" />
    <path
        d="M30.6932 254.561C23.404 254.561 16.3412 251.94 10.8028 247.188C3.93042 241.292 -0.0118836 232.693 2.69102e-05 223.641C2.69102e-05 216.316 2.5964 209.217 7.32486 203.619C13.1372 196.723 21.7008 192.745 30.7171 192.745C38.0182 192.745 45.0693 195.365 50.6077 200.118C51.8106 201.154 52.9421 202.274 53.9783 203.476C56.4795 206.395 56.1699 210.778 53.2756 213.303C50.4052 215.804 46.0459 215.506 43.5447 212.636C43.5447 212.624 43.5208 212.612 43.5089 212.6C42.9372 211.933 42.306 211.302 41.6271 210.718C38.5899 208.11 34.719 206.68 30.7171 206.668C25.7623 206.668 21.0578 208.848 17.8658 212.636C15.2693 215.709 13.8519 219.603 13.8519 223.629C13.8519 228.596 16.0196 233.324 19.7833 236.564C22.8205 239.172 26.6913 240.601 30.6932 240.613C35.648 240.613 40.3527 238.422 43.5447 234.634C45.9863 231.728 50.3218 231.347 53.2398 233.789C53.2637 233.801 53.2875 233.824 53.2995 233.848C56.2175 236.349 56.5628 240.744 54.0854 243.674C48.2731 250.571 39.7095 254.549 30.6932 254.549"
        fill="#141D44" />
    <path
        d="M280.706 211.54C293.748 211.54 302.586 220.21 302.586 232.633C302.586 245.056 293.748 253.548 280.706 253.548C267.664 253.548 258.731 244.889 258.731 232.633C258.731 220.377 267.569 211.54 280.706 211.54ZM280.706 242.697C286.399 242.697 290.163 238.41 290.163 232.538C290.163 226.666 286.399 222.473 280.706 222.473C275.013 222.473 271.249 226.583 271.249 232.538C271.249 238.493 275.013 242.697 280.706 242.697Z"
        fill="#141D44" />
    <path
        d="M117.577 73.2973C121.711 43.8028 140.893 18.5744 168.211 6.70307C195.646 -4.49158 226.817 -1.53478 251.663 14.6026C269.213 26.0767 283.276 45.5092 282.114 66.5452C280.878 89.1551 263.637 105.851 245.161 116.237C230.024 124.725 214.666 137.347 198.294 143.142C151.647 159.633 111.693 120.797 117.577 73.312"
        fill="#141D44" />
    <path
        d="M242.218 67.3835C241.556 57.7922 238.011 49.0101 232.495 41.8608C235.437 46.5829 234.495 52.8643 230.082 56.483C225.654 60.1165 219.299 59.7782 215.254 55.9534C218.255 60.0871 220.035 65.1622 220.035 70.6639C220.035 83.5797 210.267 94.2006 197.705 95.554C192.365 97.1574 188.922 102.497 189.864 108.131C190.776 113.633 195.527 117.531 200.926 117.531C201.485 117.531 202.059 117.487 202.633 117.399C202.912 117.355 203.206 117.296 203.486 117.252C203.883 117.178 204.265 117.105 204.663 117.031C226.611 112.5 242.336 93.318 242.336 70.7227C242.336 69.6194 242.292 68.5015 242.218 67.3982V67.3835Z"
        fill="#F7CFCE" />
    <path
        d="M165.135 47.4211C170.475 49.4364 173.358 55.0705 172.093 60.4692C175.992 51.7165 184.774 45.6117 194.968 45.6117C203.294 45.6117 210.679 49.6865 215.224 55.9384C219.27 59.7632 225.625 60.0868 230.052 56.468C234.466 52.8492 235.407 46.5679 232.465 41.8458C232.215 41.4339 231.935 41.0368 231.626 40.6543C222.579 29.6215 209.237 23.2812 194.997 23.2812C191.57 23.2812 188.128 23.6637 184.759 24.3992C180.978 25.2377 177.404 26.5175 174.035 28.1945C173.947 28.2387 173.859 28.2828 173.77 28.3269C173.491 28.474 173.211 28.6211 172.932 28.7682C172.534 28.9742 172.137 29.1948 171.755 29.4155C171.667 29.4596 171.578 29.5185 171.49 29.5626C166.386 32.5047 161.884 36.3735 158.221 40.8897C158.133 41.0073 158.03 41.125 157.942 41.228C157.692 41.5516 157.442 41.8753 157.192 42.1989C157.03 42.4195 156.853 42.6402 156.691 42.8756C156.574 43.0374 156.456 43.1992 156.353 43.361C154.264 46.3178 152.514 49.51 151.131 52.8787C153.676 47.8036 159.692 45.3763 165.121 47.4211H165.135Z"
        fill="#9BCCF4" />
    <path
        d="M189.864 108.131C188.923 102.497 192.38 97.1569 197.705 95.5535C196.808 95.6564 195.91 95.7006 194.984 95.7006C181.156 95.7006 169.947 84.4912 169.947 70.6634C169.947 67.0446 170.726 63.6024 172.109 60.4838C173.374 55.085 170.476 49.4362 165.151 47.4356C159.723 45.3909 153.706 47.8181 151.161 52.8932C149.573 56.7768 148.499 60.8957 147.984 65.1323C147.954 65.4412 147.91 65.7501 147.881 66.0443C147.851 66.265 147.837 66.5004 147.822 66.7357C147.778 67.3094 147.734 67.8831 147.704 68.4568C147.704 68.4863 147.704 68.5304 147.704 68.5598C147.675 69.2659 147.66 69.972 147.66 70.6781C147.66 72.4581 147.763 74.2086 147.954 75.9592C147.954 75.9739 147.954 75.9886 147.954 76.0033C148.043 76.8124 148.16 77.6067 148.293 78.4011C148.322 78.5776 148.352 78.7542 148.381 78.916C148.484 79.5338 148.602 80.1369 148.734 80.7548C148.808 81.0637 148.881 81.3726 148.955 81.6815C148.955 81.7257 148.984 81.7845 148.999 81.8286C149.087 82.2258 149.19 82.6083 149.293 82.9908C149.411 83.4321 149.543 83.8734 149.675 84.3147C149.764 84.5795 149.837 84.859 149.926 85.1238C150.102 85.6975 150.293 86.2565 150.499 86.8302C150.543 86.9479 150.588 87.0508 150.632 87.1685C150.882 87.8452 151.146 88.5219 151.426 89.1839C151.867 90.2136 152.323 91.1992 152.824 92.1848C152.882 92.2878 152.926 92.3907 152.985 92.4937C153.221 92.9497 153.456 93.391 153.706 93.8324C153.809 94.0236 153.927 94.2148 154.03 94.4061C154.383 95.0092 154.736 95.5976 155.104 96.186C155.324 96.5391 155.56 96.8921 155.795 97.2452C155.972 97.4953 156.133 97.7453 156.31 97.9954C157.207 99.2752 158.178 100.511 159.208 101.702C159.237 101.747 159.267 101.776 159.311 101.82C159.782 102.364 160.282 102.894 160.782 103.424C161.032 103.688 161.297 103.938 161.547 104.203C161.797 104.453 162.047 104.703 162.297 104.939C162.606 105.248 162.93 105.542 163.253 105.836C163.43 105.998 163.621 106.16 163.812 106.322C172.271 113.736 183.259 118.046 194.998 118.046C197.573 118.046 200.118 117.825 202.618 117.413C202.045 117.501 201.471 117.546 200.912 117.546C195.513 117.546 190.762 113.647 189.85 108.146L189.864 108.131Z"
        fill="white" />
</svg>