<svg width="399" height="326" viewBox="0 0 399 326" fill="none" xmlns="http://www.w3.org/2000/svg">
<path d="M107.611 298.929V324.548H94.45V303.228C94.6525 300.537 94.0807 297.857 92.7825 295.498C91.4604 293.783 89.3404 292.878 87.1846 293.081C84.9216 292.926 82.7182 293.855 81.2532 295.582C79.7763 297.726 79.0616 300.298 79.2403 302.895V324.548H66.1626V264.353H79.2403V289.114C80.3956 286.863 82.2179 285.017 84.4452 283.826C86.9464 282.54 89.7454 281.897 92.5563 281.98C102.573 281.98 107.587 287.626 107.599 298.917" fill="white"/>
<path d="M121.642 322.845C118.712 320.951 116.377 318.247 114.936 315.067C113.352 311.542 112.578 307.706 112.649 303.847C112.59 299.988 113.411 296.165 115.043 292.664C116.544 289.448 118.926 286.732 121.915 284.838C125 282.921 128.573 281.932 132.206 282.004C134.922 281.956 137.59 282.611 139.984 283.897C142.163 285.065 143.938 286.863 145.081 289.055V283.135H158.064V324.584H145.081V318.736C143.855 320.879 142.032 322.618 139.841 323.738C137.447 325.036 134.755 325.703 132.027 325.667C128.359 325.751 124.75 324.774 121.642 322.833M143.057 311.649C144.819 309.433 145.724 306.658 145.617 303.824C145.712 301.025 144.807 298.273 143.057 296.082C141.246 293.974 138.566 292.83 135.791 292.985C133.087 292.878 130.467 293.986 128.657 295.998C126.811 298.178 125.846 300.965 125.977 303.824C125.858 306.682 126.811 309.493 128.657 311.685C130.455 313.721 133.075 314.841 135.791 314.746C138.566 314.9 141.246 313.757 143.057 311.649Z" fill="white"/>
<path d="M164.4 324.56V283.111H177.478V291.794C178.014 289.055 179.514 286.601 181.706 284.874C183.743 283.278 186.256 282.409 188.84 282.42C189.984 282.397 191.139 282.516 192.259 282.766V294.974C190.948 294.819 189.638 294.736 188.328 294.724C185.22 294.51 182.206 295.808 180.217 298.202C178.18 301.263 177.216 304.907 177.478 308.564V324.56H164.4Z" fill="white"/>
<path d="M200.131 276.144C198.857 274.858 198.154 273.107 198.19 271.296C198.142 269.462 198.845 267.676 200.131 266.366C201.429 265.043 203.216 264.317 205.062 264.376C206.92 264.317 208.731 265.055 210.029 266.389C211.315 267.688 212.03 269.45 211.994 271.285C212.03 273.107 211.327 274.858 210.029 276.144C208.719 277.466 206.92 278.181 205.062 278.133C203.216 278.193 201.418 277.466 200.131 276.144Z" fill="white"/>
<path d="M211.554 324.56H198.571V283.111H211.554V324.56Z" fill="white"/>
<path d="M255.432 324.56H216.902L237.15 294.033H218.867V283.111H256.969L237.066 313.721H255.432V324.56Z" fill="white"/>
<path d="M308.029 324.559V283.111H321.106V289.125C322.262 286.874 324.084 285.028 326.311 283.837C328.824 282.551 331.611 281.92 334.434 282.003C344.451 282.003 349.465 287.648 349.477 298.94V324.571H336.316V303.239C336.519 300.548 335.947 297.868 334.649 295.509C333.327 293.794 331.206 292.889 329.051 293.092C326.788 292.937 324.584 293.866 323.119 295.593C321.642 297.725 320.928 300.309 321.106 302.906V324.571H308.029V324.559Z" fill="white"/>
<path d="M398.619 307.444H368.212C368.176 309.802 369.177 312.065 370.951 313.638C372.929 315.162 375.382 315.924 377.871 315.793C381.909 315.793 384.482 314.555 385.566 312.089H398.381C397.738 316.186 395.32 319.795 391.759 321.939C387.602 324.536 382.778 325.846 377.871 325.679C371.785 326.025 365.818 323.952 361.256 319.914C357.076 315.639 354.884 309.802 355.241 303.835C355.134 299.786 356.075 295.772 357.981 292.187C359.756 288.935 362.459 286.303 365.758 284.624C369.391 282.813 373.405 281.92 377.466 282.003C381.361 281.932 385.208 282.79 388.698 284.493C391.842 286.041 394.487 288.459 396.297 291.46C398.119 294.557 399.06 298.094 398.989 301.691C398.989 303.621 398.882 305.539 398.667 307.456M386.09 299.286C386.197 296.975 385.375 294.712 383.803 293.009C382.04 291.472 379.729 290.698 377.395 290.865C374.977 290.734 372.595 291.556 370.773 293.152C369.117 294.76 368.2 296.987 368.26 299.297H386.101L386.09 299.286Z" fill="white"/>
<path d="M60.9099 292.568C59.8499 275.989 45.6289 263.351 29.0376 264.269C12.4582 265.424 -0.095555 279.728 0.940657 296.32L1.02411 297.713L13.5301 296.856L13.4467 295.498C12.8869 285.827 20.2357 277.501 29.8951 276.858C39.5664 276.346 47.8441 283.742 48.4158 293.414C48.9756 303.097 41.6389 311.422 31.9675 312.065C31.0981 312.113 30.2166 312.101 29.3471 312.018L27.9895 311.899L26.846 324.464L28.2157 324.583C29.1209 324.667 30.0142 324.702 30.9313 324.702C31.5626 324.702 32.1938 324.679 32.8489 324.643C49.4402 323.476 61.9819 309.147 60.9457 292.544" fill="white" fill-opacity="0.1"/>
<path d="M30.6932 325.561C23.404 325.561 16.3412 322.94 10.8028 318.188C3.93042 312.292 -0.0118836 303.693 2.69102e-05 294.641C2.69102e-05 287.316 2.5964 280.217 7.32486 274.619C13.1372 267.723 21.7008 263.745 30.7171 263.745C38.0182 263.745 45.0693 266.365 50.6077 271.118C51.8106 272.154 52.9421 273.274 53.9783 274.476C56.4795 277.395 56.1699 281.778 53.2756 284.303C50.4052 286.804 46.0459 286.506 43.5447 283.636C43.5447 283.624 43.5208 283.612 43.5089 283.6C42.9372 282.933 42.306 282.302 41.6271 281.718C38.5899 279.11 34.719 277.68 30.7171 277.668C25.7623 277.668 21.0578 279.848 17.8658 283.636C15.2693 286.709 13.8519 290.603 13.8519 294.629C13.8519 299.596 16.0196 304.324 19.7833 307.564C22.8205 310.172 26.6913 311.601 30.6932 311.613C35.648 311.613 40.3527 309.422 43.5447 305.634C45.9863 302.728 50.3218 302.347 53.2398 304.789C53.2637 304.801 53.2875 304.824 53.2995 304.848C56.2175 307.349 56.5628 311.744 54.0854 314.674C48.2731 321.571 39.7095 325.549 30.6932 325.549" fill="white"/>
<path d="M280.706 282.54C293.748 282.54 302.585 291.21 302.585 303.633C302.585 316.056 293.748 324.548 280.706 324.548C267.664 324.548 258.731 315.889 258.731 303.633C258.731 291.377 267.568 282.54 280.706 282.54ZM280.706 313.697C286.399 313.697 290.163 309.41 290.163 303.538C290.163 297.666 286.399 293.473 280.706 293.473C275.013 293.473 271.249 297.583 271.249 303.538C271.249 309.493 275.013 313.697 280.706 313.697Z" fill="white"/>
<mask id="path-12-outside-1_2_768" maskUnits="userSpaceOnUse" x="114" y="0" width="171" height="153" fill="black">
<rect fill="white" x="114" width="171" height="153"/>
<path d="M117.577 76.2973C121.711 46.8028 140.893 21.5744 168.211 9.70307C195.646 -1.49158 226.817 1.46522 251.663 17.6026C269.213 29.0767 283.276 48.5092 282.114 69.5452C280.878 92.1551 263.637 108.851 245.161 119.237C230.024 127.725 214.666 140.347 198.294 146.142C151.647 162.633 111.693 123.797 117.577 76.312"/>
</mask>
<path d="M117.577 76.2973C121.711 46.8028 140.893 21.5744 168.211 9.70307C195.646 -1.49158 226.817 1.46522 251.663 17.6026C269.213 29.0767 283.276 48.5092 282.114 69.5452C280.878 92.1551 263.637 108.851 245.161 119.237C230.024 127.725 214.666 140.347 198.294 146.142C151.647 162.633 111.693 123.797 117.577 76.312" fill="#141D44"/>
<path d="M168.211 9.70307L167.283 7.42975L167.258 7.4402L167.232 7.45122L168.211 9.70307ZM251.663 17.6026L253.007 15.5475L253 15.5435L251.663 17.6026ZM282.114 69.5452L279.662 69.4097L279.662 69.4112L282.114 69.5452ZM245.161 119.237L246.362 121.379L246.364 121.377L245.161 119.237ZM198.294 146.142L199.112 148.457L199.113 148.457L198.294 146.142ZM120.009 76.638C124.024 47.9902 142.656 23.4856 169.189 11.9549L167.232 7.45122C139.131 19.6632 119.398 45.6154 115.146 75.9565L120.009 76.638ZM169.138 11.9764C195.828 1.08571 226.154 3.96204 250.326 19.6617L253 15.5435C227.481 -1.03161 195.463 -4.06888 167.283 7.42975L169.138 11.9764ZM250.319 19.6576C267.439 30.8507 280.759 49.5601 279.662 69.4097L284.565 69.6806C285.793 47.4583 270.986 27.3027 253.007 15.5475L250.319 19.6576ZM279.662 69.4112C278.495 90.7626 262.166 106.862 243.958 117.097L246.364 121.377C265.108 110.841 283.261 93.5477 284.565 69.6791L279.662 69.4112ZM243.96 117.095C236.316 121.382 228.535 126.761 220.874 131.627C213.127 136.548 205.387 141.027 197.474 143.828L199.113 148.457C207.573 145.462 215.699 140.732 223.507 135.772C231.403 130.756 238.869 125.58 246.362 121.379L243.96 117.095ZM197.475 143.828C175.01 151.769 154.302 146.382 139.879 133.394C125.417 120.37 117.166 99.5955 120.014 76.6139L115.141 76.01C112.104 100.514 120.888 122.9 136.593 137.043C152.338 151.221 174.931 157.006 199.112 148.457L197.475 143.828Z" fill="white" mask="url(#path-12-outside-1_2_768)"/>
<path d="M242.219 70.3835C241.557 60.7922 238.012 52.0101 232.496 44.8608C235.438 49.5829 234.496 55.8643 230.083 59.483C225.655 63.1165 219.3 62.7782 215.255 58.9534C218.256 63.0871 220.036 68.1622 220.036 73.6639C220.036 86.5797 210.268 97.2006 197.706 98.554C192.366 100.157 188.923 105.497 189.865 111.131C190.777 116.633 195.528 120.531 200.927 120.531C201.486 120.531 202.06 120.487 202.634 120.399C202.913 120.355 203.207 120.296 203.487 120.252C203.884 120.178 204.266 120.105 204.664 120.031C226.612 115.5 242.337 96.318 242.337 73.7227C242.337 72.6194 242.293 71.5015 242.219 70.3982V70.3835Z" fill="#F7CFCE"/>
<path d="M165.136 50.4211C170.476 52.4364 173.359 58.0705 172.094 63.4692C175.992 54.7165 184.775 48.6117 194.969 48.6117C203.295 48.6117 210.68 52.6865 215.225 58.9384C219.271 62.7632 225.626 63.0868 230.053 59.468C234.467 55.8492 235.408 49.5679 232.466 44.8458C232.216 44.4339 231.936 44.0368 231.627 43.6543C222.58 32.6215 209.238 26.2812 194.998 26.2812C191.571 26.2812 188.129 26.6637 184.76 27.3992C180.979 28.2377 177.405 29.5175 174.036 31.1945C173.948 31.2387 173.859 31.2828 173.771 31.3269C173.492 31.474 173.212 31.6211 172.933 31.7682C172.535 31.9742 172.138 32.1948 171.756 32.4155C171.668 32.4596 171.579 32.5185 171.491 32.5626C166.387 35.5047 161.885 39.3735 158.222 43.8897C158.134 44.0073 158.031 44.125 157.943 44.228C157.693 44.5516 157.443 44.8753 157.193 45.1989C157.031 45.4195 156.854 45.6402 156.692 45.8756C156.575 46.0374 156.457 46.1992 156.354 46.361C154.265 49.3178 152.515 52.51 151.132 55.8787C153.677 50.8036 159.693 48.3763 165.121 50.4211H165.136Z" fill="#9BCCF4"/>
<path d="M189.865 111.131C188.923 105.497 192.38 100.157 197.706 98.5535C196.808 98.6564 195.911 98.7006 194.984 98.7006C181.156 98.7006 169.947 87.4912 169.947 73.6634C169.947 70.0446 170.727 66.6024 172.109 63.4838C173.374 58.085 170.477 52.4362 165.151 50.4356C159.723 48.3909 153.707 50.8181 151.162 55.8932C149.573 59.7768 148.499 63.8957 147.984 68.1323C147.955 68.4412 147.911 68.7501 147.881 69.0443C147.852 69.265 147.837 69.5004 147.822 69.7357C147.778 70.3094 147.734 70.8831 147.705 71.4568C147.705 71.4863 147.705 71.5304 147.705 71.5598C147.675 72.2659 147.661 72.972 147.661 73.6781C147.661 75.4581 147.764 77.2086 147.955 78.9592C147.955 78.9739 147.955 78.9886 147.955 79.0033C148.043 79.8124 148.161 80.6067 148.293 81.4011C148.323 81.5776 148.352 81.7542 148.381 81.916C148.484 82.5338 148.602 83.1369 148.734 83.7548C148.808 84.0637 148.882 84.3726 148.955 84.6815C148.955 84.7257 148.985 84.7845 148.999 84.8286C149.088 85.2258 149.191 85.6083 149.293 85.9908C149.411 86.4321 149.544 86.8734 149.676 87.3147C149.764 87.5795 149.838 87.859 149.926 88.1238C150.103 88.6975 150.294 89.2565 150.5 89.8302C150.544 89.9479 150.588 90.0508 150.632 90.1685C150.882 90.8452 151.147 91.5219 151.426 92.1839C151.868 93.2136 152.324 94.1992 152.824 95.1848C152.883 95.2878 152.927 95.3907 152.986 95.4937C153.221 95.9497 153.457 96.391 153.707 96.8324C153.81 97.0236 153.927 97.2148 154.03 97.4061C154.383 98.0092 154.736 98.5976 155.104 99.186C155.325 99.5391 155.56 99.8921 155.796 100.245C155.972 100.495 156.134 100.745 156.31 100.995C157.208 102.275 158.179 103.511 159.208 104.702C159.238 104.747 159.267 104.776 159.311 104.82C159.782 105.364 160.282 105.894 160.782 106.424C161.033 106.688 161.297 106.938 161.547 107.203C161.797 107.453 162.047 107.703 162.297 107.939C162.606 108.248 162.93 108.542 163.254 108.836C163.43 108.998 163.621 109.16 163.813 109.322C172.271 116.736 183.26 121.046 194.999 121.046C197.573 121.046 200.118 120.825 202.619 120.413C202.045 120.501 201.471 120.546 200.912 120.546C195.514 120.546 190.762 116.647 189.85 111.146L189.865 111.131Z" fill="white"/>
<path d="M81.6165 194C84.0758 194 86.2639 194.559 88.1807 195.676C90.1337 196.793 91.6526 198.342 92.7376 200.324C93.8226 202.306 94.3651 204.559 94.3651 207.081C94.3651 209.568 93.8226 211.802 92.7376 213.784C91.6526 215.766 90.1337 217.315 88.1807 218.432C86.2639 219.55 84.0758 220.108 81.6165 220.108H72.9367V231.838H68V194H81.6165ZM81.3453 215.676C82.8643 215.676 84.2386 215.315 85.4682 214.595C86.6979 213.838 87.6563 212.811 88.3434 211.514C89.0668 210.18 89.4284 208.703 89.4284 207.081C89.4284 205.423 89.0668 203.946 88.3434 202.649C87.6563 201.315 86.6979 200.288 85.4682 199.568C84.2386 198.811 82.8643 198.432 81.3453 198.432H72.9367V215.676H81.3453Z" fill="white"/>
<path d="M110.21 232.486C107.57 232.486 105.255 231.91 103.266 230.757C101.313 229.604 99.8123 228.036 98.7635 226.054C97.7147 224.036 97.1903 221.82 97.1903 219.405C97.1903 216.955 97.7147 214.739 98.7635 212.757C99.8123 210.739 101.313 209.153 103.266 208C105.255 206.847 107.57 206.27 110.21 206.27C112.85 206.27 115.147 206.847 117.1 208C119.089 209.153 120.608 210.739 121.657 212.757C122.705 214.739 123.23 216.955 123.23 219.405C123.23 221.82 122.687 224.036 121.602 226.054C120.554 228.036 119.053 229.604 117.1 230.757C115.147 231.91 112.85 232.486 110.21 232.486ZM110.21 228.27C112.778 228.27 114.803 227.441 116.286 225.784C117.769 224.09 118.51 221.964 118.51 219.405C118.51 216.811 117.769 214.685 116.286 213.027C114.803 211.333 112.778 210.486 110.21 210.486C107.642 210.486 105.599 211.333 104.08 213.027C102.597 214.685 101.856 216.811 101.856 219.405C101.856 221.964 102.597 224.09 104.08 225.784C105.599 227.441 107.642 228.27 110.21 228.27Z" fill="white"/>
<path d="M137.671 231.838H133.711L124.489 206.919H129.642L135.61 225.135L141.74 206.919H146.785L152.861 225.135L158.883 206.919H164.036L154.814 231.838H150.799L144.235 212.703L137.671 231.838Z" fill="white"/>
<path d="M189.513 218C189.513 219.081 189.477 220 189.405 220.757H170.038C170.074 223.135 170.797 225.009 172.208 226.378C173.618 227.712 175.517 228.378 177.904 228.378C179.568 228.378 180.96 228.072 182.081 227.459C183.202 226.811 184.016 225.892 184.523 224.703H189.242C188.808 227.009 187.542 228.883 185.445 230.324C183.347 231.766 180.834 232.486 177.904 232.486C174.071 232.486 171.014 231.315 168.736 228.973C166.494 226.595 165.373 223.387 165.373 219.351C165.373 216.757 165.879 214.468 166.892 212.486C167.904 210.505 169.333 208.973 171.177 207.892C173.058 206.811 175.228 206.27 177.687 206.27C180.002 206.27 182.045 206.775 183.817 207.784C185.626 208.757 187.018 210.144 187.994 211.946C189.007 213.712 189.513 215.73 189.513 218ZM184.902 217.135C184.902 214.937 184.251 213.207 182.949 211.946C181.683 210.685 179.911 210.054 177.633 210.054C175.391 210.054 173.582 210.703 172.208 212C170.87 213.297 170.146 215.009 170.038 217.135H184.902Z" fill="white"/>
<path d="M195.67 231.838V206.919H200.39V212.595C200.86 210.613 201.764 209.117 203.102 208.108C204.476 207.063 206.013 206.541 207.713 206.541C208.69 206.541 209.449 206.613 209.992 206.757V211.081C209.449 210.973 208.672 210.919 207.659 210.919C205.308 210.919 203.5 211.856 202.234 213.73C201.004 215.604 200.39 218.018 200.39 220.973V231.838H195.67Z" fill="white"/>
<path d="M236.611 218C236.611 219.081 236.574 220 236.502 220.757H217.135C217.171 223.135 217.895 225.009 219.305 226.378C220.716 227.712 222.614 228.378 225.001 228.378C226.665 228.378 228.057 228.072 229.178 227.459C230.3 226.811 231.113 225.892 231.62 224.703H236.339C235.905 227.009 234.64 228.883 232.542 230.324C230.444 231.766 227.931 232.486 225.001 232.486C221.168 232.486 218.112 231.315 215.833 228.973C213.591 226.595 212.47 223.387 212.47 219.351C212.47 216.757 212.976 214.468 213.989 212.486C215.001 210.505 216.43 208.973 218.274 207.892C220.155 206.811 222.325 206.27 224.784 206.27C227.099 206.27 229.142 206.775 230.914 207.784C232.723 208.757 234.115 210.144 235.092 211.946C236.104 213.712 236.611 215.73 236.611 218ZM231.999 217.135C231.999 214.937 231.348 213.207 230.046 211.946C228.781 210.685 227.009 210.054 224.73 210.054C222.488 210.054 220.679 210.703 219.305 212C217.967 213.297 217.244 215.009 217.135 217.135H231.999Z" fill="white"/>
<path d="M261.867 194H266.532V231.838H261.867V227.459C261.071 228.973 259.859 230.198 258.232 231.135C256.604 232.036 254.85 232.486 252.97 232.486C250.402 232.486 248.178 231.928 246.297 230.811C244.416 229.658 242.988 228.09 242.011 226.108C241.071 224.126 240.601 221.892 240.601 219.405C240.601 216.955 241.107 214.739 242.12 212.757C243.133 210.739 244.579 209.153 246.46 208C248.34 206.847 250.547 206.27 253.078 206.27C255.031 206.27 256.785 206.739 258.34 207.676C259.896 208.577 261.071 209.802 261.867 211.351V194ZM253.621 228.27C256.261 228.27 258.322 227.423 259.805 225.73C261.324 224.036 262.084 221.928 262.084 219.405C262.084 216.883 261.324 214.775 259.805 213.081C258.322 211.351 256.261 210.486 253.621 210.486C251.089 210.486 249.064 211.333 247.545 213.027C246.026 214.685 245.266 216.811 245.266 219.405C245.266 222 246.026 224.126 247.545 225.784C249.064 227.441 251.089 228.27 253.621 228.27Z" fill="white"/>
<path d="M302.269 206.27C304.619 206.27 306.717 206.829 308.562 207.946C310.406 209.027 311.835 210.577 312.847 212.595C313.86 214.577 314.366 216.847 314.366 219.405C314.366 221.928 313.842 224.18 312.793 226.162C311.744 228.144 310.279 229.694 308.399 230.811C306.518 231.928 304.384 232.486 301.997 232.486C300.081 232.486 298.308 232.036 296.681 231.135C295.053 230.234 293.842 229.009 293.046 227.459V231.838H288.381V194H293.046V211.351C293.842 209.802 295.072 208.577 296.735 207.676C298.399 206.739 300.243 206.27 302.269 206.27ZM301.346 228.27C303.77 228.27 305.759 227.441 307.314 225.784C308.869 224.126 309.647 222 309.647 219.405C309.647 217.712 309.285 216.18 308.562 214.811C307.874 213.441 306.898 212.378 305.632 211.622C304.366 210.865 302.938 210.486 301.346 210.486C298.851 210.486 296.808 211.315 295.216 212.973C293.625 214.631 292.829 216.775 292.829 219.405C292.829 222 293.625 224.126 295.216 225.784C296.808 227.441 298.851 228.27 301.346 228.27Z" fill="white"/>
<path d="M338.335 206.919H343V232.324C343 236.252 341.879 239.243 339.637 241.297C337.539 243.099 334.808 244 331.445 244C327.828 244 325.007 243.135 322.982 241.405C321.138 239.856 320.197 237.712 320.161 234.973H324.881C324.989 236.595 325.55 237.838 326.562 238.703C327.575 239.604 329.185 240.054 331.391 240.054C333.597 240.054 335.297 239.387 336.49 238.054C337.72 236.757 338.335 234.739 338.335 232V227.351C337.575 228.937 336.454 230.18 334.971 231.081C333.488 231.982 331.716 232.432 329.655 232.432C326.508 232.432 324.139 231.477 322.548 229.568C320.957 227.658 320.161 225.063 320.161 221.784V206.919H324.827V220.811C324.827 223.189 325.297 225.027 326.237 226.324C327.214 227.622 328.877 228.27 331.228 228.27C333.506 228.27 335.26 227.459 336.49 225.838C337.72 224.18 338.335 222.144 338.335 219.73V206.919Z" fill="white"/>
</svg>
