<svg width="399" height="323" viewBox="0 0 399 323" fill="none" xmlns="http://www.w3.org/2000/svg">
    <path
        d="M107.611 295.929V321.548H94.45V300.228C94.6525 297.537 94.0807 294.857 92.7825 292.498C91.4604 290.783 89.3404 289.878 87.1846 290.081C84.9216 289.926 82.7182 290.855 81.2532 292.582C79.7763 294.726 79.0616 297.298 79.2403 299.895V321.548H66.1626V261.353H79.2403V286.114C80.3956 283.863 82.2179 282.017 84.4452 280.826C86.9464 279.54 89.7454 278.897 92.5563 278.98C102.573 278.98 107.587 284.626 107.599 295.917"
        fill="#151D44" />
    <path
        d="M121.642 319.845C118.712 317.951 116.377 315.247 114.936 312.067C113.352 308.542 112.578 304.706 112.649 300.847C112.59 296.988 113.411 293.165 115.043 289.664C116.544 286.448 118.926 283.732 121.915 281.838C125 279.921 128.573 278.932 132.206 279.004C134.922 278.956 137.59 279.611 139.984 280.897C142.163 282.065 143.938 283.863 145.081 286.055V280.135H158.064V321.584H145.081V315.736C143.855 317.879 142.032 319.618 139.841 320.738C137.447 322.036 134.755 322.703 132.027 322.667C128.359 322.751 124.75 321.774 121.642 319.833M143.057 308.649C144.819 306.433 145.724 303.658 145.617 300.824C145.712 298.025 144.807 295.273 143.057 293.082C141.246 290.974 138.566 289.83 135.791 289.985C133.087 289.878 130.467 290.986 128.657 292.998C126.811 295.178 125.846 297.965 125.977 300.824C125.858 303.682 126.811 306.493 128.657 308.685C130.455 310.721 133.075 311.841 135.791 311.746C138.566 311.9 141.246 310.757 143.057 308.649Z"
        fill="#151D44" />
    <path
        d="M164.4 321.56V280.111H177.478V288.794C178.014 286.055 179.514 283.601 181.706 281.874C183.743 280.278 186.256 279.409 188.84 279.42C189.984 279.397 191.139 279.516 192.259 279.766V291.974C190.948 291.819 189.638 291.736 188.328 291.724C185.22 291.51 182.206 292.808 180.217 295.202C178.18 298.263 177.216 301.907 177.478 305.564V321.56H164.4Z"
        fill="#151D44" />
    <path
        d="M200.131 273.144C198.857 271.858 198.154 270.107 198.19 268.296C198.142 266.462 198.845 264.676 200.131 263.366C201.429 262.043 203.216 261.317 205.062 261.376C206.92 261.317 208.731 262.055 210.029 263.389C211.315 264.688 212.03 266.45 211.994 268.285C212.03 270.107 211.327 271.858 210.029 273.144C208.719 274.466 206.92 275.181 205.062 275.133C203.216 275.193 201.418 274.466 200.131 273.144Z"
        fill="#151D44" />
    <path d="M211.554 321.56H198.571V280.111H211.554V321.56Z" fill="#151D44" />
    <path d="M255.432 321.56H216.902L237.15 291.033H218.867V280.111H256.969L237.066 310.721H255.432V321.56Z"
        fill="#151D44" />
    <path
        d="M308.029 321.559V280.111H321.106V286.125C322.262 283.874 324.084 282.028 326.311 280.837C328.824 279.551 331.611 278.92 334.434 279.003C344.451 279.003 349.465 284.648 349.477 295.94V321.571H336.316V300.239C336.519 297.548 335.947 294.868 334.649 292.509C333.327 290.794 331.206 289.889 329.051 290.092C326.788 289.937 324.584 290.866 323.119 292.593C321.642 294.725 320.928 297.309 321.106 299.906V321.571H308.029V321.559Z"
        fill="#151D44" />
    <path
        d="M398.619 304.444H368.212C368.176 306.802 369.177 309.065 370.951 310.638C372.929 312.162 375.382 312.924 377.871 312.793C381.909 312.793 384.482 311.555 385.566 309.089H398.381C397.738 313.186 395.32 316.795 391.759 318.939C387.602 321.536 382.778 322.846 377.871 322.679C371.785 323.025 365.818 320.952 361.256 316.914C357.076 312.639 354.884 306.802 355.241 300.835C355.134 296.786 356.075 292.772 357.981 289.187C359.756 285.935 362.459 283.303 365.758 281.624C369.391 279.813 373.405 278.92 377.466 279.003C381.361 278.932 385.208 279.79 388.698 281.493C391.842 283.041 394.487 285.459 396.297 288.46C398.119 291.557 399.06 295.094 398.989 298.691C398.989 300.621 398.882 302.539 398.667 304.456M386.09 296.286C386.197 293.975 385.375 291.712 383.803 290.009C382.04 288.472 379.729 287.698 377.395 287.865C374.977 287.734 372.595 288.556 370.773 290.152C369.117 291.76 368.2 293.987 368.26 296.297H386.101L386.09 296.286Z"
        fill="#151D44" />
    <path
        d="M60.9099 289.568C59.8499 272.989 45.6289 260.351 29.0376 261.269C12.4582 262.424 -0.095555 276.728 0.940657 293.32L1.02411 294.713L13.5301 293.856L13.4467 292.498C12.8869 282.827 20.2357 274.501 29.8951 273.858C39.5664 273.346 47.8441 280.742 48.4158 290.414C48.9756 300.097 41.6389 308.422 31.9675 309.065C31.0981 309.113 30.2166 309.101 29.3471 309.018L27.9895 308.899L26.846 321.464L28.2157 321.583C29.1209 321.667 30.0142 321.702 30.9313 321.702C31.5626 321.702 32.1938 321.679 32.8489 321.643C49.4402 320.476 61.9819 306.147 60.9457 289.544"
        fill="#141D44" fill-opacity="0.1" />
    <path
        d="M30.6932 322.561C23.404 322.561 16.3412 319.94 10.8028 315.188C3.93042 309.292 -0.0118836 300.693 2.69102e-05 291.641C2.69102e-05 284.316 2.5964 277.217 7.32486 271.619C13.1372 264.723 21.7008 260.745 30.7171 260.745C38.0182 260.745 45.0693 263.365 50.6077 268.118C51.8106 269.154 52.9421 270.274 53.9783 271.476C56.4795 274.395 56.1699 278.778 53.2756 281.303C50.4052 283.804 46.0459 283.506 43.5447 280.636C43.5447 280.624 43.5208 280.612 43.5089 280.6C42.9372 279.933 42.306 279.302 41.6271 278.718C38.5899 276.11 34.719 274.68 30.7171 274.668C25.7623 274.668 21.0578 276.848 17.8658 280.636C15.2693 283.709 13.8519 287.603 13.8519 291.629C13.8519 296.596 16.0196 301.324 19.7833 304.564C22.8205 307.172 26.6913 308.601 30.6932 308.613C35.648 308.613 40.3527 306.422 43.5447 302.634C45.9863 299.728 50.3218 299.347 53.2398 301.789C53.2637 301.801 53.2875 301.824 53.2995 301.848C56.2175 304.349 56.5628 308.744 54.0854 311.674C48.2731 318.571 39.7095 322.549 30.6932 322.549"
        fill="#151D44" />
    <path
        d="M280.706 279.54C293.748 279.54 302.585 288.21 302.585 300.633C302.585 313.056 293.748 321.548 280.706 321.548C267.664 321.548 258.731 312.889 258.731 300.633C258.731 288.377 267.568 279.54 280.706 279.54ZM280.706 310.697C286.399 310.697 290.163 306.41 290.163 300.538C290.163 294.666 286.399 290.473 280.706 290.473C275.013 290.473 271.249 294.583 271.249 300.538C271.249 306.493 275.013 310.697 280.706 310.697Z"
        fill="#151D44" />
    <path
        d="M117.577 73.2973C121.711 43.8028 140.893 18.5744 168.211 6.70307C195.646 -4.49158 226.817 -1.53478 251.663 14.6026C269.213 26.0767 283.276 45.5092 282.114 66.5452C280.878 89.1551 263.637 105.851 245.161 116.237C230.024 124.725 214.666 137.347 198.294 143.142C151.647 159.633 111.693 120.797 117.577 73.312"
        fill="#141D44" />
    <path
        d="M242.219 67.3835C241.557 57.7922 238.012 49.0101 232.496 41.8608C235.438 46.5829 234.496 52.8643 230.083 56.483C225.655 60.1165 219.3 59.7782 215.255 55.9534C218.256 60.0871 220.036 65.1622 220.036 70.6639C220.036 83.5797 210.268 94.2006 197.706 95.554C192.366 97.1574 188.923 102.497 189.865 108.131C190.777 113.633 195.528 117.531 200.927 117.531C201.486 117.531 202.06 117.487 202.634 117.399C202.913 117.355 203.207 117.296 203.487 117.252C203.884 117.178 204.266 117.105 204.664 117.031C226.612 112.5 242.337 93.318 242.337 70.7227C242.337 69.6194 242.293 68.5015 242.219 67.3982V67.3835Z"
        fill="#F7CFCE" />
    <path
        d="M165.136 47.4211C170.476 49.4364 173.359 55.0705 172.094 60.4692C175.992 51.7165 184.775 45.6117 194.969 45.6117C203.295 45.6117 210.68 49.6865 215.225 55.9384C219.271 59.7632 225.626 60.0868 230.053 56.468C234.467 52.8492 235.408 46.5679 232.466 41.8458C232.216 41.4339 231.936 41.0368 231.627 40.6543C222.58 29.6215 209.238 23.2812 194.998 23.2812C191.571 23.2812 188.129 23.6637 184.76 24.3992C180.979 25.2377 177.405 26.5175 174.036 28.1945C173.948 28.2387 173.859 28.2828 173.771 28.3269C173.492 28.474 173.212 28.6211 172.933 28.7682C172.535 28.9742 172.138 29.1948 171.756 29.4155C171.668 29.4596 171.579 29.5185 171.491 29.5626C166.387 32.5047 161.885 36.3735 158.222 40.8897C158.134 41.0073 158.031 41.125 157.943 41.228C157.693 41.5516 157.443 41.8753 157.193 42.1989C157.031 42.4195 156.854 42.6402 156.692 42.8756C156.575 43.0374 156.457 43.1992 156.354 43.361C154.265 46.3178 152.515 49.51 151.132 52.8787C153.677 47.8036 159.693 45.3763 165.121 47.4211H165.136Z"
        fill="#9BCCF4" />
    <path
        d="M189.865 108.131C188.923 102.497 192.38 97.1569 197.706 95.5535C196.808 95.6564 195.911 95.7006 194.984 95.7006C181.156 95.7006 169.947 84.4912 169.947 70.6634C169.947 67.0446 170.727 63.6024 172.109 60.4838C173.374 55.085 170.477 49.4362 165.151 47.4356C159.723 45.3909 153.707 47.8181 151.162 52.8932C149.573 56.7768 148.499 60.8957 147.984 65.1323C147.955 65.4412 147.911 65.7501 147.881 66.0443C147.852 66.265 147.837 66.5004 147.822 66.7357C147.778 67.3094 147.734 67.8831 147.705 68.4568C147.705 68.4863 147.705 68.5304 147.705 68.5598C147.675 69.2659 147.661 69.972 147.661 70.6781C147.661 72.4581 147.764 74.2086 147.955 75.9592C147.955 75.9739 147.955 75.9886 147.955 76.0033C148.043 76.8124 148.161 77.6067 148.293 78.4011C148.323 78.5776 148.352 78.7542 148.381 78.916C148.484 79.5338 148.602 80.1369 148.734 80.7548C148.808 81.0637 148.882 81.3726 148.955 81.6815C148.955 81.7257 148.985 81.7845 148.999 81.8286C149.088 82.2258 149.191 82.6083 149.293 82.9908C149.411 83.4321 149.544 83.8734 149.676 84.3147C149.764 84.5795 149.838 84.859 149.926 85.1238C150.103 85.6975 150.294 86.2565 150.5 86.8302C150.544 86.9479 150.588 87.0508 150.632 87.1685C150.882 87.8452 151.147 88.5219 151.426 89.1839C151.868 90.2136 152.324 91.1992 152.824 92.1848C152.883 92.2878 152.927 92.3907 152.986 92.4937C153.221 92.9497 153.457 93.391 153.707 93.8324C153.81 94.0236 153.927 94.2148 154.03 94.4061C154.383 95.0092 154.736 95.5976 155.104 96.186C155.325 96.5391 155.56 96.8921 155.796 97.2452C155.972 97.4953 156.134 97.7453 156.31 97.9954C157.208 99.2752 158.179 100.511 159.208 101.702C159.238 101.747 159.267 101.776 159.311 101.82C159.782 102.364 160.282 102.894 160.782 103.424C161.033 103.688 161.297 103.938 161.547 104.203C161.797 104.453 162.047 104.703 162.297 104.939C162.606 105.248 162.93 105.542 163.254 105.836C163.43 105.998 163.621 106.16 163.813 106.322C172.271 113.736 183.26 118.046 194.999 118.046C197.573 118.046 200.118 117.825 202.619 117.413C202.045 117.501 201.471 117.546 200.912 117.546C195.514 117.546 190.762 113.647 189.85 108.146L189.865 108.131Z"
        fill="white" />
    <path
        d="M81.6165 191C84.0758 191 86.2639 191.559 88.1807 192.676C90.1337 193.793 91.6526 195.342 92.7376 197.324C93.8226 199.306 94.3651 201.559 94.3651 204.081C94.3651 206.568 93.8226 208.802 92.7376 210.784C91.6526 212.766 90.1337 214.315 88.1807 215.432C86.2639 216.55 84.0758 217.108 81.6165 217.108H72.9367V228.838H68V191H81.6165ZM81.3453 212.676C82.8643 212.676 84.2386 212.315 85.4682 211.595C86.6979 210.838 87.6563 209.811 88.3434 208.514C89.0668 207.18 89.4284 205.703 89.4284 204.081C89.4284 202.423 89.0668 200.946 88.3434 199.649C87.6563 198.315 86.6979 197.288 85.4682 196.568C84.2386 195.811 82.8643 195.432 81.3453 195.432H72.9367V212.676H81.3453Z"
        fill="#151D44" />
    <path
        d="M110.21 229.486C107.57 229.486 105.255 228.91 103.266 227.757C101.313 226.604 99.8123 225.036 98.7635 223.054C97.7147 221.036 97.1903 218.82 97.1903 216.405C97.1903 213.955 97.7147 211.739 98.7635 209.757C99.8123 207.739 101.313 206.153 103.266 205C105.255 203.847 107.57 203.27 110.21 203.27C112.85 203.27 115.147 203.847 117.1 205C119.089 206.153 120.608 207.739 121.657 209.757C122.705 211.739 123.23 213.955 123.23 216.405C123.23 218.82 122.687 221.036 121.602 223.054C120.554 225.036 119.053 226.604 117.1 227.757C115.147 228.91 112.85 229.486 110.21 229.486ZM110.21 225.27C112.778 225.27 114.803 224.441 116.286 222.784C117.769 221.09 118.51 218.964 118.51 216.405C118.51 213.811 117.769 211.685 116.286 210.027C114.803 208.333 112.778 207.486 110.21 207.486C107.642 207.486 105.599 208.333 104.08 210.027C102.597 211.685 101.856 213.811 101.856 216.405C101.856 218.964 102.597 221.09 104.08 222.784C105.599 224.441 107.642 225.27 110.21 225.27Z"
        fill="#151D44" />
    <path
        d="M137.671 228.838H133.711L124.489 203.919H129.642L135.61 222.135L141.74 203.919H146.785L152.861 222.135L158.883 203.919H164.036L154.814 228.838H150.799L144.235 209.703L137.671 228.838Z"
        fill="#151D44" />
    <path
        d="M189.513 215C189.513 216.081 189.477 217 189.405 217.757H170.038C170.074 220.135 170.797 222.009 172.208 223.378C173.618 224.712 175.517 225.378 177.904 225.378C179.568 225.378 180.96 225.072 182.081 224.459C183.202 223.811 184.016 222.892 184.523 221.703H189.242C188.808 224.009 187.542 225.883 185.445 227.324C183.347 228.766 180.834 229.486 177.904 229.486C174.071 229.486 171.014 228.315 168.736 225.973C166.494 223.595 165.373 220.387 165.373 216.351C165.373 213.757 165.879 211.468 166.892 209.486C167.904 207.505 169.333 205.973 171.177 204.892C173.058 203.811 175.228 203.27 177.687 203.27C180.002 203.27 182.045 203.775 183.817 204.784C185.626 205.757 187.018 207.144 187.994 208.946C189.007 210.712 189.513 212.73 189.513 215ZM184.902 214.135C184.902 211.937 184.251 210.207 182.949 208.946C181.683 207.685 179.911 207.054 177.633 207.054C175.391 207.054 173.582 207.703 172.208 209C170.87 210.297 170.146 212.009 170.038 214.135H184.902Z"
        fill="#151D44" />
    <path
        d="M195.67 228.838V203.919H200.39V209.595C200.86 207.613 201.764 206.117 203.102 205.108C204.476 204.063 206.013 203.541 207.713 203.541C208.69 203.541 209.449 203.613 209.992 203.757V208.081C209.449 207.973 208.672 207.919 207.659 207.919C205.308 207.919 203.5 208.856 202.234 210.73C201.004 212.604 200.39 215.018 200.39 217.973V228.838H195.67Z"
        fill="#151D44" />
    <path
        d="M236.611 215C236.611 216.081 236.574 217 236.502 217.757H217.135C217.171 220.135 217.895 222.009 219.305 223.378C220.716 224.712 222.614 225.378 225.001 225.378C226.665 225.378 228.057 225.072 229.178 224.459C230.3 223.811 231.113 222.892 231.62 221.703H236.339C235.905 224.009 234.64 225.883 232.542 227.324C230.444 228.766 227.931 229.486 225.001 229.486C221.168 229.486 218.112 228.315 215.833 225.973C213.591 223.595 212.47 220.387 212.47 216.351C212.47 213.757 212.976 211.468 213.989 209.486C215.001 207.505 216.43 205.973 218.274 204.892C220.155 203.811 222.325 203.27 224.784 203.27C227.099 203.27 229.142 203.775 230.914 204.784C232.723 205.757 234.115 207.144 235.092 208.946C236.104 210.712 236.611 212.73 236.611 215ZM231.999 214.135C231.999 211.937 231.348 210.207 230.046 208.946C228.781 207.685 227.009 207.054 224.73 207.054C222.488 207.054 220.679 207.703 219.305 209C217.967 210.297 217.244 212.009 217.135 214.135H231.999Z"
        fill="#151D44" />
    <path
        d="M261.867 191H266.532V228.838H261.867V224.459C261.071 225.973 259.859 227.198 258.232 228.135C256.604 229.036 254.85 229.486 252.97 229.486C250.402 229.486 248.178 228.928 246.297 227.811C244.416 226.658 242.988 225.09 242.011 223.108C241.071 221.126 240.601 218.892 240.601 216.405C240.601 213.955 241.107 211.739 242.12 209.757C243.133 207.739 244.579 206.153 246.46 205C248.34 203.847 250.547 203.27 253.078 203.27C255.031 203.27 256.785 203.739 258.34 204.676C259.896 205.577 261.071 206.802 261.867 208.351V191ZM253.621 225.27C256.261 225.27 258.322 224.423 259.805 222.73C261.324 221.036 262.084 218.928 262.084 216.405C262.084 213.883 261.324 211.775 259.805 210.081C258.322 208.351 256.261 207.486 253.621 207.486C251.089 207.486 249.064 208.333 247.545 210.027C246.026 211.685 245.266 213.811 245.266 216.405C245.266 219 246.026 221.126 247.545 222.784C249.064 224.441 251.089 225.27 253.621 225.27Z"
        fill="#151D44" />
    <path
        d="M302.269 203.27C304.619 203.27 306.717 203.829 308.562 204.946C310.406 206.027 311.835 207.577 312.847 209.595C313.86 211.577 314.366 213.847 314.366 216.405C314.366 218.928 313.842 221.18 312.793 223.162C311.744 225.144 310.279 226.694 308.399 227.811C306.518 228.928 304.384 229.486 301.997 229.486C300.081 229.486 298.308 229.036 296.681 228.135C295.053 227.234 293.842 226.009 293.046 224.459V228.838H288.381V191H293.046V208.351C293.842 206.802 295.072 205.577 296.735 204.676C298.399 203.739 300.243 203.27 302.269 203.27ZM301.346 225.27C303.77 225.27 305.759 224.441 307.314 222.784C308.869 221.126 309.647 219 309.647 216.405C309.647 214.712 309.285 213.18 308.562 211.811C307.874 210.441 306.898 209.378 305.632 208.622C304.366 207.865 302.938 207.486 301.346 207.486C298.851 207.486 296.808 208.315 295.216 209.973C293.625 211.631 292.829 213.775 292.829 216.405C292.829 219 293.625 221.126 295.216 222.784C296.808 224.441 298.851 225.27 301.346 225.27Z"
        fill="#151D44" />
    <path
        d="M338.335 203.919H343V229.324C343 233.252 341.879 236.243 339.637 238.297C337.539 240.099 334.808 241 331.445 241C327.828 241 325.007 240.135 322.982 238.405C321.138 236.856 320.197 234.712 320.161 231.973H324.881C324.989 233.595 325.55 234.838 326.562 235.703C327.575 236.604 329.185 237.054 331.391 237.054C333.597 237.054 335.297 236.387 336.49 235.054C337.72 233.757 338.335 231.739 338.335 229V224.351C337.575 225.937 336.454 227.18 334.971 228.081C333.488 228.982 331.716 229.432 329.655 229.432C326.508 229.432 324.139 228.477 322.548 226.568C320.957 224.658 320.161 222.063 320.161 218.784V203.919H324.827V217.811C324.827 220.189 325.297 222.027 326.237 223.324C327.214 224.622 328.877 225.27 331.228 225.27C333.506 225.27 335.26 224.459 336.49 222.838C337.72 221.18 338.335 219.144 338.335 216.73V203.919Z"
        fill="#151D44" />
</svg>